<?xml version="1.0" encoding="utf-8" standalone="no"?>
<!DOCTYPE svg PUBLIC "-//W3C//DTD SVG 1.1//EN"
  "http://www.w3.org/Graphics/SVG/1.1/DTD/svg11.dtd">
<svg xmlns:xlink="http://www.w3.org/1999/xlink" width="620.39952pt" height="260.39952pt" viewBox="0 0 620.39952 260.39952" xmlns="http://www.w3.org/2000/svg" version="1.1">
 <metadata>
  <rdf:RDF xmlns:dc="http://purl.org/dc/elements/1.1/" xmlns:cc="http://creativecommons.org/ns#" xmlns:rdf="http://www.w3.org/1999/02/22-rdf-syntax-ns#">
   <cc:Work>
    <dc:type rdf:resource="http://purl.org/dc/dcmitype/StillImage"/>
    <dc:date>2026-09-12T09:17:39.555183</dc:date>
    <dc:format>image/svg+xml</dc:format>
    <dc:creator>
     <cc:Agent>
      <dc:title>Matplotlib v3.11.2, https://matplotlib.org/</dc:title>
     </cc:Agent>
    </dc:creator>
   </cc:Work>
  </rdf:RDF>
 </metadata>
 <defs>
  <style type="text/css">*{stroke-linejoin: round; stroke-linecap: butt}</style>
 </defs>
 <g id="figure_1">
  <g id="patch_1">
   <path d="M 0 260.39952
L 620.39952 260.39952
L 620.39952 -0
L 0 -0
z
" style="fill: #ffffff"/>
  </g>
  <g id="axes_1">
   <g id="patch_2">
    <path d="M 66.375781 222.198739
L 613.19952 222.198739
L 613.19952 54.923917
L 66.375781 54.923917
z
" style="fill: #ffffff"/>
   </g>
   <g id="matplotlib.axis_1">
    <g id="xtick_1">
     <g id="line2d_1">
      <defs>
       <path id="m4cc3cd045a" d="M 0 0
L 0 3.5
" style="stroke: #000000; stroke-width: 0.8"/>
      </defs>
      <g>
       <use xlink:href="#m4cc3cd045a" x="66.375781" y="222.198739" style="stroke: #000000; stroke-width: 0.8"/>
      </g>
     </g>
     <g id="text_1">
      <text style="font-size: 10px; font-family: 'DejaVu Sans', 'Bitstream Vera Sans', 'Computer Modern Sans Serif', 'Lucida Grande', 'Verdana', 'Geneva', 'Lucid', 'Arial', 'Helvetica', 'Avant Garde', sans-serif; text-anchor: middle" x="66.375781" y="236.796395" transform="rotate(-0 66.375781 236.796395)">0</text>
     </g>
    </g>
    <g id="xtick_2">
     <g id="line2d_2">
      <g>
       <use xlink:href="#m4cc3cd045a" x="180.297393" y="222.198739" style="stroke: #000000; stroke-width: 0.8"/>
      </g>
     </g>
     <g id="text_2">
      <text style="font-size: 10px; font-family: 'DejaVu Sans', 'Bitstream Vera Sans', 'Computer Modern Sans Serif', 'Lucida Grande', 'Verdana', 'Geneva', 'Lucid', 'Arial', 'Helvetica', 'Avant Garde', sans-serif; text-anchor: middle" x="180.297393" y="236.796395" transform="rotate(-0 180.297393 236.796395)">50</text>
     </g>
    </g>
    <g id="xtick_3">
     <g id="line2d_3">
      <g>
       <use xlink:href="#m4cc3cd045a" x="294.219006" y="222.198739" style="stroke: #000000; stroke-width: 0.8"/>
      </g>
     </g>
     <g id="text_3">
      <text style="font-size: 10px; font-family: 'DejaVu Sans', 'Bitstream Vera Sans', 'Computer Modern Sans Serif', 'Lucida Grande', 'Verdana', 'Geneva', 'Lucid', 'Arial', 'Helvetica', 'Avant Garde', sans-serif; text-anchor: middle" x="294.219006" y="236.796395" transform="rotate(-0 294.219006 236.796395)">100</text>
     </g>
    </g>
    <g id="xtick_4">
     <g id="line2d_4">
      <g>
       <use xlink:href="#m4cc3cd045a" x="408.140618" y="222.198739" style="stroke: #000000; stroke-width: 0.8"/>
      </g>
     </g>
     <g id="text_4">
      <text style="font-size: 10px; font-family: 'DejaVu Sans', 'Bitstream Vera Sans', 'Computer Modern Sans Serif', 'Lucida Grande', 'Verdana', 'Geneva', 'Lucid', 'Arial', 'Helvetica', 'Avant Garde', sans-serif; text-anchor: middle" x="408.140618" y="236.796395" transform="rotate(-0 408.140618 236.796395)">150</text>
     </g>
    </g>
    <g id="xtick_5">
     <g id="line2d_5">
      <g>
       <use xlink:href="#m4cc3cd045a" x="522.06223" y="222.198739" style="stroke: #000000; stroke-width: 0.8"/>
      </g>
     </g>
     <g id="text_5">
      <text style="font-size: 10px; font-family: 'DejaVu Sans', 'Bitstream Vera Sans', 'Computer Modern Sans Serif', 'Lucida Grande', 'Verdana', 'Geneva', 'Lucid', 'Arial', 'Helvetica', 'Avant Garde', sans-serif; text-anchor: middle" x="522.06223" y="236.796395" transform="rotate(-0 522.06223 236.796395)">200</text>
     </g>
    </g>
    <g id="text_6">
     <text style="font-size: 10px; font-family: 'DejaVu Sans', 'Bitstream Vera Sans', 'Computer Modern Sans Serif', 'Lucida Grande', 'Verdana', 'Geneva', 'Lucid', 'Arial', 'Helvetica', 'Avant Garde', sans-serif; text-anchor: middle" x="339.787651" y="250.797176" transform="rotate(-0 339.787651 250.797176)">Seconds from evaluation start</text>
    </g>
   </g>
   <g id="matplotlib.axis_2">
    <g id="ytick_1">
     <g id="line2d_6">
      <path d="M 66.375781 222.198739
L 613.19952 222.198739
" clip-path="url(#pe976142106)" style="fill: none; stroke: #b0b0b0; stroke-opacity: 0.2; stroke-width: 0.8; stroke-linecap: square"/>
     </g>
     <g id="line2d_7">
      <defs>
       <path id="m1337fdc2ac" d="M 0 0
L -3.5 0
" style="stroke: #000000; stroke-width: 0.8"/>
      </defs>
      <g>
       <use xlink:href="#m1337fdc2ac" x="66.375781" y="222.198739" style="stroke: #000000; stroke-width: 0.8"/>
      </g>
     </g>
     <g id="text_7">
      <text style="font-size: 10px; font-family: 'DejaVu Sans', 'Bitstream Vera Sans', 'Computer Modern Sans Serif', 'Lucida Grande', 'Verdana', 'Geneva', 'Lucid', 'Arial', 'Helvetica', 'Avant Garde', sans-serif; text-anchor: end" x="59.375781" y="225.997567" transform="rotate(-0 59.375781 225.997567)">0</text>
     </g>
    </g>
    <g id="ytick_2">
     <g id="line2d_8">
      <path d="M 66.375781 185.025581
L 613.19952 185.025581
" clip-path="url(#pe976142106)" style="fill: none; stroke: #b0b0b0; stroke-opacity: 0.2; stroke-width: 0.8; stroke-linecap: square"/>
     </g>
     <g id="line2d_9">
      <g>
       <use xlink:href="#m1337fdc2ac" x="66.375781" y="185.025581" style="stroke: #000000; stroke-width: 0.8"/>
      </g>
     </g>
     <g id="text_8">
      <text style="font-size: 10px; font-family: 'DejaVu Sans', 'Bitstream Vera Sans', 'Computer Modern Sans Serif', 'Lucida Grande', 'Verdana', 'Geneva', 'Lucid', 'Arial', 'Helvetica', 'Avant Garde', sans-serif; text-anchor: end" x="59.375781" y="188.82441" transform="rotate(-0 59.375781 188.82441)">50000</text>
     </g>
    </g>
    <g id="ytick_3">
     <g id="line2d_10">
      <path d="M 66.375781 147.852424
L 613.19952 147.852424
" clip-path="url(#pe976142106)" style="fill: none; stroke: #b0b0b0; stroke-opacity: 0.2; stroke-width: 0.8; stroke-linecap: square"/>
     </g>
     <g id="line2d_11">
      <g>
       <use xlink:href="#m1337fdc2ac" x="66.375781" y="147.852424" style="stroke: #000000; stroke-width: 0.8"/>
      </g>
     </g>
     <g id="text_9">
      <text style="font-size: 10px; font-family: 'DejaVu Sans', 'Bitstream Vera Sans', 'Computer Modern Sans Serif', 'Lucida Grande', 'Verdana', 'Geneva', 'Lucid', 'Arial', 'Helvetica', 'Avant Garde', sans-serif; text-anchor: end" x="59.375781" y="151.651252" transform="rotate(-0 59.375781 151.651252)">100000</text>
     </g>
    </g>
    <g id="ytick_4">
     <g id="line2d_12">
      <path d="M 66.375781 110.679267
L 613.19952 110.679267
" clip-path="url(#pe976142106)" style="fill: none; stroke: #b0b0b0; stroke-opacity: 0.2; stroke-width: 0.8; stroke-linecap: square"/>
     </g>
     <g id="line2d_13">
      <g>
       <use xlink:href="#m1337fdc2ac" x="66.375781" y="110.679267" style="stroke: #000000; stroke-width: 0.8"/>
      </g>
     </g>
     <g id="text_10">
      <text style="font-size: 10px; font-family: 'DejaVu Sans', 'Bitstream Vera Sans', 'Computer Modern Sans Serif', 'Lucida Grande', 'Verdana', 'Geneva', 'Lucid', 'Arial', 'Helvetica', 'Avant Garde', sans-serif; text-anchor: end" x="59.375781" y="114.478095" transform="rotate(-0 59.375781 114.478095)">150000</text>
     </g>
    </g>
    <g id="ytick_5">
     <g id="line2d_14">
      <path d="M 66.375781 73.50611
L 613.19952 73.50611
" clip-path="url(#pe976142106)" style="fill: none; stroke: #b0b0b0; stroke-opacity: 0.2; stroke-width: 0.8; stroke-linecap: square"/>
     </g>
     <g id="line2d_15">
      <g>
       <use xlink:href="#m1337fdc2ac" x="66.375781" y="73.50611" style="stroke: #000000; stroke-width: 0.8"/>
      </g>
     </g>
     <g id="text_11">
      <text style="font-size: 10px; font-family: 'DejaVu Sans', 'Bitstream Vera Sans', 'Computer Modern Sans Serif', 'Lucida Grande', 'Verdana', 'Geneva', 'Lucid', 'Arial', 'Helvetica', 'Avant Garde', sans-serif; text-anchor: end" x="59.375781" y="77.304938" transform="rotate(-0 59.375781 77.304938)">200000</text>
     </g>
    </g>
    <g id="text_12">
     <text style="font-size: 10px; font-family: 'DejaVu Sans', 'Bitstream Vera Sans', 'Computer Modern Sans Serif', 'Lucida Grande', 'Verdana', 'Geneva', 'Lucid', 'Arial', 'Helvetica', 'Avant Garde', sans-serif; text-anchor: middle" x="14.798438" y="138.561328" transform="rotate(-90 14.798438 138.561328)">Completion-frontier offsets</text>
    </g>
   </g>
   <g id="line2d_16">
    <path d="M 70.931559 192.317468
L 75.488424 190.371082
L 80.045288 190.371082
L 84.602153 187.185342
L 89.159017 187.185342
L 93.715882 187.177164
L 98.272746 185.314045
L 102.829611 185.314045
L 107.386475 181.923853
L 111.94334 181.923853
L 116.500204 181.92534
L 121.057069 179.790857
L 125.613933 179.790857
L 130.170798 176.67203
L 134.727662 176.67203
L 139.284527 176.673517
L 143.841391 174.683266
L 148.398256 174.683266
L 152.95512 171.42318
L 157.511985 171.42318
L 162.068849 171.413515
L 166.625714 169.322896
L 171.182578 169.322896
L 175.739443 166.259828
L 180.296307 166.259828
L 184.853172 166.257598
L 189.410036 164.123859
L 193.966901 164.123859
L 198.523765 160.960423
L 203.080629 160.960423
L 207.637494 160.967114
L 212.194358 158.950842
L 216.751223 158.950842
L 221.308087 156.580682
L 225.864952 156.580682
L 230.421816 156.56953
L 234.978681 153.467058
L 239.535545 153.467058
M 294.217919 141.393216
L 298.774784 141.393216
L 303.331648 141.390243
L 307.888513 137.981464
L 312.445377 137.985925
L 317.002242 135.616508
L 321.559106 135.614277
L 326.115971 135.61056
L 330.672835 132.178734
L 335.2297 132.180965
L 339.786564 129.875485
L 344.343429 129.876229
L 348.900293 129.872512
L 353.457158 126.393847
L 358.014022 126.399052
L 362.570887 124.268286
L 367.127751 124.266056
L 371.684616 124.263826
L 376.24148 121.693673
L 380.798345 121.695904
L 385.355209 118.235083
L 389.912074 118.235826
L 394.468938 118.238057
L 399.025803 115.943729
L 403.582667 115.942243
L 408.139532 112.50893
L 412.696396 112.510417
L 417.253261 112.51116
L 421.810125 110.169251
L 426.366989 110.16479
L 430.923854 106.652671
L 435.480718 106.652671
L 440.037583 106.653414
L 444.594447 104.28028
L 449.151312 104.283254
L 453.708176 100.88637
L 458.265041 100.885627
L 462.821905 100.888601
L 467.37877 98.545205
L 471.935634 98.539257
L 476.492499 95.175087
L 481.049363 95.17583
L 485.606228 95.17806
L 490.163092 92.758088
L 494.719957 92.755114
L 499.276821 89.29355
L 503.833686 89.294293
L 508.39055 89.296523
L 512.947415 86.975432
L 517.504279 86.973945
L 522.061144 83.478181
L 526.618008 83.479668
L 531.174873 83.481155
L 535.731737 81.134785
L 540.288602 81.133298
L 544.845466 77.676938
L 549.402331 77.676194
L 553.959195 77.679168
L 558.51606 75.389302
L 563.072924 75.383354
L 567.629789 73.07044
L 572.186653 73.074158
L 576.743518 73.071927
L 581.300382 69.598467
L 585.857247 69.603672
L 590.414111 67.215668
L 594.970976 67.217155
L 599.52784 67.215668
L 604.084705 63.77269
L 608.641569 63.771947
L 613.198434 61.466468
" clip-path="url(#pe976142106)" style="fill: none; stroke: #21618c; stroke-width: 1.5; stroke-linecap: square"/>
   </g>
   <g id="line2d_17">
    <path d="M 203.081716 222.198739
L 203.081716 54.923917
" clip-path="url(#pe976142106)" style="fill: none; stroke-dasharray: 3.7,1.6; stroke-dashoffset: 0; stroke: #444444"/>
   </g>
   <g id="patch_3">
    <path d="M 66.375781 222.198739
L 66.375781 54.923917
" style="fill: none; stroke: #000000; stroke-width: 0.8; stroke-linejoin: miter; stroke-linecap: square"/>
   </g>
   <g id="patch_4">
    <path d="M 66.375781 222.198739
L 613.19952 222.198739
" style="fill: none; stroke: #000000; stroke-width: 0.8; stroke-linejoin: miter; stroke-linecap: square"/>
   </g>
   <g id="text_13">
    <text style="font-size: 12px; font-family: 'DejaVu Sans', 'Bitstream Vera Sans', 'Computer Modern Sans Serif', 'Lucida Grande', 'Verdana', 'Geneva', 'Lucid', 'Arial', 'Helvetica', 'Avant Garde', sans-serif" transform="translate(216.829838 34.520636)">Processing backlog · 89.2% lag coverage</text>
    <text style="font-size: 12px; font-family: 'DejaVu Sans', 'Bitstream Vera Sans', 'Computer Modern Sans Serif', 'Lucida Grande', 'Verdana', 'Geneva', 'Lucid', 'Arial', 'Helvetica', 'Avant Garde', sans-serif" transform="translate(187.787026 48.923917)">Gaps denote invalid or discontinuous observations</text>
   </g>
  </g>
  <g id="text_14">
   <text style="font-size: 11px; font-family: 'DejaVu Sans', 'Bitstream Vera Sans', 'Computer Modern Sans Serif', 'Lucida Grande', 'Verdana', 'Geneva', 'Lucid', 'Arial', 'Helvetica', 'Avant Garde', sans-serif; text-anchor: middle" x="310.19976" y="15.558281" transform="rotate(-0 310.19976 15.558281)">Skew · 3 initial consumers · target 1,500/s</text>
  </g>
 </g>
 <defs>
  <clipPath id="pe976142106">
   <rect x="66.375781" y="54.923917" width="546.823739" height="167.274821"/>
  </clipPath>
 </defs>
</svg>
