<?xml version="1.0" encoding="utf-8" standalone="no"?>
<!DOCTYPE svg PUBLIC "-//W3C//DTD SVG 1.1//EN"
  "http://www.w3.org/Graphics/SVG/1.1/DTD/svg11.dtd">
<svg xmlns:xlink="http://www.w3.org/1999/xlink" width="620.39952pt" height="260.39952pt" viewBox="0 0 620.39952 260.39952" xmlns="http://www.w3.org/2000/svg" version="1.1">
 <metadata>
  <rdf:RDF xmlns:dc="http://purl.org/dc/elements/1.1/" xmlns:cc="http://creativecommons.org/ns#" xmlns:rdf="http://www.w3.org/1999/02/22-rdf-syntax-ns#">
   <cc:Work>
    <dc:type rdf:resource="http://purl.org/dc/dcmitype/StillImage"/>
    <dc:date>2026-09-13T03:58:12.467650</dc:date>
    <dc:format>image/svg+xml</dc:format>
    <dc:creator>
     <cc:Agent>
      <dc:title>Matplotlib v3.11.2, https://matplotlib.org/</dc:title>
     </cc:Agent>
    </dc:creator>
   </cc:Work>
  </rdf:RDF>
 </metadata>
 <defs>
  <style type="text/css">*{stroke-linejoin: round; stroke-linecap: butt}</style>
 </defs>
 <g id="figure_1">
  <g id="patch_1">
   <path d="M 0 260.39952
L 620.39952 260.39952
L 620.39952 -0
L 0 -0
z
" style="fill: #ffffff"/>
  </g>
  <g id="axes_1">
   <g id="patch_2">
    <path d="M 53.650781 222.198739
L 613.19952 222.198739
L 613.19952 39.319464
L 53.650781 39.319464
z
" style="fill: #ffffff"/>
   </g>
   <g id="matplotlib.axis_1">
    <g id="xtick_1">
     <g id="line2d_1">
      <defs>
       <path id="meb8c4ae2d9" d="M 0 0
L 0 3.5
" style="stroke: #000000; stroke-width: 0.8"/>
      </defs>
      <g>
       <use xlink:href="#meb8c4ae2d9" x="53.650781" y="222.198739" style="stroke: #000000; stroke-width: 0.8"/>
      </g>
     </g>
     <g id="text_1">
      <text style="font-size: 10px; font-family: 'DejaVu Sans', 'Bitstream Vera Sans', 'Computer Modern Sans Serif', 'Lucida Grande', 'Verdana', 'Geneva', 'Lucid', 'Arial', 'Helvetica', 'Avant Garde', sans-serif; text-anchor: middle" x="53.650781" y="236.796395" transform="rotate(-0 53.650781 236.796395)">0</text>
     </g>
    </g>
    <g id="xtick_2">
     <g id="line2d_2">
      <g>
       <use xlink:href="#meb8c4ae2d9" x="170.223435" y="222.198739" style="stroke: #000000; stroke-width: 0.8"/>
      </g>
     </g>
     <g id="text_2">
      <text style="font-size: 10px; font-family: 'DejaVu Sans', 'Bitstream Vera Sans', 'Computer Modern Sans Serif', 'Lucida Grande', 'Verdana', 'Geneva', 'Lucid', 'Arial', 'Helvetica', 'Avant Garde', sans-serif; text-anchor: middle" x="170.223435" y="236.796395" transform="rotate(-0 170.223435 236.796395)">50</text>
     </g>
    </g>
    <g id="xtick_3">
     <g id="line2d_3">
      <g>
       <use xlink:href="#meb8c4ae2d9" x="286.796089" y="222.198739" style="stroke: #000000; stroke-width: 0.8"/>
      </g>
     </g>
     <g id="text_3">
      <text style="font-size: 10px; font-family: 'DejaVu Sans', 'Bitstream Vera Sans', 'Computer Modern Sans Serif', 'Lucida Grande', 'Verdana', 'Geneva', 'Lucid', 'Arial', 'Helvetica', 'Avant Garde', sans-serif; text-anchor: middle" x="286.796089" y="236.796395" transform="rotate(-0 286.796089 236.796395)">100</text>
     </g>
    </g>
    <g id="xtick_4">
     <g id="line2d_4">
      <g>
       <use xlink:href="#meb8c4ae2d9" x="403.368743" y="222.198739" style="stroke: #000000; stroke-width: 0.8"/>
      </g>
     </g>
     <g id="text_4">
      <text style="font-size: 10px; font-family: 'DejaVu Sans', 'Bitstream Vera Sans', 'Computer Modern Sans Serif', 'Lucida Grande', 'Verdana', 'Geneva', 'Lucid', 'Arial', 'Helvetica', 'Avant Garde', sans-serif; text-anchor: middle" x="403.368743" y="236.796395" transform="rotate(-0 403.368743 236.796395)">150</text>
     </g>
    </g>
    <g id="xtick_5">
     <g id="line2d_5">
      <g>
       <use xlink:href="#meb8c4ae2d9" x="519.941397" y="222.198739" style="stroke: #000000; stroke-width: 0.8"/>
      </g>
     </g>
     <g id="text_5">
      <text style="font-size: 10px; font-family: 'DejaVu Sans', 'Bitstream Vera Sans', 'Computer Modern Sans Serif', 'Lucida Grande', 'Verdana', 'Geneva', 'Lucid', 'Arial', 'Helvetica', 'Avant Garde', sans-serif; text-anchor: middle" x="519.941397" y="236.796395" transform="rotate(-0 519.941397 236.796395)">200</text>
     </g>
    </g>
    <g id="text_6">
     <text style="font-size: 10px; font-family: 'DejaVu Sans', 'Bitstream Vera Sans', 'Computer Modern Sans Serif', 'Lucida Grande', 'Verdana', 'Geneva', 'Lucid', 'Arial', 'Helvetica', 'Avant Garde', sans-serif; text-anchor: middle" x="333.425151" y="250.797176" transform="rotate(-0 333.425151 250.797176)">Seconds from evaluation start</text>
    </g>
   </g>
   <g id="matplotlib.axis_2">
    <g id="ytick_1">
     <g id="line2d_6">
      <path d="M 53.650781 222.198739
L 613.19952 222.198739
" clip-path="url(#pb936416404)" style="fill: none; stroke: #b0b0b0; stroke-opacity: 0.2; stroke-width: 0.8; stroke-linecap: square"/>
     </g>
     <g id="line2d_7">
      <defs>
       <path id="m932c6ec013" d="M 0 0
L -3.5 0
" style="stroke: #000000; stroke-width: 0.8"/>
      </defs>
      <g>
       <use xlink:href="#m932c6ec013" x="53.650781" y="222.198739" style="stroke: #000000; stroke-width: 0.8"/>
      </g>
     </g>
     <g id="text_7">
      <text style="font-size: 10px; font-family: 'DejaVu Sans', 'Bitstream Vera Sans', 'Computer Modern Sans Serif', 'Lucida Grande', 'Verdana', 'Geneva', 'Lucid', 'Arial', 'Helvetica', 'Avant Garde', sans-serif; text-anchor: end" x="46.650781" y="225.997567" transform="rotate(-0 46.650781 225.997567)">0</text>
     </g>
    </g>
    <g id="ytick_2">
     <g id="line2d_8">
      <path d="M 53.650781 199.141982
L 613.19952 199.141982
" clip-path="url(#pb936416404)" style="fill: none; stroke: #b0b0b0; stroke-opacity: 0.2; stroke-width: 0.8; stroke-linecap: square"/>
     </g>
     <g id="line2d_9">
      <g>
       <use xlink:href="#m932c6ec013" x="53.650781" y="199.141982" style="stroke: #000000; stroke-width: 0.8"/>
      </g>
     </g>
     <g id="text_8">
      <text style="font-size: 10px; font-family: 'DejaVu Sans', 'Bitstream Vera Sans', 'Computer Modern Sans Serif', 'Lucida Grande', 'Verdana', 'Geneva', 'Lucid', 'Arial', 'Helvetica', 'Avant Garde', sans-serif; text-anchor: end" x="46.650781" y="202.940811" transform="rotate(-0 46.650781 202.940811)">200</text>
     </g>
    </g>
    <g id="ytick_3">
     <g id="line2d_10">
      <path d="M 53.650781 176.085226
L 613.19952 176.085226
" clip-path="url(#pb936416404)" style="fill: none; stroke: #b0b0b0; stroke-opacity: 0.2; stroke-width: 0.8; stroke-linecap: square"/>
     </g>
     <g id="line2d_11">
      <g>
       <use xlink:href="#m932c6ec013" x="53.650781" y="176.085226" style="stroke: #000000; stroke-width: 0.8"/>
      </g>
     </g>
     <g id="text_9">
      <text style="font-size: 10px; font-family: 'DejaVu Sans', 'Bitstream Vera Sans', 'Computer Modern Sans Serif', 'Lucida Grande', 'Verdana', 'Geneva', 'Lucid', 'Arial', 'Helvetica', 'Avant Garde', sans-serif; text-anchor: end" x="46.650781" y="179.884054" transform="rotate(-0 46.650781 179.884054)">400</text>
     </g>
    </g>
    <g id="ytick_4">
     <g id="line2d_12">
      <path d="M 53.650781 153.02847
L 613.19952 153.02847
" clip-path="url(#pb936416404)" style="fill: none; stroke: #b0b0b0; stroke-opacity: 0.2; stroke-width: 0.8; stroke-linecap: square"/>
     </g>
     <g id="line2d_13">
      <g>
       <use xlink:href="#m932c6ec013" x="53.650781" y="153.02847" style="stroke: #000000; stroke-width: 0.8"/>
      </g>
     </g>
     <g id="text_10">
      <text style="font-size: 10px; font-family: 'DejaVu Sans', 'Bitstream Vera Sans', 'Computer Modern Sans Serif', 'Lucida Grande', 'Verdana', 'Geneva', 'Lucid', 'Arial', 'Helvetica', 'Avant Garde', sans-serif; text-anchor: end" x="46.650781" y="156.827298" transform="rotate(-0 46.650781 156.827298)">600</text>
     </g>
    </g>
    <g id="ytick_5">
     <g id="line2d_14">
      <path d="M 53.650781 129.971713
L 613.19952 129.971713
" clip-path="url(#pb936416404)" style="fill: none; stroke: #b0b0b0; stroke-opacity: 0.2; stroke-width: 0.8; stroke-linecap: square"/>
     </g>
     <g id="line2d_15">
      <g>
       <use xlink:href="#m932c6ec013" x="53.650781" y="129.971713" style="stroke: #000000; stroke-width: 0.8"/>
      </g>
     </g>
     <g id="text_11">
      <text style="font-size: 10px; font-family: 'DejaVu Sans', 'Bitstream Vera Sans', 'Computer Modern Sans Serif', 'Lucida Grande', 'Verdana', 'Geneva', 'Lucid', 'Arial', 'Helvetica', 'Avant Garde', sans-serif; text-anchor: end" x="46.650781" y="133.770541" transform="rotate(-0 46.650781 133.770541)">800</text>
     </g>
    </g>
    <g id="ytick_6">
     <g id="line2d_16">
      <path d="M 53.650781 106.914957
L 613.19952 106.914957
" clip-path="url(#pb936416404)" style="fill: none; stroke: #b0b0b0; stroke-opacity: 0.2; stroke-width: 0.8; stroke-linecap: square"/>
     </g>
     <g id="line2d_17">
      <g>
       <use xlink:href="#m932c6ec013" x="53.650781" y="106.914957" style="stroke: #000000; stroke-width: 0.8"/>
      </g>
     </g>
     <g id="text_12">
      <text style="font-size: 10px; font-family: 'DejaVu Sans', 'Bitstream Vera Sans', 'Computer Modern Sans Serif', 'Lucida Grande', 'Verdana', 'Geneva', 'Lucid', 'Arial', 'Helvetica', 'Avant Garde', sans-serif; text-anchor: end" x="46.650781" y="110.713785" transform="rotate(-0 46.650781 110.713785)">1000</text>
     </g>
    </g>
    <g id="ytick_7">
     <g id="line2d_18">
      <path d="M 53.650781 83.858201
L 613.19952 83.858201
" clip-path="url(#pb936416404)" style="fill: none; stroke: #b0b0b0; stroke-opacity: 0.2; stroke-width: 0.8; stroke-linecap: square"/>
     </g>
     <g id="line2d_19">
      <g>
       <use xlink:href="#m932c6ec013" x="53.650781" y="83.858201" style="stroke: #000000; stroke-width: 0.8"/>
      </g>
     </g>
     <g id="text_13">
      <text style="font-size: 10px; font-family: 'DejaVu Sans', 'Bitstream Vera Sans', 'Computer Modern Sans Serif', 'Lucida Grande', 'Verdana', 'Geneva', 'Lucid', 'Arial', 'Helvetica', 'Avant Garde', sans-serif; text-anchor: end" x="46.650781" y="87.657029" transform="rotate(-0 46.650781 87.657029)">1200</text>
     </g>
    </g>
    <g id="ytick_8">
     <g id="line2d_20">
      <path d="M 53.650781 60.801444
L 613.19952 60.801444
" clip-path="url(#pb936416404)" style="fill: none; stroke: #b0b0b0; stroke-opacity: 0.2; stroke-width: 0.8; stroke-linecap: square"/>
     </g>
     <g id="line2d_21">
      <g>
       <use xlink:href="#m932c6ec013" x="53.650781" y="60.801444" style="stroke: #000000; stroke-width: 0.8"/>
      </g>
     </g>
     <g id="text_14">
      <text style="font-size: 10px; font-family: 'DejaVu Sans', 'Bitstream Vera Sans', 'Computer Modern Sans Serif', 'Lucida Grande', 'Verdana', 'Geneva', 'Lucid', 'Arial', 'Helvetica', 'Avant Garde', sans-serif; text-anchor: end" x="46.650781" y="64.600272" transform="rotate(-0 46.650781 64.600272)">1400</text>
     </g>
    </g>
    <g id="text_15">
     <text style="font-size: 10px; font-family: 'DejaVu Sans', 'Bitstream Vera Sans', 'Computer Modern Sans Serif', 'Lucida Grande', 'Verdana', 'Geneva', 'Lucid', 'Arial', 'Helvetica', 'Avant Garde', sans-serif; text-anchor: middle" x="14.798438" y="130.759102" transform="rotate(-90 14.798438 130.759102)">Messages / second</text>
    </g>
   </g>
   <g id="line2d_22">
    <path d="M -1 49.338783
L 2.358532 49.199284
L 7.021438 49.143948
L 11.684344 49.291511
L 21.010156 49.203896
L 25.673062 49.416018
L 30.335969 49.466743
L 34.998875 49.291511
L 39.661781 49.291511
L 44.324687 49.079389
L 53.650499 49.088612
L 58.313406 50.264507
L 62.976312 50.264507
L 67.639218 49.881764
L 72.302124 49.18545
L 90.953749 49.019442
L 95.616655 49.273066
L 109.605373 49.277677
L 114.268279 48.941049
L 118.931186 48.267792
L 123.594092 48.244735
L 128.256998 50.375179
L 137.58281 50.329066
L 142.245716 49.236175
L 165.560247 49.259232
L 184.211872 49.282289
L 188.874778 48.240123
L 193.537684 48.346184
L 198.20059 50.522742
L 202.863496 50.522742
L 207.526403 50.402847
L 212.189309 49.291511
L 226.178027 49.392961
L 230.840933 49.273066
L 240.166746 49.31918
L 254.155464 49.111669
L 258.81837 48.028001
L 263.481276 48.226289
L 268.144183 49.577415
L 272.807089 49.577415
L 277.469995 49.337625
L 282.132901 49.226953
L 291.458713 49.222341
L 300.784526 49.323791
L 305.447432 49.434463
L 314.773244 49.296123
L 324.099056 49.240787
L 328.761963 49.019442
L 333.424869 49.139337
L 338.087775 49.614306
L 347.413587 49.646586
L 352.076493 49.379127
L 356.7394 49.38835
L 361.402306 49.245398
L 370.728118 49.250009
L 375.391024 49.397573
L 380.05393 49.374516
L 384.716837 49.194673
L 389.379743 49.194673
L 394.042649 49.383739
L 398.705555 48.97794
L 408.031367 49.595861
L 412.694273 49.595861
L 417.35718 49.093223
L 422.020086 49.111669
L 426.682992 49.346848
L 459.323335 49.208507
L 463.986241 48.858044
L 468.649147 48.80732
L 473.312053 49.273066
L 482.637866 49.277677
L 487.300772 49.171616
L 496.626584 49.337625
L 501.28949 49.167005
L 505.952397 49.167005
L 510.615303 49.549747
L 515.278209 49.595861
L 519.941115 49.305346
L 529.266927 49.305346
L 533.929834 49.803371
L 543.255646 49.794149
L 547.918552 49.111669
L 557.244364 49.171616
L 561.90727 49.346848
L 566.570177 49.000996
L 575.895989 48.931826
L 580.558895 49.250009
L 589.884707 49.273066
L 594.547614 48.894935
L 599.21052 48.894935
L 603.873426 49.443686
L 608.536332 49.2869
L 613.199238 49.466743
L 617.862144 53.077431
L 621.39952 53.077431
L 621.39952 53.077431
" clip-path="url(#pb936416404)" style="fill: none; stroke: #21618c; stroke-width: 1.4; stroke-linecap: square"/>
   </g>
   <g id="line2d_23">
    <path d="M -1 130.323978
L 2.358532 130.323978
L 7.021438 130.658805
L 11.684344 130.658805
L 16.34725 132.014542
L 25.673062 132.014542
L 30.335969 132.604795
L 34.998875 132.604795
L 39.661781 132.798472
L 44.324687 132.673965
L 48.987593 132.673965
L 53.650499 131.827463
L 58.313406 131.827463
L 62.976312 131.982804
L 67.639218 131.479625
L 72.302124 131.479625
L 76.96503 130.893984
L 81.627936 130.893984
L 86.290843 130.188447
L 95.616655 130.110054
L 100.279561 129.833373
L 104.942467 129.833373
L 109.605373 130.483573
L 114.268279 130.598857
L 118.931186 130.598857
L 123.594092 130.797145
L 128.256998 130.797145
L 132.919904 130.612691
L 137.58281 131.046158
L 142.245716 131.046158
L 146.908623 132.397284
L 151.571529 132.397284
L 156.234435 132.784638
L 160.897341 132.96448
L 165.560247 132.96448
L 170.223153 133.093598
L 179.548966 133.195048
L 188.874778 133.250384
L 198.20059 133.171991
L 202.863496 133.356445
L 212.189309 133.421004
L 216.852215 133.061319
L 235.50384 133.075153
L 240.166746 132.789249
L 244.829652 132.789249
L 249.492558 132.406507
L 258.81837 132.503345
L 263.481276 131.110717
L 268.144183 131.110717
L 272.807089 131.424289
L 282.132901 131.425699
L 286.795807 131.01849
L 291.458713 131.01849
L 296.12162 130.294508
L 305.447432 130.276063
L 310.110338 130.123888
L 314.773244 130.123888
L 319.43615 130.359067
L 328.761963 130.345233
L 333.424869 129.014484
L 342.750681 129.032929
L 347.413587 129.252343
L 352.076493 129.252343
L 356.7394 129.593583
L 375.391024 129.48291
L 384.716837 129.455242
L 389.379743 130.031661
L 394.042649 130.19767
L 422.020086 130.160779
L 426.682992 130.008604
L 431.345898 130.008604
L 436.008804 130.423626
L 449.997523 130.170001
L 454.660429 130.170001
L 459.323335 129.718089
L 463.986241 129.833373
L 468.649147 129.833373
L 473.312053 129.990159
L 477.97496 129.990159
L 482.637866 130.515853
L 515.278209 130.580412
L 519.941115 130.792534
L 538.59274 130.893984
L 543.255646 130.050106
L 561.90727 129.953268
L 571.233083 129.897932
L 575.895989 130.174613
L 585.221801 130.262228
L 594.547614 130.239172
L 599.21052 130.714141
L 608.536332 130.644971
L 613.199238 130.391346
L 617.862144 130.391346
L 621.39952 131.479307
L 621.39952 131.479307
" clip-path="url(#pb936416404)" style="fill: none; stroke: #cc641c; stroke-width: 1.4; stroke-linecap: square"/>
   </g>
   <g id="line2d_24">
    <path d="M 53.650781 49.273066
L 613.19952 49.273066
" clip-path="url(#pb936416404)" style="fill: none; stroke-dasharray: 1,1.65; stroke-dashoffset: 0; stroke: #777777"/>
   </g>
   <g id="line2d_25">
    <path d="M 193.537966 222.198739
L 193.537966 39.319464
" clip-path="url(#pb936416404)" style="fill: none; stroke-dasharray: 3.7,1.6; stroke-dashoffset: 0; stroke: #444444"/>
   </g>
   <g id="patch_3">
    <path d="M 53.650781 222.198739
L 53.650781 39.319464
" style="fill: none; stroke: #000000; stroke-width: 0.8; stroke-linejoin: miter; stroke-linecap: square"/>
   </g>
   <g id="patch_4">
    <path d="M 53.650781 222.198739
L 613.19952 222.198739
" style="fill: none; stroke: #000000; stroke-width: 0.8; stroke-linejoin: miter; stroke-linecap: square"/>
   </g>
   <g id="text_16">
    <text style="font-size: 12px; font-family: 'DejaVu Sans', 'Bitstream Vera Sans', 'Computer Modern Sans Serif', 'Lucida Grande', 'Verdana', 'Geneva', 'Lucid', 'Arial', 'Helvetica', 'Avant Garde', sans-serif; text-anchor: middle" x="333.425151" y="33.319464" transform="rotate(-0 333.425151 33.319464)">Throughput · rolling 30-second rates</text>
   </g>
   <g id="legend_1">
    <g id="patch_5">
     <path d="M 59.250781 218.198739
L 181.840781 218.198739
Q 183.440781 218.198739 183.440781 216.598739
L 183.440781 181.396864
Q 183.440781 179.796864 181.840781 179.796864
L 59.250781 179.796864
Q 57.650781 179.796864 57.650781 181.396864
L 57.650781 216.598739
Q 57.650781 218.198739 59.250781 218.198739
z
" style="fill: #ffffff; opacity: 0.8; stroke: #cccccc; stroke-linejoin: miter"/>
    </g>
    <g id="line2d_26">
     <path d="M 60.850781 186.275614
L 68.850781 186.275614
L 76.850781 186.275614
" style="fill: none; stroke: #21618c; stroke-width: 1.4; stroke-linecap: square"/>
    </g>
    <g id="text_17">
     <text style="font-size: 8px; font-family: 'DejaVu Sans', 'Bitstream Vera Sans', 'Computer Modern Sans Serif', 'Lucida Grande', 'Verdana', 'Geneva', 'Lucid', 'Arial', 'Helvetica', 'Avant Garde', sans-serif; text-anchor: start" x="83.250781" y="189.075614" transform="rotate(-0 83.250781 189.075614)">Acknowledged attempts</text>
    </g>
    <g id="line2d_27">
     <path d="M 60.850781 198.276239
L 68.850781 198.276239
L 76.850781 198.276239
" style="fill: none; stroke: #cc641c; stroke-width: 1.4; stroke-linecap: square"/>
    </g>
    <g id="text_18">
     <text style="font-size: 8px; font-family: 'DejaVu Sans', 'Bitstream Vera Sans', 'Computer Modern Sans Serif', 'Lucida Grande', 'Verdana', 'Geneva', 'Lucid', 'Arial', 'Helvetica', 'Avant Garde', sans-serif; text-anchor: start" x="83.250781" y="201.076239" transform="rotate(-0 83.250781 201.076239)">Completed attempts</text>
    </g>
    <g id="line2d_28">
     <path d="M 60.850781 210.276864
L 68.850781 210.276864
L 76.850781 210.276864
" style="fill: none; stroke-dasharray: 1,1.65; stroke-dashoffset: 0; stroke: #777777"/>
    </g>
    <g id="text_19">
     <text style="font-size: 8px; font-family: 'DejaVu Sans', 'Bitstream Vera Sans', 'Computer Modern Sans Serif', 'Lucida Grande', 'Verdana', 'Geneva', 'Lucid', 'Arial', 'Helvetica', 'Avant Garde', sans-serif; text-anchor: start" x="83.250781" y="213.076864" transform="rotate(-0 83.250781 213.076864)">Configured target</text>
    </g>
   </g>
  </g>
  <g id="text_20">
   <text style="font-size: 11px; font-family: 'DejaVu Sans', 'Bitstream Vera Sans', 'Computer Modern Sans Serif', 'Lucida Grande', 'Verdana', 'Geneva', 'Lucid', 'Arial', 'Helvetica', 'Avant Garde', sans-serif; text-anchor: middle" x="310.19976" y="15.558281" transform="rotate(-0 310.19976 15.558281)">Skew · 3 initial consumers · target 1,500/s</text>
  </g>
 </g>
 <defs>
  <clipPath id="pb936416404">
   <rect x="53.650781" y="39.319464" width="559.548739" height="182.879274"/>
  </clipPath>
 </defs>
</svg>
