<?xml version="1.0" encoding="utf-8" standalone="no"?>
<!DOCTYPE svg PUBLIC "-//W3C//DTD SVG 1.1//EN"
  "http://www.w3.org/Graphics/SVG/1.1/DTD/svg11.dtd">
<svg xmlns:xlink="http://www.w3.org/1999/xlink" width="620.39952pt" height="260.39952pt" viewBox="0 0 620.39952 260.39952" xmlns="http://www.w3.org/2000/svg" version="1.1">
 <metadata>
  <rdf:RDF xmlns:dc="http://purl.org/dc/elements/1.1/" xmlns:cc="http://creativecommons.org/ns#" xmlns:rdf="http://www.w3.org/1999/02/22-rdf-syntax-ns#">
   <cc:Work>
    <dc:type rdf:resource="http://purl.org/dc/dcmitype/StillImage"/>
    <dc:date>2026-09-12T07:26:38.929143</dc:date>
    <dc:format>image/svg+xml</dc:format>
    <dc:creator>
     <cc:Agent>
      <dc:title>Matplotlib v3.11.2, https://matplotlib.org/</dc:title>
     </cc:Agent>
    </dc:creator>
   </cc:Work>
  </rdf:RDF>
 </metadata>
 <defs>
  <style type="text/css">*{stroke-linejoin: round; stroke-linecap: butt}</style>
 </defs>
 <g id="figure_1">
  <g id="patch_1">
   <path d="M 0 260.39952
L 620.39952 260.39952
L 620.39952 -0
L 0 -0
z
" style="fill: #ffffff"/>
  </g>
  <g id="axes_1">
   <g id="patch_2">
    <path d="M 47.2875 222.198739
L 603.65577 222.198739
L 603.65577 39.319464
L 47.2875 39.319464
z
" style="fill: #ffffff"/>
   </g>
   <g id="matplotlib.axis_1">
    <g id="xtick_1">
     <g id="line2d_1">
      <defs>
       <path id="m04b79d1aea" d="M 0 0
L 0 3.5
" style="stroke: #000000; stroke-width: 0.8"/>
      </defs>
      <g>
       <use xlink:href="#m04b79d1aea" x="47.2875" y="222.198739" style="stroke: #000000; stroke-width: 0.8"/>
      </g>
     </g>
     <g id="text_1">
      <text style="font-size: 10px; font-family: 'DejaVu Sans', 'Bitstream Vera Sans', 'Computer Modern Sans Serif', 'Lucida Grande', 'Verdana', 'Geneva', 'Lucid', 'Arial', 'Helvetica', 'Avant Garde', sans-serif; text-anchor: middle" x="47.2875" y="236.796395" transform="rotate(-0 47.2875 236.796395)">0</text>
     </g>
    </g>
    <g id="xtick_2">
     <g id="line2d_2">
      <g>
       <use xlink:href="#m04b79d1aea" x="140.015545" y="222.198739" style="stroke: #000000; stroke-width: 0.8"/>
      </g>
     </g>
     <g id="text_2">
      <text style="font-size: 10px; font-family: 'DejaVu Sans', 'Bitstream Vera Sans', 'Computer Modern Sans Serif', 'Lucida Grande', 'Verdana', 'Geneva', 'Lucid', 'Arial', 'Helvetica', 'Avant Garde', sans-serif; text-anchor: middle" x="140.015545" y="236.796395" transform="rotate(-0 140.015545 236.796395)">20</text>
     </g>
    </g>
    <g id="xtick_3">
     <g id="line2d_3">
      <g>
       <use xlink:href="#m04b79d1aea" x="232.74359" y="222.198739" style="stroke: #000000; stroke-width: 0.8"/>
      </g>
     </g>
     <g id="text_3">
      <text style="font-size: 10px; font-family: 'DejaVu Sans', 'Bitstream Vera Sans', 'Computer Modern Sans Serif', 'Lucida Grande', 'Verdana', 'Geneva', 'Lucid', 'Arial', 'Helvetica', 'Avant Garde', sans-serif; text-anchor: middle" x="232.74359" y="236.796395" transform="rotate(-0 232.74359 236.796395)">40</text>
     </g>
    </g>
    <g id="xtick_4">
     <g id="line2d_4">
      <g>
       <use xlink:href="#m04b79d1aea" x="325.471635" y="222.198739" style="stroke: #000000; stroke-width: 0.8"/>
      </g>
     </g>
     <g id="text_4">
      <text style="font-size: 10px; font-family: 'DejaVu Sans', 'Bitstream Vera Sans', 'Computer Modern Sans Serif', 'Lucida Grande', 'Verdana', 'Geneva', 'Lucid', 'Arial', 'Helvetica', 'Avant Garde', sans-serif; text-anchor: middle" x="325.471635" y="236.796395" transform="rotate(-0 325.471635 236.796395)">60</text>
     </g>
    </g>
    <g id="xtick_5">
     <g id="line2d_5">
      <g>
       <use xlink:href="#m04b79d1aea" x="418.19968" y="222.198739" style="stroke: #000000; stroke-width: 0.8"/>
      </g>
     </g>
     <g id="text_5">
      <text style="font-size: 10px; font-family: 'DejaVu Sans', 'Bitstream Vera Sans', 'Computer Modern Sans Serif', 'Lucida Grande', 'Verdana', 'Geneva', 'Lucid', 'Arial', 'Helvetica', 'Avant Garde', sans-serif; text-anchor: middle" x="418.19968" y="236.796395" transform="rotate(-0 418.19968 236.796395)">80</text>
     </g>
    </g>
    <g id="xtick_6">
     <g id="line2d_6">
      <g>
       <use xlink:href="#m04b79d1aea" x="510.927725" y="222.198739" style="stroke: #000000; stroke-width: 0.8"/>
      </g>
     </g>
     <g id="text_6">
      <text style="font-size: 10px; font-family: 'DejaVu Sans', 'Bitstream Vera Sans', 'Computer Modern Sans Serif', 'Lucida Grande', 'Verdana', 'Geneva', 'Lucid', 'Arial', 'Helvetica', 'Avant Garde', sans-serif; text-anchor: middle" x="510.927725" y="236.796395" transform="rotate(-0 510.927725 236.796395)">100</text>
     </g>
    </g>
    <g id="xtick_7">
     <g id="line2d_7">
      <g>
       <use xlink:href="#m04b79d1aea" x="603.65577" y="222.198739" style="stroke: #000000; stroke-width: 0.8"/>
      </g>
     </g>
     <g id="text_7">
      <text style="font-size: 10px; font-family: 'DejaVu Sans', 'Bitstream Vera Sans', 'Computer Modern Sans Serif', 'Lucida Grande', 'Verdana', 'Geneva', 'Lucid', 'Arial', 'Helvetica', 'Avant Garde', sans-serif; text-anchor: middle" x="603.65577" y="236.796395" transform="rotate(-0 603.65577 236.796395)">120</text>
     </g>
    </g>
    <g id="text_8">
     <text style="font-size: 10px; font-family: 'DejaVu Sans', 'Bitstream Vera Sans', 'Computer Modern Sans Serif', 'Lucida Grande', 'Verdana', 'Geneva', 'Lucid', 'Arial', 'Helvetica', 'Avant Garde', sans-serif; text-anchor: middle" x="325.471635" y="250.797176" transform="rotate(-0 325.471635 250.797176)">Seconds from evaluation start</text>
    </g>
   </g>
   <g id="matplotlib.axis_2">
    <g id="ytick_1">
     <g id="line2d_8">
      <path d="M 47.2875 222.198739
L 603.65577 222.198739
" clip-path="url(#pd1d9992114)" style="fill: none; stroke: #b0b0b0; stroke-opacity: 0.2; stroke-width: 0.8; stroke-linecap: square"/>
     </g>
     <g id="line2d_9">
      <defs>
       <path id="m00ea440ee0" d="M 0 0
L -3.5 0
" style="stroke: #000000; stroke-width: 0.8"/>
      </defs>
      <g>
       <use xlink:href="#m00ea440ee0" x="47.2875" y="222.198739" style="stroke: #000000; stroke-width: 0.8"/>
      </g>
     </g>
     <g id="text_9">
      <text style="font-size: 10px; font-family: 'DejaVu Sans', 'Bitstream Vera Sans', 'Computer Modern Sans Serif', 'Lucida Grande', 'Verdana', 'Geneva', 'Lucid', 'Arial', 'Helvetica', 'Avant Garde', sans-serif; text-anchor: end" x="40.2875" y="225.997567" transform="rotate(-0 40.2875 225.997567)">0</text>
     </g>
    </g>
    <g id="ytick_2">
     <g id="line2d_10">
      <path d="M 47.2875 191.768309
L 603.65577 191.768309
" clip-path="url(#pd1d9992114)" style="fill: none; stroke: #b0b0b0; stroke-opacity: 0.2; stroke-width: 0.8; stroke-linecap: square"/>
     </g>
     <g id="line2d_11">
      <g>
       <use xlink:href="#m00ea440ee0" x="47.2875" y="191.768309" style="stroke: #000000; stroke-width: 0.8"/>
      </g>
     </g>
     <g id="text_10">
      <text style="font-size: 10px; font-family: 'DejaVu Sans', 'Bitstream Vera Sans', 'Computer Modern Sans Serif', 'Lucida Grande', 'Verdana', 'Geneva', 'Lucid', 'Arial', 'Helvetica', 'Avant Garde', sans-serif; text-anchor: end" x="40.2875" y="195.567137" transform="rotate(-0 40.2875 195.567137)">20</text>
     </g>
    </g>
    <g id="ytick_3">
     <g id="line2d_12">
      <path d="M 47.2875 161.33788
L 603.65577 161.33788
" clip-path="url(#pd1d9992114)" style="fill: none; stroke: #b0b0b0; stroke-opacity: 0.2; stroke-width: 0.8; stroke-linecap: square"/>
     </g>
     <g id="line2d_13">
      <g>
       <use xlink:href="#m00ea440ee0" x="47.2875" y="161.33788" style="stroke: #000000; stroke-width: 0.8"/>
      </g>
     </g>
     <g id="text_11">
      <text style="font-size: 10px; font-family: 'DejaVu Sans', 'Bitstream Vera Sans', 'Computer Modern Sans Serif', 'Lucida Grande', 'Verdana', 'Geneva', 'Lucid', 'Arial', 'Helvetica', 'Avant Garde', sans-serif; text-anchor: end" x="40.2875" y="165.136708" transform="rotate(-0 40.2875 165.136708)">40</text>
     </g>
    </g>
    <g id="ytick_4">
     <g id="line2d_14">
      <path d="M 47.2875 130.90745
L 603.65577 130.90745
" clip-path="url(#pd1d9992114)" style="fill: none; stroke: #b0b0b0; stroke-opacity: 0.2; stroke-width: 0.8; stroke-linecap: square"/>
     </g>
     <g id="line2d_15">
      <g>
       <use xlink:href="#m00ea440ee0" x="47.2875" y="130.90745" style="stroke: #000000; stroke-width: 0.8"/>
      </g>
     </g>
     <g id="text_12">
      <text style="font-size: 10px; font-family: 'DejaVu Sans', 'Bitstream Vera Sans', 'Computer Modern Sans Serif', 'Lucida Grande', 'Verdana', 'Geneva', 'Lucid', 'Arial', 'Helvetica', 'Avant Garde', sans-serif; text-anchor: end" x="40.2875" y="134.706278" transform="rotate(-0 40.2875 134.706278)">60</text>
     </g>
    </g>
    <g id="ytick_5">
     <g id="line2d_16">
      <path d="M 47.2875 100.47702
L 603.65577 100.47702
" clip-path="url(#pd1d9992114)" style="fill: none; stroke: #b0b0b0; stroke-opacity: 0.2; stroke-width: 0.8; stroke-linecap: square"/>
     </g>
     <g id="line2d_17">
      <g>
       <use xlink:href="#m00ea440ee0" x="47.2875" y="100.47702" style="stroke: #000000; stroke-width: 0.8"/>
      </g>
     </g>
     <g id="text_13">
      <text style="font-size: 10px; font-family: 'DejaVu Sans', 'Bitstream Vera Sans', 'Computer Modern Sans Serif', 'Lucida Grande', 'Verdana', 'Geneva', 'Lucid', 'Arial', 'Helvetica', 'Avant Garde', sans-serif; text-anchor: end" x="40.2875" y="104.275848" transform="rotate(-0 40.2875 104.275848)">80</text>
     </g>
    </g>
    <g id="ytick_6">
     <g id="line2d_18">
      <path d="M 47.2875 70.046591
L 603.65577 70.046591
" clip-path="url(#pd1d9992114)" style="fill: none; stroke: #b0b0b0; stroke-opacity: 0.2; stroke-width: 0.8; stroke-linecap: square"/>
     </g>
     <g id="line2d_19">
      <g>
       <use xlink:href="#m00ea440ee0" x="47.2875" y="70.046591" style="stroke: #000000; stroke-width: 0.8"/>
      </g>
     </g>
     <g id="text_14">
      <text style="font-size: 10px; font-family: 'DejaVu Sans', 'Bitstream Vera Sans', 'Computer Modern Sans Serif', 'Lucida Grande', 'Verdana', 'Geneva', 'Lucid', 'Arial', 'Helvetica', 'Avant Garde', sans-serif; text-anchor: end" x="40.2875" y="73.845419" transform="rotate(-0 40.2875 73.845419)">100</text>
     </g>
    </g>
    <g id="ytick_7">
     <g id="line2d_20">
      <path d="M 47.2875 39.616161
L 603.65577 39.616161
" clip-path="url(#pd1d9992114)" style="fill: none; stroke: #b0b0b0; stroke-opacity: 0.2; stroke-width: 0.8; stroke-linecap: square"/>
     </g>
     <g id="line2d_21">
      <g>
       <use xlink:href="#m00ea440ee0" x="47.2875" y="39.616161" style="stroke: #000000; stroke-width: 0.8"/>
      </g>
     </g>
     <g id="text_15">
      <text style="font-size: 10px; font-family: 'DejaVu Sans', 'Bitstream Vera Sans', 'Computer Modern Sans Serif', 'Lucida Grande', 'Verdana', 'Geneva', 'Lucid', 'Arial', 'Helvetica', 'Avant Garde', sans-serif; text-anchor: end" x="40.2875" y="43.414989" transform="rotate(-0 40.2875 43.414989)">120</text>
     </g>
    </g>
    <g id="text_16">
     <text style="font-size: 10px; font-family: 'DejaVu Sans', 'Bitstream Vera Sans', 'Computer Modern Sans Serif', 'Lucida Grande', 'Verdana', 'Geneva', 'Lucid', 'Arial', 'Helvetica', 'Avant Garde', sans-serif; text-anchor: middle" x="14.797656" y="130.759102" transform="rotate(-90 14.797656 130.759102)">CPU %</text>
    </g>
   </g>
   <g id="line2d_22">
    <path d="M -1 70.959504
L 0.923506 70.959504
L 10.196311 69.590134
L 28.74192 69.590134
L 38.014724 64.721265
L 47.287529 64.721265
L 56.560333 96.368912
L 75.105942 96.368912
L 84.378747 47.680225
L 93.651551 47.680225
L 102.924356 65.177722
L 121.469965 65.177722
L 130.742769 63.6562
L 167.833987 63.6562
L 177.106792 66.242787
L 186.379596 66.242787
L 195.652401 67.460004
L 214.19801 67.460004
L 223.470814 78.719263
L 232.743619 78.719263
L 242.016423 48.593138
L 260.562032 48.593138
L 269.834837 67.1557
L 279.107641 67.1557
L 288.380446 62.286831
L 306.926055 62.286831
L 316.198859 65.02557
L 325.471664 65.02557
L 334.744468 69.133678
L 353.290077 69.133678
L 362.562882 49.201746
L 371.835686 49.201746
L 381.108491 71.111656
L 399.6541 71.111656
L 408.926904 68.220765
L 446.018122 68.220765
L 455.290927 66.394939
L 464.563731 66.394939
L 473.836536 83.588132
L 492.382145 83.588132
L 501.654949 50.418964
L 510.927754 50.418964
L 520.200558 47.680225
L 538.746167 47.680225
L 548.018972 60.308853
L 557.291776 60.308853
L 566.564581 48.897442
L 585.11019 48.897442
L 594.382994 75.67622
L 603.655799 75.67622
L 612.928603 170.771313
L 621.39952 170.771313
L 621.39952 170.771313
" clip-path="url(#pd1d9992114)" style="fill: none; stroke: #21618c; stroke-width: 1.4; stroke-linecap: square"/>
   </g>
   <g id="line2d_23">
    <path d="M -1 66.851396
L 0.923506 66.851396
L 10.196311 67.307852
L 28.74192 67.307852
L 38.014724 66.547091
L 47.287529 66.547091
L 56.560333 69.28583
L 75.105942 69.28583
L 84.378747 66.699243
L 93.651551 66.699243
L 102.924356 68.372917
L 121.469965 68.372917
L 130.742769 66.242787
L 140.015574 66.242787
L 149.288378 66.851396
L 167.833987 66.851396
L 177.106792 67.307852
L 186.379596 67.307852
L 195.652401 69.28583
L 214.19801 69.28583
L 223.470814 66.394939
L 232.743619 66.394939
L 242.016423 67.612156
L 260.562032 67.612156
L 269.834837 65.786331
L 306.926055 65.786331
L 316.198859 65.02557
L 325.471664 65.02557
L 334.744468 70.046591
L 353.290077 70.046591
L 362.562882 66.547091
L 371.835686 66.547091
L 381.108491 67.612156
L 399.6541 67.612156
L 408.926904 66.699243
L 418.199709 66.699243
L 427.472513 67.460004
L 446.018122 67.460004
L 455.290927 64.873418
L 464.563731 64.873418
L 473.836536 67.003548
L 492.382145 67.003548
L 501.654949 66.851396
L 510.927754 66.851396
L 520.200558 67.460004
L 538.746167 67.460004
L 548.018972 66.547091
L 585.11019 66.547091
L 594.382994 67.003548
L 603.655799 67.003548
L 612.928603 70.046591
L 621.39952 70.046591
L 621.39952 70.046591
" clip-path="url(#pd1d9992114)" style="fill: none; stroke: #cc641c; stroke-width: 1.4; stroke-linecap: square"/>
   </g>
   <g id="line2d_24">
    <path d="M -1 61.982527
L 0.923506 61.982527
L 10.196311 61.069614
L 28.74192 61.069614
L 38.014724 59.091636
L 47.287529 59.091636
L 56.560333 61.221766
L 75.105942 61.221766
L 84.378747 61.982527
L 93.651551 61.982527
L 102.924356 63.351896
L 121.469965 63.351896
L 130.742769 61.52607
L 140.015574 61.52607
L 149.288378 61.830375
L 167.833987 61.830375
L 177.106792 61.221766
L 186.379596 61.221766
L 195.652401 60.917462
L 214.19801 60.917462
L 223.470814 63.351896
L 232.743619 63.351896
L 242.016423 61.678223
L 260.562032 61.678223
L 269.834837 60.76531
L 279.107641 60.76531
L 288.380446 62.89544
L 306.926055 62.89544
L 316.198859 61.069614
L 325.471664 61.069614
L 334.744468 63.199744
L 353.290077 63.199744
L 362.562882 63.047592
L 371.835686 63.047592
L 381.108491 61.221766
L 399.6541 61.221766
L 408.926904 60.76531
L 418.199709 60.76531
L 427.472513 61.678223
L 446.018122 61.678223
L 455.290927 60.917462
L 464.563731 60.917462
L 473.836536 63.351896
L 492.382145 63.351896
L 501.654949 60.76531
L 510.927754 60.76531
L 520.200558 61.52607
L 538.746167 61.52607
L 548.018972 62.134679
L 557.291776 62.134679
L 566.564581 62.743288
L 585.11019 62.743288
L 594.382994 61.52607
L 603.655799 61.52607
L 612.928603 65.329874
L 621.39952 65.329874
L 621.39952 65.329874
" clip-path="url(#pd1d9992114)" style="fill: none; stroke: #3d7b52; stroke-width: 1.4; stroke-linecap: square"/>
   </g>
   <g id="line2d_25">
    <path d="M 325.471635 222.198739
L 325.471635 39.319464
" clip-path="url(#pd1d9992114)" style="fill: none; stroke-dasharray: 3.7,1.6; stroke-dashoffset: 0; stroke: #444444"/>
   </g>
   <g id="patch_3">
    <path d="M 47.2875 222.198739
L 47.2875 39.319464
" style="fill: none; stroke: #000000; stroke-width: 0.8; stroke-linejoin: miter; stroke-linecap: square"/>
   </g>
   <g id="patch_4">
    <path d="M 47.2875 222.198739
L 603.65577 222.198739
" style="fill: none; stroke: #000000; stroke-width: 0.8; stroke-linejoin: miter; stroke-linecap: square"/>
   </g>
   <g id="text_17">
    <text style="font-size: 12px; font-family: 'DejaVu Sans', 'Bitstream Vera Sans', 'Computer Modern Sans Serif', 'Lucida Grande', 'Verdana', 'Geneva', 'Lucid', 'Arial', 'Helvetica', 'Avant Garde', sans-serif; text-anchor: middle" x="325.471635" y="33.319464" transform="rotate(-0 325.471635 33.319464)">Consumer process CPU · 100% is one core</text>
   </g>
   <g id="legend_1">
    <g id="patch_5">
     <path d="M 52.1875 218.698739
L 303.034688 218.698739
Q 304.434688 218.698739 304.434688 217.298739
L 304.434688 207.498192
Q 304.434688 206.098192 303.034688 206.098192
L 52.1875 206.098192
Q 50.7875 206.098192 50.7875 207.498192
L 50.7875 217.298739
Q 50.7875 218.698739 52.1875 218.698739
z
" style="fill: #ffffff; opacity: 0.8; stroke: #cccccc; stroke-linejoin: miter"/>
    </g>
    <g id="line2d_26">
     <path d="M 53.5875 211.767098
L 60.5875 211.767098
L 67.5875 211.767098
" style="fill: none; stroke: #21618c; stroke-width: 1.4; stroke-linecap: square"/>
    </g>
    <g id="text_18">
     <text style="font-size: 7px; font-family: 'DejaVu Sans', 'Bitstream Vera Sans', 'Computer Modern Sans Serif', 'Lucida Grande', 'Verdana', 'Geneva', 'Lucid', 'Arial', 'Helvetica', 'Avant Garde', sans-serif; text-anchor: start" x="73.1875" y="214.217098" transform="rotate(-0 73.1875 214.217098)">consumer-sts-0</text>
    </g>
    <g id="line2d_27">
     <path d="M 140.936563 211.767098
L 147.936563 211.767098
L 154.936563 211.767098
" style="fill: none; stroke: #cc641c; stroke-width: 1.4; stroke-linecap: square"/>
    </g>
    <g id="text_19">
     <text style="font-size: 7px; font-family: 'DejaVu Sans', 'Bitstream Vera Sans', 'Computer Modern Sans Serif', 'Lucida Grande', 'Verdana', 'Geneva', 'Lucid', 'Arial', 'Helvetica', 'Avant Garde', sans-serif; text-anchor: start" x="160.536563" y="214.217098" transform="rotate(-0 160.536563 214.217098)">consumer-sts-1</text>
    </g>
    <g id="line2d_28">
     <path d="M 228.285625 211.767098
L 235.285625 211.767098
L 242.285625 211.767098
" style="fill: none; stroke: #3d7b52; stroke-width: 1.4; stroke-linecap: square"/>
    </g>
    <g id="text_20">
     <text style="font-size: 7px; font-family: 'DejaVu Sans', 'Bitstream Vera Sans', 'Computer Modern Sans Serif', 'Lucida Grande', 'Verdana', 'Geneva', 'Lucid', 'Arial', 'Helvetica', 'Avant Garde', sans-serif; text-anchor: start" x="247.885625" y="214.217098" transform="rotate(-0 247.885625 214.217098)">consumer-sts-2</text>
    </g>
   </g>
  </g>
  <g id="text_21">
   <text style="font-size: 11px; font-family: 'DejaVu Sans', 'Bitstream Vera Sans', 'Computer Modern Sans Serif', 'Lucida Grande', 'Verdana', 'Geneva', 'Lucid', 'Arial', 'Helvetica', 'Avant Garde', sans-serif; text-anchor: middle" x="310.19976" y="15.558281" transform="rotate(-0 310.19976 15.558281)">Balanced · 3 initial consumers · target 1,500/s</text>
  </g>
 </g>
 <defs>
  <clipPath id="pd1d9992114">
   <rect x="47.2875" y="39.319464" width="556.36827" height="182.879274"/>
  </clipPath>
 </defs>
</svg>
