<?xml version="1.0" encoding="utf-8" standalone="no"?>
<!DOCTYPE svg PUBLIC "-//W3C//DTD SVG 1.1//EN"
  "http://www.w3.org/Graphics/SVG/1.1/DTD/svg11.dtd">
<svg xmlns:xlink="http://www.w3.org/1999/xlink" width="620.39952pt" height="281.99952pt" viewBox="0 0 620.39952 281.99952" xmlns="http://www.w3.org/2000/svg" version="1.1">
 <metadata>
  <rdf:RDF xmlns:dc="http://purl.org/dc/elements/1.1/" xmlns:cc="http://creativecommons.org/ns#" xmlns:rdf="http://www.w3.org/1999/02/22-rdf-syntax-ns#">
   <cc:Work>
    <dc:type rdf:resource="http://purl.org/dc/dcmitype/StillImage"/>
    <dc:date>2026-09-12T07:52:58.913615</dc:date>
    <dc:format>image/svg+xml</dc:format>
    <dc:creator>
     <cc:Agent>
      <dc:title>Matplotlib v3.11.2, https://matplotlib.org/</dc:title>
     </cc:Agent>
    </dc:creator>
   </cc:Work>
  </rdf:RDF>
 </metadata>
 <defs>
  <style type="text/css">*{stroke-linejoin: round; stroke-linecap: butt}</style>
 </defs>
 <g id="figure_1">
  <g id="patch_1">
   <path d="M 0 281.99952
L 620.39952 281.99952
L 620.39952 0
L 0 0
z
" style="fill: #ffffff"/>
  </g>
  <g id="axes_1">
   <g id="patch_2">
    <path d="M 66.375781 229.797634
L 613.19952 229.797634
L 613.19952 22.318125
L 66.375781 22.318125
z
" style="fill: #ffffff"/>
   </g>
   <g id="matplotlib.axis_1">
    <g id="xtick_1">
     <g id="line2d_1">
      <defs>
       <path id="m966cc2bb2f" d="M 0 0
L 0 3.5
" style="stroke: #000000; stroke-width: 0.8"/>
      </defs>
      <g>
       <use xlink:href="#m966cc2bb2f" x="66.375781" y="229.797634" style="stroke: #000000; stroke-width: 0.8"/>
      </g>
     </g>
     <g id="text_1">
      <text style="font-size: 10px; font-family: 'DejaVu Sans', 'Bitstream Vera Sans', 'Computer Modern Sans Serif', 'Lucida Grande', 'Verdana', 'Geneva', 'Lucid', 'Arial', 'Helvetica', 'Avant Garde', sans-serif; text-anchor: middle" x="66.375781" y="244.39529" transform="rotate(-0 66.375781 244.39529)">0</text>
     </g>
    </g>
    <g id="xtick_2">
     <g id="line2d_2">
      <g>
       <use xlink:href="#m966cc2bb2f" x="167.639437" y="229.797634" style="stroke: #000000; stroke-width: 0.8"/>
      </g>
     </g>
     <g id="text_2">
      <text style="font-size: 10px; font-family: 'DejaVu Sans', 'Bitstream Vera Sans', 'Computer Modern Sans Serif', 'Lucida Grande', 'Verdana', 'Geneva', 'Lucid', 'Arial', 'Helvetica', 'Avant Garde', sans-serif; text-anchor: middle" x="167.639437" y="244.39529" transform="rotate(-0 167.639437 244.39529)">100</text>
     </g>
    </g>
    <g id="xtick_3">
     <g id="line2d_3">
      <g>
       <use xlink:href="#m966cc2bb2f" x="268.903092" y="229.797634" style="stroke: #000000; stroke-width: 0.8"/>
      </g>
     </g>
     <g id="text_3">
      <text style="font-size: 10px; font-family: 'DejaVu Sans', 'Bitstream Vera Sans', 'Computer Modern Sans Serif', 'Lucida Grande', 'Verdana', 'Geneva', 'Lucid', 'Arial', 'Helvetica', 'Avant Garde', sans-serif; text-anchor: middle" x="268.903092" y="244.39529" transform="rotate(-0 268.903092 244.39529)">200</text>
     </g>
    </g>
    <g id="xtick_4">
     <g id="line2d_4">
      <g>
       <use xlink:href="#m966cc2bb2f" x="370.166747" y="229.797634" style="stroke: #000000; stroke-width: 0.8"/>
      </g>
     </g>
     <g id="text_4">
      <text style="font-size: 10px; font-family: 'DejaVu Sans', 'Bitstream Vera Sans', 'Computer Modern Sans Serif', 'Lucida Grande', 'Verdana', 'Geneva', 'Lucid', 'Arial', 'Helvetica', 'Avant Garde', sans-serif; text-anchor: middle" x="370.166747" y="244.39529" transform="rotate(-0 370.166747 244.39529)">300</text>
     </g>
    </g>
    <g id="xtick_5">
     <g id="line2d_5">
      <g>
       <use xlink:href="#m966cc2bb2f" x="471.430403" y="229.797634" style="stroke: #000000; stroke-width: 0.8"/>
      </g>
     </g>
     <g id="text_5">
      <text style="font-size: 10px; font-family: 'DejaVu Sans', 'Bitstream Vera Sans', 'Computer Modern Sans Serif', 'Lucida Grande', 'Verdana', 'Geneva', 'Lucid', 'Arial', 'Helvetica', 'Avant Garde', sans-serif; text-anchor: middle" x="471.430403" y="244.39529" transform="rotate(-0 471.430403 244.39529)">400</text>
     </g>
    </g>
    <g id="xtick_6">
     <g id="line2d_6">
      <g>
       <use xlink:href="#m966cc2bb2f" x="572.694058" y="229.797634" style="stroke: #000000; stroke-width: 0.8"/>
      </g>
     </g>
     <g id="text_6">
      <text style="font-size: 10px; font-family: 'DejaVu Sans', 'Bitstream Vera Sans', 'Computer Modern Sans Serif', 'Lucida Grande', 'Verdana', 'Geneva', 'Lucid', 'Arial', 'Helvetica', 'Avant Garde', sans-serif; text-anchor: middle" x="572.694058" y="244.39529" transform="rotate(-0 572.694058 244.39529)">500</text>
     </g>
    </g>
    <g id="text_7">
     <text style="font-size: 10px; font-family: 'DejaVu Sans', 'Bitstream Vera Sans', 'Computer Modern Sans Serif', 'Lucida Grande', 'Verdana', 'Geneva', 'Lucid', 'Arial', 'Helvetica', 'Avant Garde', sans-serif; text-anchor: middle" x="339.787651" y="258.396071" transform="rotate(-0 339.787651 258.396071)">Seconds from evaluation start</text>
    </g>
   </g>
   <g id="matplotlib.axis_2">
    <g id="ytick_1">
     <g id="line2d_7">
      <path d="M 66.375781 229.797634
L 613.19952 229.797634
" clip-path="url(#pedce7ab8a7)" style="fill: none; stroke: #b0b0b0; stroke-opacity: 0.2; stroke-width: 0.8; stroke-linecap: square"/>
     </g>
     <g id="line2d_8">
      <defs>
       <path id="mb85e69584f" d="M 0 0
L -3.5 0
" style="stroke: #000000; stroke-width: 0.8"/>
      </defs>
      <g>
       <use xlink:href="#mb85e69584f" x="66.375781" y="229.797634" style="stroke: #000000; stroke-width: 0.8"/>
      </g>
     </g>
     <g id="text_8">
      <text style="font-size: 10px; font-family: 'DejaVu Sans', 'Bitstream Vera Sans', 'Computer Modern Sans Serif', 'Lucida Grande', 'Verdana', 'Geneva', 'Lucid', 'Arial', 'Helvetica', 'Avant Garde', sans-serif; text-anchor: end" x="59.375781" y="233.596462" transform="rotate(-0 59.375781 233.596462)">0</text>
     </g>
    </g>
    <g id="ytick_2">
     <g id="line2d_9">
      <path d="M 66.375781 196.657819
L 613.19952 196.657819
" clip-path="url(#pedce7ab8a7)" style="fill: none; stroke: #b0b0b0; stroke-opacity: 0.2; stroke-width: 0.8; stroke-linecap: square"/>
     </g>
     <g id="line2d_10">
      <g>
       <use xlink:href="#mb85e69584f" x="66.375781" y="196.657819" style="stroke: #000000; stroke-width: 0.8"/>
      </g>
     </g>
     <g id="text_9">
      <text style="font-size: 10px; font-family: 'DejaVu Sans', 'Bitstream Vera Sans', 'Computer Modern Sans Serif', 'Lucida Grande', 'Verdana', 'Geneva', 'Lucid', 'Arial', 'Helvetica', 'Avant Garde', sans-serif; text-anchor: end" x="59.375781" y="200.456647" transform="rotate(-0 59.375781 200.456647)">50000</text>
     </g>
    </g>
    <g id="ytick_3">
     <g id="line2d_11">
      <path d="M 66.375781 163.518004
L 613.19952 163.518004
" clip-path="url(#pedce7ab8a7)" style="fill: none; stroke: #b0b0b0; stroke-opacity: 0.2; stroke-width: 0.8; stroke-linecap: square"/>
     </g>
     <g id="line2d_12">
      <g>
       <use xlink:href="#mb85e69584f" x="66.375781" y="163.518004" style="stroke: #000000; stroke-width: 0.8"/>
      </g>
     </g>
     <g id="text_10">
      <text style="font-size: 10px; font-family: 'DejaVu Sans', 'Bitstream Vera Sans', 'Computer Modern Sans Serif', 'Lucida Grande', 'Verdana', 'Geneva', 'Lucid', 'Arial', 'Helvetica', 'Avant Garde', sans-serif; text-anchor: end" x="59.375781" y="167.316832" transform="rotate(-0 59.375781 167.316832)">100000</text>
     </g>
    </g>
    <g id="ytick_4">
     <g id="line2d_13">
      <path d="M 66.375781 130.378188
L 613.19952 130.378188
" clip-path="url(#pedce7ab8a7)" style="fill: none; stroke: #b0b0b0; stroke-opacity: 0.2; stroke-width: 0.8; stroke-linecap: square"/>
     </g>
     <g id="line2d_14">
      <g>
       <use xlink:href="#mb85e69584f" x="66.375781" y="130.378188" style="stroke: #000000; stroke-width: 0.8"/>
      </g>
     </g>
     <g id="text_11">
      <text style="font-size: 10px; font-family: 'DejaVu Sans', 'Bitstream Vera Sans', 'Computer Modern Sans Serif', 'Lucida Grande', 'Verdana', 'Geneva', 'Lucid', 'Arial', 'Helvetica', 'Avant Garde', sans-serif; text-anchor: end" x="59.375781" y="134.177017" transform="rotate(-0 59.375781 134.177017)">150000</text>
     </g>
    </g>
    <g id="ytick_5">
     <g id="line2d_15">
      <path d="M 66.375781 97.238373
L 613.19952 97.238373
" clip-path="url(#pedce7ab8a7)" style="fill: none; stroke: #b0b0b0; stroke-opacity: 0.2; stroke-width: 0.8; stroke-linecap: square"/>
     </g>
     <g id="line2d_16">
      <g>
       <use xlink:href="#mb85e69584f" x="66.375781" y="97.238373" style="stroke: #000000; stroke-width: 0.8"/>
      </g>
     </g>
     <g id="text_12">
      <text style="font-size: 10px; font-family: 'DejaVu Sans', 'Bitstream Vera Sans', 'Computer Modern Sans Serif', 'Lucida Grande', 'Verdana', 'Geneva', 'Lucid', 'Arial', 'Helvetica', 'Avant Garde', sans-serif; text-anchor: end" x="59.375781" y="101.037201" transform="rotate(-0 59.375781 101.037201)">200000</text>
     </g>
    </g>
    <g id="ytick_6">
     <g id="line2d_17">
      <path d="M 66.375781 64.098558
L 613.19952 64.098558
" clip-path="url(#pedce7ab8a7)" style="fill: none; stroke: #b0b0b0; stroke-opacity: 0.2; stroke-width: 0.8; stroke-linecap: square"/>
     </g>
     <g id="line2d_18">
      <g>
       <use xlink:href="#mb85e69584f" x="66.375781" y="64.098558" style="stroke: #000000; stroke-width: 0.8"/>
      </g>
     </g>
     <g id="text_13">
      <text style="font-size: 10px; font-family: 'DejaVu Sans', 'Bitstream Vera Sans', 'Computer Modern Sans Serif', 'Lucida Grande', 'Verdana', 'Geneva', 'Lucid', 'Arial', 'Helvetica', 'Avant Garde', sans-serif; text-anchor: end" x="59.375781" y="67.897386" transform="rotate(-0 59.375781 67.897386)">250000</text>
     </g>
    </g>
    <g id="ytick_7">
     <g id="line2d_19">
      <path d="M 66.375781 30.958743
L 613.19952 30.958743
" clip-path="url(#pedce7ab8a7)" style="fill: none; stroke: #b0b0b0; stroke-opacity: 0.2; stroke-width: 0.8; stroke-linecap: square"/>
     </g>
     <g id="line2d_20">
      <g>
       <use xlink:href="#mb85e69584f" x="66.375781" y="30.958743" style="stroke: #000000; stroke-width: 0.8"/>
      </g>
     </g>
     <g id="text_14">
      <text style="font-size: 10px; font-family: 'DejaVu Sans', 'Bitstream Vera Sans', 'Computer Modern Sans Serif', 'Lucida Grande', 'Verdana', 'Geneva', 'Lucid', 'Arial', 'Helvetica', 'Avant Garde', sans-serif; text-anchor: end" x="59.375781" y="34.757571" transform="rotate(-0 59.375781 34.757571)">300000</text>
     </g>
    </g>
    <g id="text_15">
     <text style="font-size: 10px; font-family: 'DejaVu Sans', 'Bitstream Vera Sans', 'Computer Modern Sans Serif', 'Lucida Grande', 'Verdana', 'Geneva', 'Lucid', 'Arial', 'Helvetica', 'Avant Garde', sans-serif; text-anchor: middle" x="14.798438" y="126.057879" transform="rotate(-90 14.798438 126.057879)">Milliseconds</text>
    </g>
   </g>
   <g id="line2d_21">
    <path d="M 13.719047 228.770783
L 35.997051 228.628331
L 38.022324 228.230612
L 42.07287 228.230612
L 44.098144 227.890308
L 52.199236 227.869017
L 54.224509 227.720895
L 56.249782 227.720895
L 58.275055 227.448337
L 62.325602 227.448337
L 64.350875 226.990492
L 66.376148 226.990492
L 68.401421 225.949391
L 72.451967 225.949391
L 74.47724 225.475795
L 92.704698 225.553002
L 96.755244 225.628295
L 98.780517 225.467699
L 102.831064 225.467699
L 104.856337 225.34517
L 106.88161 225.34517
L 108.906883 224.836632
L 112.957429 224.836632
L 114.982702 223.764781
L 117.007975 223.764781
L 119.033249 220.836233
L 123.083795 220.836233
L 125.109068 219.503762
L 127.134341 219.503762
L 129.159614 219.239817
L 133.21016 219.239817
L 135.235433 219.409436
L 143.336526 219.481525
L 147.387072 219.569114
L 149.412345 219.366104
L 157.513438 219.384367
L 159.538711 219.166203
L 173.715622 219.21667
L 175.740895 219.356225
L 187.892534 219.458011
L 189.917807 219.57206
L 198.0189 219.519012
L 200.044173 219.275191
L 218.271631 219.372376
L 220.296904 219.112536
L 224.34745 219.112536
L 226.372723 219.570107
L 244.600181 219.588513
L 246.625454 219.834521
L 248.650727 219.834521
L 250.676 219.522646
L 279.029824 219.621071
L 281.055097 219.368503
L 305.358374 219.386118
L 307.383647 219.591449
L 309.408921 219.591449
L 311.434194 219.410869
L 319.535286 219.372238
L 321.560559 218.525118
L 325.611105 218.525118
L 327.636378 216.958067
L 329.661652 216.958067
L 331.686925 213.628964
L 335.737471 213.628964
L 337.762744 207.885667
L 339.788017 207.885667
L 341.81329 204.120991
L 345.863836 204.120991
L 347.88911 203.861476
L 355.990202 203.80724
L 358.015475 203.991689
L 366.116568 204.042304
L 368.141841 204.472988
L 370.167114 204.472988
L 372.192387 204.311141
L 380.293479 204.318102
L 382.318752 204.626038
L 386.369299 204.626038
L 388.394572 204.277171
L 390.419845 204.277171
L 392.445118 204.480594
L 396.495664 204.480594
L 398.520937 204.794418
L 400.54621 204.794418
L 402.571483 204.64385
L 406.62203 204.64385
L 408.647303 204.369913
L 410.672576 204.369913
L 412.697849 204.611374
L 416.748395 204.611374
L 418.773668 204.295995
L 430.925307 204.392886
L 432.95058 204.116407
L 437.001126 204.116407
L 439.026399 204.317286
L 441.051672 204.317286
L 443.076946 204.182093
L 447.127492 204.182093
L 449.152765 203.93976
L 451.178038 203.93976
L 453.203311 203.579054
L 471.430769 203.60105
L 473.456042 203.79056
L 477.506588 203.79056
L 479.531861 204.204291
L 481.557135 204.204291
L 483.582408 204.052627
L 501.809866 204.106415
L 503.835139 203.899308
L 507.885685 203.899308
L 509.910958 204.18261
L 528.138416 204.273392
L 530.163689 204.571489
L 552.441693 204.67647
L 554.466966 204.441911
L 558.517513 204.441911
L 560.542786 204.592331
L 562.568059 204.592331
L 564.593332 204.406553
L 568.643878 204.406553
L 570.669151 204.236521
L 572.694424 204.236521
L 574.719697 204.028114
L 588.896609 203.948578
L 590.921882 203.597377
L 592.947155 203.597377
L 594.972429 203.342426
L 599.022975 203.342426
L 601.048248 203.474693
L 613.199886 203.518347
L 615.22516 203.260323
L 619.275706 203.260323
L 621.39952 201.374646
L 621.39952 201.374646
" clip-path="url(#pedce7ab8a7)" style="fill: none; stroke: #21618c; stroke-width: 1.4; stroke-linecap: square"/>
   </g>
   <g id="line2d_22">
    <path d="M 13.719047 227.079049
L 15.74432 227.066066
L 17.769593 226.536903
L 21.820139 226.525882
L 23.845413 224.743854
L 25.870686 224.735918
L 27.895959 224.327834
L 31.946505 224.320731
L 33.971778 223.563344
L 35.997051 223.560745
L 38.022324 217.982123
L 42.07287 217.982123
L 44.098144 215.059597
L 46.123417 215.059597
L 48.14869 213.70217
L 52.199236 213.70217
L 54.224509 212.829734
L 56.249782 212.829734
L 58.275055 212.614881
L 82.578333 212.585541
L 84.603606 212.122128
L 86.628879 212.122128
L 88.654152 206.447598
L 92.704698 206.447598
L 94.729971 199.323096
L 96.755244 199.323096
L 98.780517 196.213706
L 102.831064 196.213706
L 104.856337 194.88262
L 106.88161 194.88262
L 108.906883 194.146081
L 117.007975 194.057201
L 121.058522 193.966122
L 123.083795 193.966122
L 125.109068 194.102229
L 157.513438 194.041241
L 161.563984 193.963001
L 167.639803 193.962907
L 169.665076 190.541796
L 173.715622 190.541796
L 175.740895 172.351704
L 177.766169 172.351704
L 179.791442 164.587907
L 183.841988 164.587907
L 185.867261 161.045578
L 187.892534 161.045578
L 189.917807 158.701678
L 198.0189 158.610161
L 200.044173 158.272625
L 224.34745 158.249131
L 226.372723 158.614641
L 244.600181 158.645656
L 246.625454 158.772382
L 254.726547 158.679545
L 262.827639 158.675533
L 279.029824 158.656015
L 281.055097 158.478469
L 305.358374 158.449807
L 307.383647 158.637517
L 319.535286 158.561866
L 321.560559 152.369763
L 325.611105 152.369763
L 327.636378 100.106209
L 329.661652 100.106209
L 331.686925 74.221001
L 335.737471 74.221001
L 337.762744 62.928467
L 339.788017 62.928467
L 341.81329 55.655228
L 345.863836 55.655228
L 347.88911 54.729782
L 349.914383 54.729782
L 351.939656 54.55915
L 355.990202 54.55915
L 358.015475 54.952442
L 360.040748 54.952442
L 362.066021 55.200362
L 366.116568 55.200362
L 368.141841 56.032327
L 380.293479 56.019235
L 382.318752 56.347817
L 386.369299 56.347817
L 388.394572 55.683166
L 396.495664 55.638051
L 398.520937 56.103605
L 400.54621 56.103605
L 402.571483 55.671577
L 406.62203 55.671577
L 408.647303 55.496369
L 420.798941 55.429413
L 422.824214 55.302029
L 426.874761 55.302029
L 428.900034 55.660401
L 430.925307 55.660401
L 432.95058 54.959136
L 437.001126 54.959136
L 439.026399 55.579676
L 441.051672 55.579676
L 443.076946 55.211533
L 447.127492 55.211533
L 449.152765 54.506423
L 451.178038 54.506423
L 453.203311 53.792764
L 457.253857 53.792764
L 459.27913 54.040342
L 461.304404 54.040342
L 463.329677 53.916886
L 471.430769 54.008436
L 473.456042 54.613715
L 477.506588 54.613715
L 479.531861 55.464822
L 481.557135 55.464822
L 483.582408 55.016927
L 491.6835 55.086893
L 493.708773 55.296623
L 497.759319 55.296623
L 499.784593 54.905218
L 501.809866 54.905218
L 503.835139 54.570429
L 507.885685 54.570429
L 509.910958 55.186356
L 518.01205 55.17386
L 520.037324 55.318106
L 522.062597 55.318106
L 524.08787 55.793721
L 528.138416 55.793721
L 530.163689 56.354288
L 532.188962 56.354288
L 534.214235 55.994887
L 542.315328 55.889228
L 546.365874 55.820414
L 552.441693 55.797306
L 554.466966 55.613931
L 558.517513 55.613931
L 560.542786 56.114932
L 562.568059 56.114932
L 564.593332 55.527458
L 572.694424 55.453738
L 574.719697 55.059536
L 578.770244 55.059536
L 580.795517 55.19491
L 582.82079 55.19491
L 584.846063 54.913796
L 588.896609 54.913796
L 590.921882 53.98623
L 592.947155 53.98623
L 594.972429 53.309606
L 599.022975 53.309606
L 601.048248 53.567796
L 603.073521 53.567796
L 605.098794 53.42559
L 609.14934 53.42559
L 611.174613 53.554029
L 613.199886 53.554029
L 615.22516 54.302182
L 619.275706 54.302182
L 621.39952 53.133309
L 621.39952 53.133309
" clip-path="url(#pedce7ab8a7)" style="fill: none; stroke: #cc641c; stroke-width: 1.4; stroke-linecap: square"/>
   </g>
   <g id="line2d_23">
    <path d="M 13.719047 226.602732
L 15.74432 226.600135
L 17.769593 223.899349
L 21.820139 223.884714
L 23.845413 223.484507
L 31.946505 223.399883
L 33.971778 213.75322
L 35.997051 213.745376
L 38.022324 211.52742
L 42.07287 211.52742
L 44.098144 210.942915
L 46.123417 210.942915
L 48.14869 210.67143
L 52.199236 210.67143
L 54.224509 210.496942
L 82.578333 210.448104
L 84.603606 206.164211
L 86.628879 206.164211
L 88.654152 193.313404
L 92.704698 193.313404
L 94.729971 191.888504
L 96.755244 191.888504
L 98.780517 191.266626
L 102.831064 191.266626
L 104.856337 191.000408
L 106.88161 191.000408
L 108.906883 190.853101
L 167.639803 190.816466
L 169.665076 159.168256
L 173.715622 159.168256
L 175.740895 154.680003
L 177.766169 154.680003
L 179.791442 153.127243
L 183.841988 153.127243
L 185.867261 152.418778
L 187.892534 152.418778
L 189.917807 151.949998
L 319.535286 151.922035
L 321.560559 61.195801
L 325.611105 61.195801
L 327.636378 44.788236
L 329.661652 44.788236
L 331.686925 39.611195
L 335.737471 39.611195
L 337.762744 37.352688
L 339.788017 37.352688
L 341.81329 35.89804
L 345.863836 35.89804
L 347.88911 35.712951
L 366.116568 35.807067
L 368.141841 35.97346
L 416.748395 35.884816
L 426.874761 35.8274
L 430.925307 35.899075
L 432.95058 35.758822
L 437.001126 35.758822
L 439.026399 35.88293
L 447.127492 35.809301
L 449.152765 35.668279
L 451.178038 35.668279
L 453.203311 35.525547
L 471.430769 35.568682
L 473.456042 35.689737
L 477.506588 35.689737
L 479.531861 35.859959
L 497.759319 35.826319
L 503.835139 35.68108
L 507.885685 35.68108
L 509.910958 35.804266
L 522.062597 35.830616
L 526.113143 35.925739
L 528.138416 35.925739
L 530.163689 36.037852
L 548.391147 35.931077
L 588.896609 35.749754
L 590.921882 35.564241
L 592.947155 35.564241
L 594.972429 35.428916
L 613.199886 35.4778
L 615.22516 35.627431
L 619.275706 35.627431
L 621.39952 35.393656
L 621.39952 35.393656
" clip-path="url(#pedce7ab8a7)" style="fill: none; stroke: #3d7b52; stroke-width: 1.4; stroke-linecap: square"/>
   </g>
   <g id="line2d_24">
    <path d="M 127.133974 229.797634
L 127.133974 22.318125
" clip-path="url(#pedce7ab8a7)" style="fill: none; stroke-dasharray: 3.7,1.6; stroke-dashoffset: 0; stroke: #444444"/>
   </g>
   <g id="patch_3">
    <path d="M 66.375781 229.797634
L 66.375781 22.318125
" style="fill: none; stroke: #000000; stroke-width: 0.8; stroke-linejoin: miter; stroke-linecap: square"/>
   </g>
   <g id="patch_4">
    <path d="M 66.375781 229.797634
L 613.19952 229.797634
" style="fill: none; stroke: #000000; stroke-width: 0.8; stroke-linejoin: miter; stroke-linecap: square"/>
   </g>
   <g id="text_16">
    <text style="font-size: 12px; font-family: 'DejaVu Sans', 'Bitstream Vera Sans', 'Computer Modern Sans Serif', 'Lucida Grande', 'Verdana', 'Geneva', 'Lucid', 'Arial', 'Helvetica', 'Avant Garde', sans-serif; text-anchor: middle" x="339.787651" y="16.318125" transform="rotate(-0 339.787651 16.318125)">Recorded completion latency · rolling histogram estimates</text>
   </g>
   <g id="legend_1">
    <g id="patch_5">
     <path d="M 73.375781 75.320469
L 124.449219 75.320469
Q 126.449219 75.320469 126.449219 73.320469
L 126.449219 29.318125
Q 126.449219 27.318125 124.449219 27.318125
L 73.375781 27.318125
Q 71.375781 27.318125 71.375781 29.318125
L 71.375781 73.320469
Q 71.375781 75.320469 73.375781 75.320469
z
" style="fill: #ffffff; opacity: 0.8; stroke: #cccccc; stroke-linejoin: miter"/>
    </g>
    <g id="line2d_25">
     <path d="M 75.375781 35.416562
L 85.375781 35.416562
L 95.375781 35.416562
" style="fill: none; stroke: #21618c; stroke-width: 1.4; stroke-linecap: square"/>
    </g>
    <g id="text_17">
     <text style="font-size: 10px; font-family: 'DejaVu Sans', 'Bitstream Vera Sans', 'Computer Modern Sans Serif', 'Lucida Grande', 'Verdana', 'Geneva', 'Lucid', 'Arial', 'Helvetica', 'Avant Garde', sans-serif; text-anchor: start" x="103.375781" y="38.916562" transform="rotate(-0 103.375781 38.916562)">p50</text>
    </g>
    <g id="line2d_26">
     <path d="M 75.375781 50.417344
L 85.375781 50.417344
L 95.375781 50.417344
" style="fill: none; stroke: #cc641c; stroke-width: 1.4; stroke-linecap: square"/>
    </g>
    <g id="text_18">
     <text style="font-size: 10px; font-family: 'DejaVu Sans', 'Bitstream Vera Sans', 'Computer Modern Sans Serif', 'Lucida Grande', 'Verdana', 'Geneva', 'Lucid', 'Arial', 'Helvetica', 'Avant Garde', sans-serif; text-anchor: start" x="103.375781" y="53.917344" transform="rotate(-0 103.375781 53.917344)">p95</text>
    </g>
    <g id="line2d_27">
     <path d="M 75.375781 65.418125
L 85.375781 65.418125
L 95.375781 65.418125
" style="fill: none; stroke: #3d7b52; stroke-width: 1.4; stroke-linecap: square"/>
    </g>
    <g id="text_19">
     <text style="font-size: 10px; font-family: 'DejaVu Sans', 'Bitstream Vera Sans', 'Computer Modern Sans Serif', 'Lucida Grande', 'Verdana', 'Geneva', 'Lucid', 'Arial', 'Helvetica', 'Avant Garde', sans-serif; text-anchor: start" x="103.375781" y="68.918125" transform="rotate(-0 103.375781 68.918125)">p99</text>
    </g>
   </g>
  </g>
  <g id="text_20">
   <text style="font-size: 8px; font-family: 'DejaVu Sans', 'Bitstream Vera Sans', 'Computer Modern Sans Serif', 'Lucida Grande', 'Verdana', 'Geneva', 'Lucid', 'Arial', 'Helvetica', 'Avant Garde', sans-serif; text-anchor: middle" x="310.19976" y="272.877645" transform="rotate(-0 310.19976 272.877645)">Completed attempts only; this is separate from exact cohort percentiles and unfinished-message counts.</text>
  </g>
 </g>
 <defs>
  <clipPath id="pedce7ab8a7">
   <rect x="66.375781" y="22.318125" width="546.823739" height="207.479509"/>
  </clipPath>
 </defs>
</svg>
