<?xml version="1.0" encoding="utf-8" standalone="no"?>
<!DOCTYPE svg PUBLIC "-//W3C//DTD SVG 1.1//EN"
  "http://www.w3.org/Graphics/SVG/1.1/DTD/svg11.dtd">
<svg xmlns:xlink="http://www.w3.org/1999/xlink" width="620.39952pt" height="281.99952pt" viewBox="0 0 620.39952 281.99952" xmlns="http://www.w3.org/2000/svg" version="1.1">
 <metadata>
  <rdf:RDF xmlns:dc="http://purl.org/dc/elements/1.1/" xmlns:cc="http://creativecommons.org/ns#" xmlns:rdf="http://www.w3.org/1999/02/22-rdf-syntax-ns#">
   <cc:Work>
    <dc:type rdf:resource="http://purl.org/dc/dcmitype/StillImage"/>
    <dc:date>2026-09-12T23:55:19.202719</dc:date>
    <dc:format>image/svg+xml</dc:format>
    <dc:creator>
     <cc:Agent>
      <dc:title>Matplotlib v3.11.2, https://matplotlib.org/</dc:title>
     </cc:Agent>
    </dc:creator>
   </cc:Work>
  </rdf:RDF>
 </metadata>
 <defs>
  <style type="text/css">*{stroke-linejoin: round; stroke-linecap: butt}</style>
 </defs>
 <g id="figure_1">
  <g id="patch_1">
   <path d="M 0 281.99952
L 620.39952 281.99952
L 620.39952 0
L 0 0
z
" style="fill: #ffffff"/>
  </g>
  <g id="axes_1">
   <g id="patch_2">
    <path d="M 66.375781 229.797634
L 613.19952 229.797634
L 613.19952 22.318125
L 66.375781 22.318125
z
" style="fill: #ffffff"/>
   </g>
   <g id="matplotlib.axis_1">
    <g id="xtick_1">
     <g id="line2d_1">
      <defs>
       <path id="m5f3f99e869" d="M 0 0
L 0 3.5
" style="stroke: #000000; stroke-width: 0.8"/>
      </defs>
      <g>
       <use xlink:href="#m5f3f99e869" x="66.375781" y="229.797634" style="stroke: #000000; stroke-width: 0.8"/>
      </g>
     </g>
     <g id="text_1">
      <text style="font-size: 10px; font-family: 'DejaVu Sans', 'Bitstream Vera Sans', 'Computer Modern Sans Serif', 'Lucida Grande', 'Verdana', 'Geneva', 'Lucid', 'Arial', 'Helvetica', 'Avant Garde', sans-serif; text-anchor: middle" x="66.375781" y="244.39529" transform="rotate(-0 66.375781 244.39529)">0</text>
     </g>
    </g>
    <g id="xtick_2">
     <g id="line2d_2">
      <g>
       <use xlink:href="#m5f3f99e869" x="180.297393" y="229.797634" style="stroke: #000000; stroke-width: 0.8"/>
      </g>
     </g>
     <g id="text_2">
      <text style="font-size: 10px; font-family: 'DejaVu Sans', 'Bitstream Vera Sans', 'Computer Modern Sans Serif', 'Lucida Grande', 'Verdana', 'Geneva', 'Lucid', 'Arial', 'Helvetica', 'Avant Garde', sans-serif; text-anchor: middle" x="180.297393" y="244.39529" transform="rotate(-0 180.297393 244.39529)">50</text>
     </g>
    </g>
    <g id="xtick_3">
     <g id="line2d_3">
      <g>
       <use xlink:href="#m5f3f99e869" x="294.219006" y="229.797634" style="stroke: #000000; stroke-width: 0.8"/>
      </g>
     </g>
     <g id="text_3">
      <text style="font-size: 10px; font-family: 'DejaVu Sans', 'Bitstream Vera Sans', 'Computer Modern Sans Serif', 'Lucida Grande', 'Verdana', 'Geneva', 'Lucid', 'Arial', 'Helvetica', 'Avant Garde', sans-serif; text-anchor: middle" x="294.219006" y="244.39529" transform="rotate(-0 294.219006 244.39529)">100</text>
     </g>
    </g>
    <g id="xtick_4">
     <g id="line2d_4">
      <g>
       <use xlink:href="#m5f3f99e869" x="408.140618" y="229.797634" style="stroke: #000000; stroke-width: 0.8"/>
      </g>
     </g>
     <g id="text_4">
      <text style="font-size: 10px; font-family: 'DejaVu Sans', 'Bitstream Vera Sans', 'Computer Modern Sans Serif', 'Lucida Grande', 'Verdana', 'Geneva', 'Lucid', 'Arial', 'Helvetica', 'Avant Garde', sans-serif; text-anchor: middle" x="408.140618" y="244.39529" transform="rotate(-0 408.140618 244.39529)">150</text>
     </g>
    </g>
    <g id="xtick_5">
     <g id="line2d_5">
      <g>
       <use xlink:href="#m5f3f99e869" x="522.06223" y="229.797634" style="stroke: #000000; stroke-width: 0.8"/>
      </g>
     </g>
     <g id="text_5">
      <text style="font-size: 10px; font-family: 'DejaVu Sans', 'Bitstream Vera Sans', 'Computer Modern Sans Serif', 'Lucida Grande', 'Verdana', 'Geneva', 'Lucid', 'Arial', 'Helvetica', 'Avant Garde', sans-serif; text-anchor: middle" x="522.06223" y="244.39529" transform="rotate(-0 522.06223 244.39529)">200</text>
     </g>
    </g>
    <g id="text_6">
     <text style="font-size: 10px; font-family: 'DejaVu Sans', 'Bitstream Vera Sans', 'Computer Modern Sans Serif', 'Lucida Grande', 'Verdana', 'Geneva', 'Lucid', 'Arial', 'Helvetica', 'Avant Garde', sans-serif; text-anchor: middle" x="339.787651" y="258.396071" transform="rotate(-0 339.787651 258.396071)">Seconds from evaluation start</text>
    </g>
   </g>
   <g id="matplotlib.axis_2">
    <g id="ytick_1">
     <g id="line2d_6">
      <path d="M 66.375781 229.797634
L 613.19952 229.797634
" clip-path="url(#p1559d60365)" style="fill: none; stroke: #b0b0b0; stroke-opacity: 0.2; stroke-width: 0.8; stroke-linecap: square"/>
     </g>
     <g id="line2d_7">
      <defs>
       <path id="m5d9bfb5675" d="M 0 0
L -3.5 0
" style="stroke: #000000; stroke-width: 0.8"/>
      </defs>
      <g>
       <use xlink:href="#m5d9bfb5675" x="66.375781" y="229.797634" style="stroke: #000000; stroke-width: 0.8"/>
      </g>
     </g>
     <g id="text_7">
      <text style="font-size: 10px; font-family: 'DejaVu Sans', 'Bitstream Vera Sans', 'Computer Modern Sans Serif', 'Lucida Grande', 'Verdana', 'Geneva', 'Lucid', 'Arial', 'Helvetica', 'Avant Garde', sans-serif; text-anchor: end" x="59.375781" y="233.596462" transform="rotate(-0 59.375781 233.596462)">0</text>
     </g>
    </g>
    <g id="ytick_2">
     <g id="line2d_8">
      <path d="M 66.375781 196.644054
L 613.19952 196.644054
" clip-path="url(#p1559d60365)" style="fill: none; stroke: #b0b0b0; stroke-opacity: 0.2; stroke-width: 0.8; stroke-linecap: square"/>
     </g>
     <g id="line2d_9">
      <g>
       <use xlink:href="#m5d9bfb5675" x="66.375781" y="196.644054" style="stroke: #000000; stroke-width: 0.8"/>
      </g>
     </g>
     <g id="text_8">
      <text style="font-size: 10px; font-family: 'DejaVu Sans', 'Bitstream Vera Sans', 'Computer Modern Sans Serif', 'Lucida Grande', 'Verdana', 'Geneva', 'Lucid', 'Arial', 'Helvetica', 'Avant Garde', sans-serif; text-anchor: end" x="59.375781" y="200.442883" transform="rotate(-0 59.375781 200.442883)">50000</text>
     </g>
    </g>
    <g id="ytick_3">
     <g id="line2d_10">
      <path d="M 66.375781 163.490475
L 613.19952 163.490475
" clip-path="url(#p1559d60365)" style="fill: none; stroke: #b0b0b0; stroke-opacity: 0.2; stroke-width: 0.8; stroke-linecap: square"/>
     </g>
     <g id="line2d_11">
      <g>
       <use xlink:href="#m5d9bfb5675" x="66.375781" y="163.490475" style="stroke: #000000; stroke-width: 0.8"/>
      </g>
     </g>
     <g id="text_9">
      <text style="font-size: 10px; font-family: 'DejaVu Sans', 'Bitstream Vera Sans', 'Computer Modern Sans Serif', 'Lucida Grande', 'Verdana', 'Geneva', 'Lucid', 'Arial', 'Helvetica', 'Avant Garde', sans-serif; text-anchor: end" x="59.375781" y="167.289303" transform="rotate(-0 59.375781 167.289303)">100000</text>
     </g>
    </g>
    <g id="ytick_4">
     <g id="line2d_12">
      <path d="M 66.375781 130.336896
L 613.19952 130.336896
" clip-path="url(#p1559d60365)" style="fill: none; stroke: #b0b0b0; stroke-opacity: 0.2; stroke-width: 0.8; stroke-linecap: square"/>
     </g>
     <g id="line2d_13">
      <g>
       <use xlink:href="#m5d9bfb5675" x="66.375781" y="130.336896" style="stroke: #000000; stroke-width: 0.8"/>
      </g>
     </g>
     <g id="text_10">
      <text style="font-size: 10px; font-family: 'DejaVu Sans', 'Bitstream Vera Sans', 'Computer Modern Sans Serif', 'Lucida Grande', 'Verdana', 'Geneva', 'Lucid', 'Arial', 'Helvetica', 'Avant Garde', sans-serif; text-anchor: end" x="59.375781" y="134.135724" transform="rotate(-0 59.375781 134.135724)">150000</text>
     </g>
    </g>
    <g id="ytick_5">
     <g id="line2d_14">
      <path d="M 66.375781 97.183316
L 613.19952 97.183316
" clip-path="url(#p1559d60365)" style="fill: none; stroke: #b0b0b0; stroke-opacity: 0.2; stroke-width: 0.8; stroke-linecap: square"/>
     </g>
     <g id="line2d_15">
      <g>
       <use xlink:href="#m5d9bfb5675" x="66.375781" y="97.183316" style="stroke: #000000; stroke-width: 0.8"/>
      </g>
     </g>
     <g id="text_11">
      <text style="font-size: 10px; font-family: 'DejaVu Sans', 'Bitstream Vera Sans', 'Computer Modern Sans Serif', 'Lucida Grande', 'Verdana', 'Geneva', 'Lucid', 'Arial', 'Helvetica', 'Avant Garde', sans-serif; text-anchor: end" x="59.375781" y="100.982144" transform="rotate(-0 59.375781 100.982144)">200000</text>
     </g>
    </g>
    <g id="ytick_6">
     <g id="line2d_16">
      <path d="M 66.375781 64.029737
L 613.19952 64.029737
" clip-path="url(#p1559d60365)" style="fill: none; stroke: #b0b0b0; stroke-opacity: 0.2; stroke-width: 0.8; stroke-linecap: square"/>
     </g>
     <g id="line2d_17">
      <g>
       <use xlink:href="#m5d9bfb5675" x="66.375781" y="64.029737" style="stroke: #000000; stroke-width: 0.8"/>
      </g>
     </g>
     <g id="text_12">
      <text style="font-size: 10px; font-family: 'DejaVu Sans', 'Bitstream Vera Sans', 'Computer Modern Sans Serif', 'Lucida Grande', 'Verdana', 'Geneva', 'Lucid', 'Arial', 'Helvetica', 'Avant Garde', sans-serif; text-anchor: end" x="59.375781" y="67.828565" transform="rotate(-0 59.375781 67.828565)">250000</text>
     </g>
    </g>
    <g id="ytick_7">
     <g id="line2d_18">
      <path d="M 66.375781 30.876158
L 613.19952 30.876158
" clip-path="url(#p1559d60365)" style="fill: none; stroke: #b0b0b0; stroke-opacity: 0.2; stroke-width: 0.8; stroke-linecap: square"/>
     </g>
     <g id="line2d_19">
      <g>
       <use xlink:href="#m5d9bfb5675" x="66.375781" y="30.876158" style="stroke: #000000; stroke-width: 0.8"/>
      </g>
     </g>
     <g id="text_13">
      <text style="font-size: 10px; font-family: 'DejaVu Sans', 'Bitstream Vera Sans', 'Computer Modern Sans Serif', 'Lucida Grande', 'Verdana', 'Geneva', 'Lucid', 'Arial', 'Helvetica', 'Avant Garde', sans-serif; text-anchor: end" x="59.375781" y="34.674986" transform="rotate(-0 59.375781 34.674986)">300000</text>
     </g>
    </g>
    <g id="text_14">
     <text style="font-size: 10px; font-family: 'DejaVu Sans', 'Bitstream Vera Sans', 'Computer Modern Sans Serif', 'Lucida Grande', 'Verdana', 'Geneva', 'Lucid', 'Arial', 'Helvetica', 'Avant Garde', sans-serif; text-anchor: middle" x="14.798438" y="126.057879" transform="rotate(-90 14.798438 126.057879)">Milliseconds</text>
    </g>
   </g>
   <g id="line2d_20">
    <path d="M -1 224.708115
L 2.578883 224.487558
L 7.135748 224.423406
L 11.692612 222.196402
L 16.249477 222.196402
L 20.806341 219.498549
L 29.92007 219.498549
L 34.476935 218.866098
L 52.704393 218.835002
L 57.261257 218.448315
L 61.818121 218.448315
L 66.374986 217.157533
L 75.488715 217.157533
L 80.045579 214.898181
L 84.602444 214.898181
L 89.159308 209.66785
L 98.273037 209.66785
L 102.829902 205.202599
L 107.386766 205.202599
L 111.943631 203.528497
L 166.626005 203.446266
L 175.739734 203.37354
L 180.296598 202.579902
L 189.410327 202.579902
L 193.967192 200.458215
L 198.524056 200.458215
L 203.080921 196.750239
L 212.19465 196.750239
L 216.751514 188.256199
L 221.308379 188.256199
L 225.865243 179.786122
L 234.978972 179.786122
L 239.535837 177.080001
L 280.547617 177.069549
L 294.21821 176.874458
L 335.229991 176.844604
L 339.786855 177.027852
L 426.367281 177.062082
L 430.924145 175.729812
L 440.037874 175.729812
L 444.594739 171.5703
L 449.151603 171.5703
L 453.708468 164.163507
L 462.822197 164.163507
L 467.379061 145.227965
L 471.935926 145.227965
L 476.49279 119.826053
L 485.606519 119.826053
L 490.163384 110.876807
L 531.175164 110.983718
L 563.073215 111.163301
L 567.63008 111.043885
L 585.857538 111.025746
L 590.414402 110.69969
L 621.39952 110.628675
L 621.39952 110.628675
" clip-path="url(#p1559d60365)" style="fill: none; stroke: #21618c; stroke-width: 1.4; stroke-linecap: square"/>
   </g>
   <g id="line2d_21">
    <path d="M -1 211.743863
L 2.578883 211.623
L 7.135748 211.59361
L 11.692612 211.134578
L 16.249477 211.134578
L 20.806341 210.864792
L 52.704393 210.798438
L 57.261257 205.722543
L 61.818121 205.722543
L 66.374986 194.749794
L 75.488715 194.749794
L 80.045579 192.803198
L 84.602444 192.803198
L 89.159308 191.97879
L 98.273037 191.97879
L 102.829902 191.532265
L 107.386766 191.532265
L 111.943631 191.364854
L 175.739734 191.349359
L 180.296598 174.353245
L 189.410327 174.353245
L 193.967192 158.878328
L 198.524056 158.878328
L 203.080921 155.522663
L 212.19465 155.522663
L 216.751514 154.031759
L 221.308379 154.031759
L 225.865243 153.184751
L 234.978972 153.184751
L 239.535837 152.914139
L 426.367281 152.912347
L 430.924145 116.576007
L 440.037874 116.576007
L 444.594739 57.940091
L 449.151603 57.940091
L 453.708468 47.036385
L 462.822197 47.036385
L 467.379061 42.311338
L 471.935926 42.311338
L 476.49279 39.771147
L 485.606519 39.771147
L 490.163384 38.876222
L 621.39952 38.851409
L 621.39952 38.851409
" clip-path="url(#p1559d60365)" style="fill: none; stroke: #cc641c; stroke-width: 1.4; stroke-linecap: square"/>
   </g>
   <g id="line2d_22">
    <path d="M -1 210.273162
L 39.033799 210.084698
L 52.704393 210.084076
L 57.261257 193.155179
L 61.818121 193.155179
L 66.374986 190.96063
L 75.488715 190.96063
L 80.045579 190.57131
L 84.602444 190.57131
L 89.159308 190.406429
L 107.386766 190.317124
L 125.614224 190.282591
L 175.739734 190.280543
L 180.296598 155.053884
L 189.410327 155.053884
L 193.967192 151.9589
L 198.524056 151.9589
L 203.080921 151.287767
L 212.19465 151.287767
L 216.751514 150.989586
L 221.308379 150.989586
L 225.865243 150.820185
L 426.367281 150.765704
L 430.924145 48.016127
L 440.037874 48.016127
L 444.594739 36.288944
L 449.151603 36.288944
L 453.708468 34.108203
L 462.822197 34.108203
L 467.379061 33.163194
L 471.935926 33.163194
L 476.49279 32.655155
L 485.606519 32.655155
L 490.163384 32.476171
L 621.39952 32.471208
L 621.39952 32.471208
" clip-path="url(#p1559d60365)" style="fill: none; stroke: #3d7b52; stroke-width: 1.4; stroke-linecap: square"/>
   </g>
   <g id="line2d_23">
    <path d="M 203.081716 229.797634
L 203.081716 22.318125
" clip-path="url(#p1559d60365)" style="fill: none; stroke-dasharray: 3.7,1.6; stroke-dashoffset: 0; stroke: #444444"/>
   </g>
   <g id="patch_3">
    <path d="M 66.375781 229.797634
L 66.375781 22.318125
" style="fill: none; stroke: #000000; stroke-width: 0.8; stroke-linejoin: miter; stroke-linecap: square"/>
   </g>
   <g id="patch_4">
    <path d="M 66.375781 229.797634
L 613.19952 229.797634
" style="fill: none; stroke: #000000; stroke-width: 0.8; stroke-linejoin: miter; stroke-linecap: square"/>
   </g>
   <g id="text_15">
    <text style="font-size: 12px; font-family: 'DejaVu Sans', 'Bitstream Vera Sans', 'Computer Modern Sans Serif', 'Lucida Grande', 'Verdana', 'Geneva', 'Lucid', 'Arial', 'Helvetica', 'Avant Garde', sans-serif; text-anchor: middle" x="339.787651" y="16.318125" transform="rotate(-0 339.787651 16.318125)">Recorded completion latency · rolling histogram estimates</text>
   </g>
   <g id="legend_1">
    <g id="patch_5">
     <path d="M 73.375781 75.320469
L 124.449219 75.320469
Q 126.449219 75.320469 126.449219 73.320469
L 126.449219 29.318125
Q 126.449219 27.318125 124.449219 27.318125
L 73.375781 27.318125
Q 71.375781 27.318125 71.375781 29.318125
L 71.375781 73.320469
Q 71.375781 75.320469 73.375781 75.320469
z
" style="fill: #ffffff; opacity: 0.8; stroke: #cccccc; stroke-linejoin: miter"/>
    </g>
    <g id="line2d_24">
     <path d="M 75.375781 35.416562
L 85.375781 35.416562
L 95.375781 35.416562
" style="fill: none; stroke: #21618c; stroke-width: 1.4; stroke-linecap: square"/>
    </g>
    <g id="text_16">
     <text style="font-size: 10px; font-family: 'DejaVu Sans', 'Bitstream Vera Sans', 'Computer Modern Sans Serif', 'Lucida Grande', 'Verdana', 'Geneva', 'Lucid', 'Arial', 'Helvetica', 'Avant Garde', sans-serif; text-anchor: start" x="103.375781" y="38.916562" transform="rotate(-0 103.375781 38.916562)">p50</text>
    </g>
    <g id="line2d_25">
     <path d="M 75.375781 50.417344
L 85.375781 50.417344
L 95.375781 50.417344
" style="fill: none; stroke: #cc641c; stroke-width: 1.4; stroke-linecap: square"/>
    </g>
    <g id="text_17">
     <text style="font-size: 10px; font-family: 'DejaVu Sans', 'Bitstream Vera Sans', 'Computer Modern Sans Serif', 'Lucida Grande', 'Verdana', 'Geneva', 'Lucid', 'Arial', 'Helvetica', 'Avant Garde', sans-serif; text-anchor: start" x="103.375781" y="53.917344" transform="rotate(-0 103.375781 53.917344)">p95</text>
    </g>
    <g id="line2d_26">
     <path d="M 75.375781 65.418125
L 85.375781 65.418125
L 95.375781 65.418125
" style="fill: none; stroke: #3d7b52; stroke-width: 1.4; stroke-linecap: square"/>
    </g>
    <g id="text_18">
     <text style="font-size: 10px; font-family: 'DejaVu Sans', 'Bitstream Vera Sans', 'Computer Modern Sans Serif', 'Lucida Grande', 'Verdana', 'Geneva', 'Lucid', 'Arial', 'Helvetica', 'Avant Garde', sans-serif; text-anchor: start" x="103.375781" y="68.918125" transform="rotate(-0 103.375781 68.918125)">p99</text>
    </g>
   </g>
  </g>
  <g id="text_19">
   <text style="font-size: 8px; font-family: 'DejaVu Sans', 'Bitstream Vera Sans', 'Computer Modern Sans Serif', 'Lucida Grande', 'Verdana', 'Geneva', 'Lucid', 'Arial', 'Helvetica', 'Avant Garde', sans-serif; text-anchor: middle" x="310.19976" y="272.877645" transform="rotate(-0 310.19976 272.877645)">Completed attempts only; this is separate from exact cohort percentiles and unfinished-message counts.</text>
  </g>
 </g>
 <defs>
  <clipPath id="p1559d60365">
   <rect x="66.375781" y="22.318125" width="546.823739" height="207.479509"/>
  </clipPath>
 </defs>
</svg>
