<?xml version="1.0" encoding="utf-8" standalone="no"?>
<!DOCTYPE svg PUBLIC "-//W3C//DTD SVG 1.1//EN"
  "http://www.w3.org/Graphics/SVG/1.1/DTD/svg11.dtd">
<svg xmlns:xlink="http://www.w3.org/1999/xlink" width="620.39952pt" height="260.39952pt" viewBox="0 0 620.39952 260.39952" xmlns="http://www.w3.org/2000/svg" version="1.1">
 <metadata>
  <rdf:RDF xmlns:dc="http://purl.org/dc/elements/1.1/" xmlns:cc="http://creativecommons.org/ns#" xmlns:rdf="http://www.w3.org/1999/02/22-rdf-syntax-ns#">
   <cc:Work>
    <dc:type rdf:resource="http://purl.org/dc/dcmitype/StillImage"/>
    <dc:date>2026-09-12T23:55:18.696470</dc:date>
    <dc:format>image/svg+xml</dc:format>
    <dc:creator>
     <cc:Agent>
      <dc:title>Matplotlib v3.11.2, https://matplotlib.org/</dc:title>
     </cc:Agent>
    </dc:creator>
   </cc:Work>
  </rdf:RDF>
 </metadata>
 <defs>
  <style type="text/css">*{stroke-linejoin: round; stroke-linecap: butt}</style>
 </defs>
 <g id="figure_1">
  <g id="patch_1">
   <path d="M 0 260.39952
L 620.39952 260.39952
L 620.39952 -0
L 0 -0
z
" style="fill: #ffffff"/>
  </g>
  <g id="axes_1">
   <g id="patch_2">
    <path d="M 53.650781 222.198739
L 613.19952 222.198739
L 613.19952 39.319464
L 53.650781 39.319464
z
" style="fill: #ffffff"/>
   </g>
   <g id="matplotlib.axis_1">
    <g id="xtick_1">
     <g id="line2d_1">
      <defs>
       <path id="m91f35a505d" d="M 0 0
L 0 3.5
" style="stroke: #000000; stroke-width: 0.8"/>
      </defs>
      <g>
       <use xlink:href="#m91f35a505d" x="53.650781" y="222.198739" style="stroke: #000000; stroke-width: 0.8"/>
      </g>
     </g>
     <g id="text_1">
      <text style="font-size: 10px; font-family: 'DejaVu Sans', 'Bitstream Vera Sans', 'Computer Modern Sans Serif', 'Lucida Grande', 'Verdana', 'Geneva', 'Lucid', 'Arial', 'Helvetica', 'Avant Garde', sans-serif; text-anchor: middle" x="53.650781" y="236.796395" transform="rotate(-0 53.650781 236.796395)">0</text>
     </g>
    </g>
    <g id="xtick_2">
     <g id="line2d_2">
      <g>
       <use xlink:href="#m91f35a505d" x="170.223435" y="222.198739" style="stroke: #000000; stroke-width: 0.8"/>
      </g>
     </g>
     <g id="text_2">
      <text style="font-size: 10px; font-family: 'DejaVu Sans', 'Bitstream Vera Sans', 'Computer Modern Sans Serif', 'Lucida Grande', 'Verdana', 'Geneva', 'Lucid', 'Arial', 'Helvetica', 'Avant Garde', sans-serif; text-anchor: middle" x="170.223435" y="236.796395" transform="rotate(-0 170.223435 236.796395)">50</text>
     </g>
    </g>
    <g id="xtick_3">
     <g id="line2d_3">
      <g>
       <use xlink:href="#m91f35a505d" x="286.796089" y="222.198739" style="stroke: #000000; stroke-width: 0.8"/>
      </g>
     </g>
     <g id="text_3">
      <text style="font-size: 10px; font-family: 'DejaVu Sans', 'Bitstream Vera Sans', 'Computer Modern Sans Serif', 'Lucida Grande', 'Verdana', 'Geneva', 'Lucid', 'Arial', 'Helvetica', 'Avant Garde', sans-serif; text-anchor: middle" x="286.796089" y="236.796395" transform="rotate(-0 286.796089 236.796395)">100</text>
     </g>
    </g>
    <g id="xtick_4">
     <g id="line2d_4">
      <g>
       <use xlink:href="#m91f35a505d" x="403.368743" y="222.198739" style="stroke: #000000; stroke-width: 0.8"/>
      </g>
     </g>
     <g id="text_4">
      <text style="font-size: 10px; font-family: 'DejaVu Sans', 'Bitstream Vera Sans', 'Computer Modern Sans Serif', 'Lucida Grande', 'Verdana', 'Geneva', 'Lucid', 'Arial', 'Helvetica', 'Avant Garde', sans-serif; text-anchor: middle" x="403.368743" y="236.796395" transform="rotate(-0 403.368743 236.796395)">150</text>
     </g>
    </g>
    <g id="xtick_5">
     <g id="line2d_5">
      <g>
       <use xlink:href="#m91f35a505d" x="519.941397" y="222.198739" style="stroke: #000000; stroke-width: 0.8"/>
      </g>
     </g>
     <g id="text_5">
      <text style="font-size: 10px; font-family: 'DejaVu Sans', 'Bitstream Vera Sans', 'Computer Modern Sans Serif', 'Lucida Grande', 'Verdana', 'Geneva', 'Lucid', 'Arial', 'Helvetica', 'Avant Garde', sans-serif; text-anchor: middle" x="519.941397" y="236.796395" transform="rotate(-0 519.941397 236.796395)">200</text>
     </g>
    </g>
    <g id="text_6">
     <text style="font-size: 10px; font-family: 'DejaVu Sans', 'Bitstream Vera Sans', 'Computer Modern Sans Serif', 'Lucida Grande', 'Verdana', 'Geneva', 'Lucid', 'Arial', 'Helvetica', 'Avant Garde', sans-serif; text-anchor: middle" x="333.425151" y="250.797176" transform="rotate(-0 333.425151 250.797176)">Seconds from evaluation start</text>
    </g>
   </g>
   <g id="matplotlib.axis_2">
    <g id="ytick_1">
     <g id="line2d_6">
      <path d="M 53.650781 222.198739
L 613.19952 222.198739
" clip-path="url(#p9e9ad0ca47)" style="fill: none; stroke: #b0b0b0; stroke-opacity: 0.2; stroke-width: 0.8; stroke-linecap: square"/>
     </g>
     <g id="line2d_7">
      <defs>
       <path id="mebb3f632b0" d="M 0 0
L -3.5 0
" style="stroke: #000000; stroke-width: 0.8"/>
      </defs>
      <g>
       <use xlink:href="#mebb3f632b0" x="53.650781" y="222.198739" style="stroke: #000000; stroke-width: 0.8"/>
      </g>
     </g>
     <g id="text_7">
      <text style="font-size: 10px; font-family: 'DejaVu Sans', 'Bitstream Vera Sans', 'Computer Modern Sans Serif', 'Lucida Grande', 'Verdana', 'Geneva', 'Lucid', 'Arial', 'Helvetica', 'Avant Garde', sans-serif; text-anchor: end" x="46.650781" y="225.997567" transform="rotate(-0 46.650781 225.997567)">0</text>
     </g>
    </g>
    <g id="ytick_2">
     <g id="line2d_8">
      <path d="M 53.650781 199.155405
L 613.19952 199.155405
" clip-path="url(#p9e9ad0ca47)" style="fill: none; stroke: #b0b0b0; stroke-opacity: 0.2; stroke-width: 0.8; stroke-linecap: square"/>
     </g>
     <g id="line2d_9">
      <g>
       <use xlink:href="#mebb3f632b0" x="53.650781" y="199.155405" style="stroke: #000000; stroke-width: 0.8"/>
      </g>
     </g>
     <g id="text_8">
      <text style="font-size: 10px; font-family: 'DejaVu Sans', 'Bitstream Vera Sans', 'Computer Modern Sans Serif', 'Lucida Grande', 'Verdana', 'Geneva', 'Lucid', 'Arial', 'Helvetica', 'Avant Garde', sans-serif; text-anchor: end" x="46.650781" y="202.954233" transform="rotate(-0 46.650781 202.954233)">200</text>
     </g>
    </g>
    <g id="ytick_3">
     <g id="line2d_10">
      <path d="M 53.650781 176.11207
L 613.19952 176.11207
" clip-path="url(#p9e9ad0ca47)" style="fill: none; stroke: #b0b0b0; stroke-opacity: 0.2; stroke-width: 0.8; stroke-linecap: square"/>
     </g>
     <g id="line2d_11">
      <g>
       <use xlink:href="#mebb3f632b0" x="53.650781" y="176.11207" style="stroke: #000000; stroke-width: 0.8"/>
      </g>
     </g>
     <g id="text_9">
      <text style="font-size: 10px; font-family: 'DejaVu Sans', 'Bitstream Vera Sans', 'Computer Modern Sans Serif', 'Lucida Grande', 'Verdana', 'Geneva', 'Lucid', 'Arial', 'Helvetica', 'Avant Garde', sans-serif; text-anchor: end" x="46.650781" y="179.910898" transform="rotate(-0 46.650781 179.910898)">400</text>
     </g>
    </g>
    <g id="ytick_4">
     <g id="line2d_12">
      <path d="M 53.650781 153.068736
L 613.19952 153.068736
" clip-path="url(#p9e9ad0ca47)" style="fill: none; stroke: #b0b0b0; stroke-opacity: 0.2; stroke-width: 0.8; stroke-linecap: square"/>
     </g>
     <g id="line2d_13">
      <g>
       <use xlink:href="#mebb3f632b0" x="53.650781" y="153.068736" style="stroke: #000000; stroke-width: 0.8"/>
      </g>
     </g>
     <g id="text_10">
      <text style="font-size: 10px; font-family: 'DejaVu Sans', 'Bitstream Vera Sans', 'Computer Modern Sans Serif', 'Lucida Grande', 'Verdana', 'Geneva', 'Lucid', 'Arial', 'Helvetica', 'Avant Garde', sans-serif; text-anchor: end" x="46.650781" y="156.867564" transform="rotate(-0 46.650781 156.867564)">600</text>
     </g>
    </g>
    <g id="ytick_5">
     <g id="line2d_14">
      <path d="M 53.650781 130.025402
L 613.19952 130.025402
" clip-path="url(#p9e9ad0ca47)" style="fill: none; stroke: #b0b0b0; stroke-opacity: 0.2; stroke-width: 0.8; stroke-linecap: square"/>
     </g>
     <g id="line2d_15">
      <g>
       <use xlink:href="#mebb3f632b0" x="53.650781" y="130.025402" style="stroke: #000000; stroke-width: 0.8"/>
      </g>
     </g>
     <g id="text_11">
      <text style="font-size: 10px; font-family: 'DejaVu Sans', 'Bitstream Vera Sans', 'Computer Modern Sans Serif', 'Lucida Grande', 'Verdana', 'Geneva', 'Lucid', 'Arial', 'Helvetica', 'Avant Garde', sans-serif; text-anchor: end" x="46.650781" y="133.82423" transform="rotate(-0 46.650781 133.82423)">800</text>
     </g>
    </g>
    <g id="ytick_6">
     <g id="line2d_16">
      <path d="M 53.650781 106.982068
L 613.19952 106.982068
" clip-path="url(#p9e9ad0ca47)" style="fill: none; stroke: #b0b0b0; stroke-opacity: 0.2; stroke-width: 0.8; stroke-linecap: square"/>
     </g>
     <g id="line2d_17">
      <g>
       <use xlink:href="#mebb3f632b0" x="53.650781" y="106.982068" style="stroke: #000000; stroke-width: 0.8"/>
      </g>
     </g>
     <g id="text_12">
      <text style="font-size: 10px; font-family: 'DejaVu Sans', 'Bitstream Vera Sans', 'Computer Modern Sans Serif', 'Lucida Grande', 'Verdana', 'Geneva', 'Lucid', 'Arial', 'Helvetica', 'Avant Garde', sans-serif; text-anchor: end" x="46.650781" y="110.780896" transform="rotate(-0 46.650781 110.780896)">1000</text>
     </g>
    </g>
    <g id="ytick_7">
     <g id="line2d_18">
      <path d="M 53.650781 83.938733
L 613.19952 83.938733
" clip-path="url(#p9e9ad0ca47)" style="fill: none; stroke: #b0b0b0; stroke-opacity: 0.2; stroke-width: 0.8; stroke-linecap: square"/>
     </g>
     <g id="line2d_19">
      <g>
       <use xlink:href="#mebb3f632b0" x="53.650781" y="83.938733" style="stroke: #000000; stroke-width: 0.8"/>
      </g>
     </g>
     <g id="text_13">
      <text style="font-size: 10px; font-family: 'DejaVu Sans', 'Bitstream Vera Sans', 'Computer Modern Sans Serif', 'Lucida Grande', 'Verdana', 'Geneva', 'Lucid', 'Arial', 'Helvetica', 'Avant Garde', sans-serif; text-anchor: end" x="46.650781" y="87.737561" transform="rotate(-0 46.650781 87.737561)">1200</text>
     </g>
    </g>
    <g id="ytick_8">
     <g id="line2d_20">
      <path d="M 53.650781 60.895399
L 613.19952 60.895399
" clip-path="url(#p9e9ad0ca47)" style="fill: none; stroke: #b0b0b0; stroke-opacity: 0.2; stroke-width: 0.8; stroke-linecap: square"/>
     </g>
     <g id="line2d_21">
      <g>
       <use xlink:href="#mebb3f632b0" x="53.650781" y="60.895399" style="stroke: #000000; stroke-width: 0.8"/>
      </g>
     </g>
     <g id="text_14">
      <text style="font-size: 10px; font-family: 'DejaVu Sans', 'Bitstream Vera Sans', 'Computer Modern Sans Serif', 'Lucida Grande', 'Verdana', 'Geneva', 'Lucid', 'Arial', 'Helvetica', 'Avant Garde', sans-serif; text-anchor: end" x="46.650781" y="64.694227" transform="rotate(-0 46.650781 64.694227)">1400</text>
     </g>
    </g>
    <g id="text_15">
     <text style="font-size: 10px; font-family: 'DejaVu Sans', 'Bitstream Vera Sans', 'Computer Modern Sans Serif', 'Lucida Grande', 'Verdana', 'Geneva', 'Lucid', 'Arial', 'Helvetica', 'Avant Garde', sans-serif; text-anchor: middle" x="14.798438" y="130.759102" transform="rotate(-90 14.798438 130.759102)">Messages / second</text>
    </g>
   </g>
   <g id="line2d_22">
    <path d="M -1 49.429604
L 2.358 49.359906
L 11.683812 49.424427
L 16.346718 49.424427
L 21.009624 49.295385
L 25.672531 48.212348
L 30.335437 48.263043
L 34.998343 49.355297
L 53.649967 49.27695
L 58.312874 49.488949
L 67.638686 49.447471
L 72.301592 49.240081
L 76.964498 49.253907
L 81.627404 49.447471
L 95.616123 49.378341
L 109.604841 49.327645
L 118.930654 49.369123
L 123.59356 49.304602
L 128.256466 50.401465
L 137.582278 50.429117
L 142.245184 49.456688
L 160.896809 49.34608
L 165.559715 49.55347
L 170.222621 49.525818
L 174.885528 49.281559
L 184.21134 49.295385
L 188.874246 48.299913
L 193.537152 48.945126
L 198.200058 50.963722
L 202.862964 50.963722
L 207.525871 50.355378
L 212.188777 49.410601
L 216.851683 49.442862
L 221.514589 49.263124
L 240.166214 49.336863
L 249.492026 49.401384
L 254.154932 48.885213
L 258.817838 48.028001
L 263.480744 48.562607
L 268.143651 50.608855
L 277.469463 50.548942
L 282.132369 49.373732
L 291.458181 49.493557
L 305.4469 49.511992
L 310.109806 49.378341
L 314.772712 49.009647
L 324.098525 49.101821
L 328.761431 48.258435
L 333.424337 48.318347
L 338.087243 49.991293
L 347.413055 49.894511
L 352.075961 49.244689
L 361.401774 49.359906
L 380.053398 49.318428
L 389.379211 49.20782
L 394.042117 49.217037
L 398.705023 48.779214
L 403.367929 48.903648
L 408.030835 49.843816
L 412.693741 49.843816
L 417.356648 49.723991
L 422.019554 49.34608
L 445.334085 49.392167
L 463.985709 49.170951
L 468.648615 48.995821
L 473.311522 49.097212
L 477.974428 49.424427
L 505.951865 49.318428
L 510.614771 49.664078
L 515.277677 49.668687
L 519.940583 49.41521
L 529.266395 49.332254
L 533.929302 49.41521
L 538.592208 49.894511
L 543.255114 49.765469
L 547.91802 49.332254
L 557.243832 49.327645
L 561.906738 49.834599
L 566.569645 49.636426
L 571.232551 49.267733
L 575.895457 49.267733
L 580.558363 49.585731
L 585.221269 49.599557
L 589.884175 49.378341
L 594.547082 48.714693
L 599.209988 48.714693
L 603.872894 48.852953
L 608.5358 49.378341
L 613.198706 49.387558
L 617.861612 56.544818
L 621.39952 56.544818
L 621.39952 56.544818
" clip-path="url(#p9e9ad0ca47)" style="fill: none; stroke: #21618c; stroke-width: 1.4; stroke-linecap: square"/>
   </g>
   <g id="line2d_23">
    <path d="M -1 131.440263
L 2.358 131.440263
L 7.020906 132.025563
L 16.346718 132.025563
L 21.009624 131.891912
L 25.672531 131.891912
L 30.335437 131.739826
L 39.661249 131.739826
L 44.324155 131.573914
L 48.987061 131.573914
L 53.649967 131.776695
L 62.97578 131.776695
L 67.638686 131.44948
L 72.301592 131.44948
L 76.964498 130.716702
L 86.290311 130.716702
L 90.953217 130.209748
L 118.930654 130.186705
L 123.59356 130.633746
L 132.919372 130.633746
L 137.582278 132.057824
L 142.245184 132.057824
L 146.908091 133.034861
L 165.559715 133.053296
L 170.222621 132.772167
L 179.548434 132.772167
L 184.21134 133.025644
L 188.874246 133.025644
L 193.537152 132.361996
L 235.503308 132.306692
L 240.166214 131.758261
L 258.817838 131.647653
L 263.480744 130.942527
L 272.806557 130.942527
L 277.469463 130.822701
L 282.132369 130.822701
L 286.795275 130.679832
L 296.121088 130.679832
L 300.783994 129.99775
L 305.4469 129.99775
L 310.109806 129.642882
L 319.435618 129.642882
L 324.098525 130.011576
L 342.750149 129.99775
L 347.413055 130.251226
L 352.075961 130.251226
L 356.738868 130.523138
L 366.06468 130.523138
L 370.727586 130.20514
L 375.390492 130.20514
L 380.053398 129.99775
L 389.379211 129.99775
L 394.042117 129.629056
L 398.705023 129.629056
L 403.367929 129.251146
L 412.693741 129.251146
L 417.356648 129.569144
L 422.019554 129.569144
L 426.68246 130.467834
L 445.334085 130.527746
L 449.996991 130.956353
L 459.322803 130.956353
L 463.985709 131.361915
L 468.648615 131.361915
L 473.311522 131.10383
L 482.637334 131.10383
L 487.30024 130.606094
L 505.951865 130.65218
L 510.614771 130.251226
L 515.277677 130.251226
L 519.940583 130.638354
L 529.266395 130.638354
L 533.929302 130.767397
L 538.592208 130.767397
L 543.255114 131.0347
L 561.906738 131.053135
L 566.569645 131.343481
L 575.895457 131.343481
L 580.558363 130.435573
L 585.221269 130.435573
L 589.884175 130.808875
L 599.209988 130.808875
L 603.872894 130.09914
L 608.5358 130.09914
L 613.198706 130.27427
L 621.39952 130.27427
L 621.39952 130.27427
" clip-path="url(#p9e9ad0ca47)" style="fill: none; stroke: #cc641c; stroke-width: 1.4; stroke-linecap: square"/>
   </g>
   <g id="line2d_24">
    <path d="M 53.650781 49.373732
L 613.19952 49.373732
" clip-path="url(#p9e9ad0ca47)" style="fill: none; stroke-dasharray: 1,1.65; stroke-dashoffset: 0; stroke: #777777"/>
   </g>
   <g id="line2d_25">
    <path d="M 193.537966 222.198739
L 193.537966 39.319464
" clip-path="url(#p9e9ad0ca47)" style="fill: none; stroke-dasharray: 3.7,1.6; stroke-dashoffset: 0; stroke: #444444"/>
   </g>
   <g id="patch_3">
    <path d="M 53.650781 222.198739
L 53.650781 39.319464
" style="fill: none; stroke: #000000; stroke-width: 0.8; stroke-linejoin: miter; stroke-linecap: square"/>
   </g>
   <g id="patch_4">
    <path d="M 53.650781 222.198739
L 613.19952 222.198739
" style="fill: none; stroke: #000000; stroke-width: 0.8; stroke-linejoin: miter; stroke-linecap: square"/>
   </g>
   <g id="text_16">
    <text style="font-size: 12px; font-family: 'DejaVu Sans', 'Bitstream Vera Sans', 'Computer Modern Sans Serif', 'Lucida Grande', 'Verdana', 'Geneva', 'Lucid', 'Arial', 'Helvetica', 'Avant Garde', sans-serif; text-anchor: middle" x="333.425151" y="33.319464" transform="rotate(-0 333.425151 33.319464)">Throughput · rolling 30-second rates</text>
   </g>
   <g id="legend_1">
    <g id="patch_5">
     <path d="M 59.250781 218.198739
L 181.840781 218.198739
Q 183.440781 218.198739 183.440781 216.598739
L 183.440781 181.396864
Q 183.440781 179.796864 181.840781 179.796864
L 59.250781 179.796864
Q 57.650781 179.796864 57.650781 181.396864
L 57.650781 216.598739
Q 57.650781 218.198739 59.250781 218.198739
z
" style="fill: #ffffff; opacity: 0.8; stroke: #cccccc; stroke-linejoin: miter"/>
    </g>
    <g id="line2d_26">
     <path d="M 60.850781 186.275614
L 68.850781 186.275614
L 76.850781 186.275614
" style="fill: none; stroke: #21618c; stroke-width: 1.4; stroke-linecap: square"/>
    </g>
    <g id="text_17">
     <text style="font-size: 8px; font-family: 'DejaVu Sans', 'Bitstream Vera Sans', 'Computer Modern Sans Serif', 'Lucida Grande', 'Verdana', 'Geneva', 'Lucid', 'Arial', 'Helvetica', 'Avant Garde', sans-serif; text-anchor: start" x="83.250781" y="189.075614" transform="rotate(-0 83.250781 189.075614)">Acknowledged attempts</text>
    </g>
    <g id="line2d_27">
     <path d="M 60.850781 198.276239
L 68.850781 198.276239
L 76.850781 198.276239
" style="fill: none; stroke: #cc641c; stroke-width: 1.4; stroke-linecap: square"/>
    </g>
    <g id="text_18">
     <text style="font-size: 8px; font-family: 'DejaVu Sans', 'Bitstream Vera Sans', 'Computer Modern Sans Serif', 'Lucida Grande', 'Verdana', 'Geneva', 'Lucid', 'Arial', 'Helvetica', 'Avant Garde', sans-serif; text-anchor: start" x="83.250781" y="201.076239" transform="rotate(-0 83.250781 201.076239)">Completed attempts</text>
    </g>
    <g id="line2d_28">
     <path d="M 60.850781 210.276864
L 68.850781 210.276864
L 76.850781 210.276864
" style="fill: none; stroke-dasharray: 1,1.65; stroke-dashoffset: 0; stroke: #777777"/>
    </g>
    <g id="text_19">
     <text style="font-size: 8px; font-family: 'DejaVu Sans', 'Bitstream Vera Sans', 'Computer Modern Sans Serif', 'Lucida Grande', 'Verdana', 'Geneva', 'Lucid', 'Arial', 'Helvetica', 'Avant Garde', sans-serif; text-anchor: start" x="83.250781" y="213.076864" transform="rotate(-0 83.250781 213.076864)">Configured target</text>
    </g>
   </g>
  </g>
  <g id="text_20">
   <text style="font-size: 11px; font-family: 'DejaVu Sans', 'Bitstream Vera Sans', 'Computer Modern Sans Serif', 'Lucida Grande', 'Verdana', 'Geneva', 'Lucid', 'Arial', 'Helvetica', 'Avant Garde', sans-serif; text-anchor: middle" x="310.19976" y="15.558281" transform="rotate(-0 310.19976 15.558281)">Skew · 3 initial consumers · target 1,500/s</text>
  </g>
 </g>
 <defs>
  <clipPath id="p9e9ad0ca47">
   <rect x="53.650781" y="39.319464" width="559.548739" height="182.879274"/>
  </clipPath>
 </defs>
</svg>
