<?xml version="1.0" encoding="utf-8" standalone="no"?>
<!DOCTYPE svg PUBLIC "-//W3C//DTD SVG 1.1//EN"
  "http://www.w3.org/Graphics/SVG/1.1/DTD/svg11.dtd">
<svg xmlns:xlink="http://www.w3.org/1999/xlink" width="620.39952pt" height="260.39952pt" viewBox="0 0 620.39952 260.39952" xmlns="http://www.w3.org/2000/svg" version="1.1">
 <metadata>
  <rdf:RDF xmlns:dc="http://purl.org/dc/elements/1.1/" xmlns:cc="http://creativecommons.org/ns#" xmlns:rdf="http://www.w3.org/1999/02/22-rdf-syntax-ns#">
   <cc:Work>
    <dc:type rdf:resource="http://purl.org/dc/dcmitype/StillImage"/>
    <dc:date>2026-09-13T00:47:26.727750</dc:date>
    <dc:format>image/svg+xml</dc:format>
    <dc:creator>
     <cc:Agent>
      <dc:title>Matplotlib v3.11.2, https://matplotlib.org/</dc:title>
     </cc:Agent>
    </dc:creator>
   </cc:Work>
  </rdf:RDF>
 </metadata>
 <defs>
  <style type="text/css">*{stroke-linejoin: round; stroke-linecap: butt}</style>
 </defs>
 <g id="figure_1">
  <g id="patch_1">
   <path d="M 0 260.39952
L 620.39952 260.39952
L 620.39952 -0
L 0 -0
z
" style="fill: #ffffff"/>
  </g>
  <g id="axes_1">
   <g id="patch_2">
    <path d="M 47.2875 222.198739
L 613.19952 222.198739
L 613.19952 39.319464
L 47.2875 39.319464
z
" style="fill: #ffffff"/>
   </g>
   <g id="matplotlib.axis_1">
    <g id="xtick_1">
     <g id="line2d_1">
      <defs>
       <path id="m917b95b2e9" d="M 0 0
L 0 3.5
" style="stroke: #000000; stroke-width: 0.8"/>
      </defs>
      <g>
       <use xlink:href="#m917b95b2e9" x="47.2875" y="222.198739" style="stroke: #000000; stroke-width: 0.8"/>
      </g>
     </g>
     <g id="text_1">
      <text style="font-size: 10px; font-family: 'DejaVu Sans', 'Bitstream Vera Sans', 'Computer Modern Sans Serif', 'Lucida Grande', 'Verdana', 'Geneva', 'Lucid', 'Arial', 'Helvetica', 'Avant Garde', sans-serif; text-anchor: middle" x="47.2875" y="236.796395" transform="rotate(-0 47.2875 236.796395)">0</text>
     </g>
    </g>
    <g id="xtick_2">
     <g id="line2d_2">
      <g>
       <use xlink:href="#m917b95b2e9" x="165.185838" y="222.198739" style="stroke: #000000; stroke-width: 0.8"/>
      </g>
     </g>
     <g id="text_2">
      <text style="font-size: 10px; font-family: 'DejaVu Sans', 'Bitstream Vera Sans', 'Computer Modern Sans Serif', 'Lucida Grande', 'Verdana', 'Geneva', 'Lucid', 'Arial', 'Helvetica', 'Avant Garde', sans-serif; text-anchor: middle" x="165.185838" y="236.796395" transform="rotate(-0 165.185838 236.796395)">50</text>
     </g>
    </g>
    <g id="xtick_3">
     <g id="line2d_3">
      <g>
       <use xlink:href="#m917b95b2e9" x="283.084175" y="222.198739" style="stroke: #000000; stroke-width: 0.8"/>
      </g>
     </g>
     <g id="text_3">
      <text style="font-size: 10px; font-family: 'DejaVu Sans', 'Bitstream Vera Sans', 'Computer Modern Sans Serif', 'Lucida Grande', 'Verdana', 'Geneva', 'Lucid', 'Arial', 'Helvetica', 'Avant Garde', sans-serif; text-anchor: middle" x="283.084175" y="236.796395" transform="rotate(-0 283.084175 236.796395)">100</text>
     </g>
    </g>
    <g id="xtick_4">
     <g id="line2d_4">
      <g>
       <use xlink:href="#m917b95b2e9" x="400.982513" y="222.198739" style="stroke: #000000; stroke-width: 0.8"/>
      </g>
     </g>
     <g id="text_4">
      <text style="font-size: 10px; font-family: 'DejaVu Sans', 'Bitstream Vera Sans', 'Computer Modern Sans Serif', 'Lucida Grande', 'Verdana', 'Geneva', 'Lucid', 'Arial', 'Helvetica', 'Avant Garde', sans-serif; text-anchor: middle" x="400.982513" y="236.796395" transform="rotate(-0 400.982513 236.796395)">150</text>
     </g>
    </g>
    <g id="xtick_5">
     <g id="line2d_5">
      <g>
       <use xlink:href="#m917b95b2e9" x="518.88085" y="222.198739" style="stroke: #000000; stroke-width: 0.8"/>
      </g>
     </g>
     <g id="text_5">
      <text style="font-size: 10px; font-family: 'DejaVu Sans', 'Bitstream Vera Sans', 'Computer Modern Sans Serif', 'Lucida Grande', 'Verdana', 'Geneva', 'Lucid', 'Arial', 'Helvetica', 'Avant Garde', sans-serif; text-anchor: middle" x="518.88085" y="236.796395" transform="rotate(-0 518.88085 236.796395)">200</text>
     </g>
    </g>
    <g id="text_6">
     <text style="font-size: 10px; font-family: 'DejaVu Sans', 'Bitstream Vera Sans', 'Computer Modern Sans Serif', 'Lucida Grande', 'Verdana', 'Geneva', 'Lucid', 'Arial', 'Helvetica', 'Avant Garde', sans-serif; text-anchor: middle" x="330.24351" y="250.797176" transform="rotate(-0 330.24351 250.797176)">Seconds from evaluation start</text>
    </g>
   </g>
   <g id="matplotlib.axis_2">
    <g id="ytick_1">
     <g id="line2d_6">
      <path d="M 47.2875 222.198739
L 613.19952 222.198739
" clip-path="url(#p52adcfb3bb)" style="fill: none; stroke: #b0b0b0; stroke-opacity: 0.2; stroke-width: 0.8; stroke-linecap: square"/>
     </g>
     <g id="line2d_7">
      <defs>
       <path id="mad1dc0eb95" d="M 0 0
L -3.5 0
" style="stroke: #000000; stroke-width: 0.8"/>
      </defs>
      <g>
       <use xlink:href="#mad1dc0eb95" x="47.2875" y="222.198739" style="stroke: #000000; stroke-width: 0.8"/>
      </g>
     </g>
     <g id="text_7">
      <text style="font-size: 10px; font-family: 'DejaVu Sans', 'Bitstream Vera Sans', 'Computer Modern Sans Serif', 'Lucida Grande', 'Verdana', 'Geneva', 'Lucid', 'Arial', 'Helvetica', 'Avant Garde', sans-serif; text-anchor: end" x="40.2875" y="225.997567" transform="rotate(-0 40.2875 225.997567)">0</text>
     </g>
    </g>
    <g id="ytick_2">
     <g id="line2d_8">
      <path d="M 47.2875 189.790574
L 613.19952 189.790574
" clip-path="url(#p52adcfb3bb)" style="fill: none; stroke: #b0b0b0; stroke-opacity: 0.2; stroke-width: 0.8; stroke-linecap: square"/>
     </g>
     <g id="line2d_9">
      <g>
       <use xlink:href="#mad1dc0eb95" x="47.2875" y="189.790574" style="stroke: #000000; stroke-width: 0.8"/>
      </g>
     </g>
     <g id="text_8">
      <text style="font-size: 10px; font-family: 'DejaVu Sans', 'Bitstream Vera Sans', 'Computer Modern Sans Serif', 'Lucida Grande', 'Verdana', 'Geneva', 'Lucid', 'Arial', 'Helvetica', 'Avant Garde', sans-serif; text-anchor: end" x="40.2875" y="193.589402" transform="rotate(-0 40.2875 193.589402)">20</text>
     </g>
    </g>
    <g id="ytick_3">
     <g id="line2d_10">
      <path d="M 47.2875 157.382409
L 613.19952 157.382409
" clip-path="url(#p52adcfb3bb)" style="fill: none; stroke: #b0b0b0; stroke-opacity: 0.2; stroke-width: 0.8; stroke-linecap: square"/>
     </g>
     <g id="line2d_11">
      <g>
       <use xlink:href="#mad1dc0eb95" x="47.2875" y="157.382409" style="stroke: #000000; stroke-width: 0.8"/>
      </g>
     </g>
     <g id="text_9">
      <text style="font-size: 10px; font-family: 'DejaVu Sans', 'Bitstream Vera Sans', 'Computer Modern Sans Serif', 'Lucida Grande', 'Verdana', 'Geneva', 'Lucid', 'Arial', 'Helvetica', 'Avant Garde', sans-serif; text-anchor: end" x="40.2875" y="161.181237" transform="rotate(-0 40.2875 161.181237)">40</text>
     </g>
    </g>
    <g id="ytick_4">
     <g id="line2d_12">
      <path d="M 47.2875 124.974244
L 613.19952 124.974244
" clip-path="url(#p52adcfb3bb)" style="fill: none; stroke: #b0b0b0; stroke-opacity: 0.2; stroke-width: 0.8; stroke-linecap: square"/>
     </g>
     <g id="line2d_13">
      <g>
       <use xlink:href="#mad1dc0eb95" x="47.2875" y="124.974244" style="stroke: #000000; stroke-width: 0.8"/>
      </g>
     </g>
     <g id="text_10">
      <text style="font-size: 10px; font-family: 'DejaVu Sans', 'Bitstream Vera Sans', 'Computer Modern Sans Serif', 'Lucida Grande', 'Verdana', 'Geneva', 'Lucid', 'Arial', 'Helvetica', 'Avant Garde', sans-serif; text-anchor: end" x="40.2875" y="128.773072" transform="rotate(-0 40.2875 128.773072)">60</text>
     </g>
    </g>
    <g id="ytick_5">
     <g id="line2d_14">
      <path d="M 47.2875 92.566079
L 613.19952 92.566079
" clip-path="url(#p52adcfb3bb)" style="fill: none; stroke: #b0b0b0; stroke-opacity: 0.2; stroke-width: 0.8; stroke-linecap: square"/>
     </g>
     <g id="line2d_15">
      <g>
       <use xlink:href="#mad1dc0eb95" x="47.2875" y="92.566079" style="stroke: #000000; stroke-width: 0.8"/>
      </g>
     </g>
     <g id="text_11">
      <text style="font-size: 10px; font-family: 'DejaVu Sans', 'Bitstream Vera Sans', 'Computer Modern Sans Serif', 'Lucida Grande', 'Verdana', 'Geneva', 'Lucid', 'Arial', 'Helvetica', 'Avant Garde', sans-serif; text-anchor: end" x="40.2875" y="96.364907" transform="rotate(-0 40.2875 96.364907)">80</text>
     </g>
    </g>
    <g id="ytick_6">
     <g id="line2d_16">
      <path d="M 47.2875 60.157914
L 613.19952 60.157914
" clip-path="url(#p52adcfb3bb)" style="fill: none; stroke: #b0b0b0; stroke-opacity: 0.2; stroke-width: 0.8; stroke-linecap: square"/>
     </g>
     <g id="line2d_17">
      <g>
       <use xlink:href="#mad1dc0eb95" x="47.2875" y="60.157914" style="stroke: #000000; stroke-width: 0.8"/>
      </g>
     </g>
     <g id="text_12">
      <text style="font-size: 10px; font-family: 'DejaVu Sans', 'Bitstream Vera Sans', 'Computer Modern Sans Serif', 'Lucida Grande', 'Verdana', 'Geneva', 'Lucid', 'Arial', 'Helvetica', 'Avant Garde', sans-serif; text-anchor: end" x="40.2875" y="63.956743" transform="rotate(-0 40.2875 63.956743)">100</text>
     </g>
    </g>
    <g id="text_13">
     <text style="font-size: 10px; font-family: 'DejaVu Sans', 'Bitstream Vera Sans', 'Computer Modern Sans Serif', 'Lucida Grande', 'Verdana', 'Geneva', 'Lucid', 'Arial', 'Helvetica', 'Avant Garde', sans-serif; text-anchor: middle" x="14.797656" y="130.759102" transform="rotate(-90 14.797656 130.759102)">CPU %</text>
    </g>
   </g>
   <g id="line2d_18">
    <path d="M -1 48.815057
L 0.12903 48.815057
L 4.844964 69.232201
L 14.276831 69.232201
L 18.992764 51.731792
L 23.708698 51.731792
L 28.424631 61.778323
L 37.856498 61.778323
L 42.572432 61.130159
L 47.288365 61.130159
L 52.004299 51.083628
L 61.436166 51.083628
L 66.152099 52.866077
L 70.868033 52.866077
L 75.583966 60.481996
L 85.015833 60.481996
L 89.731767 62.264445
L 94.4477 62.264445
L 99.163634 56.106894
L 108.595501 56.106894
L 113.311434 70.042405
L 118.027368 70.042405
L 122.743301 66.153425
L 132.175168 66.153425
L 136.891102 65.019139
L 141.607035 65.019139
L 146.322969 60.644037
L 155.754836 60.644037
L 160.470769 63.722813
L 165.186703 63.722813
L 169.902636 60.806078
L 179.334503 60.806078
L 184.050437 50.273424
L 188.76637 50.273424
L 193.482304 73.445262
L 202.914171 73.445262
L 207.630104 72.473017
L 212.346038 72.473017
L 217.061971 61.454241
L 226.493838 61.454241
L 231.209772 66.639547
L 235.925705 66.639547
L 240.641639 73.445262
L 250.073506 73.445262
L 254.789439 65.667302
L 259.505373 65.667302
L 264.221306 78.144446
L 273.653173 78.144446
L 278.369107 70.852609
L 283.08504 70.852609
L 287.800974 70.528527
L 297.232841 70.528527
L 301.948774 67.12567
L 306.664708 67.12567
L 311.380641 78.95465
L 320.812508 78.95465
L 325.528442 73.931384
L 330.244375 73.931384
L 334.960309 79.440772
L 344.392176 79.440772
L 349.108109 77.334242
L 353.824043 77.334242
L 358.539976 68.746078
L 367.971843 68.746078
L 372.687777 72.310976
L 377.40371 72.310976
L 382.119644 77.496283
L 391.551511 77.496283
L 396.267444 73.607303
L 400.983378 73.607303
L 405.699311 64.370976
L 415.131178 64.370976
L 419.847112 77.01016
L 424.563045 77.01016
L 429.278979 72.635058
L 438.710846 72.635058
L 443.426779 74.903629
L 448.142713 74.903629
L 452.858646 71.986895
L 462.290513 71.986895
L 467.006447 79.440772
L 471.72238 79.440772
L 476.438314 80.250977
L 485.870181 80.250977
L 490.586114 71.662813
L 495.302048 71.662813
L 500.017981 80.250977
L 509.449848 80.250977
L 514.165782 77.01016
L 518.881715 77.01016
L 523.597649 76.848119
L 533.029516 76.848119
L 537.745449 69.07016
L 542.461383 69.07016
L 547.177316 78.95465
L 556.609183 78.95465
L 561.325117 79.278732
L 566.04105 79.278732
L 570.756984 84.78812
L 580.188851 84.78812
L 584.904784 79.602813
L 589.620718 79.602813
L 594.336651 88.028936
L 603.768518 88.028936
L 608.484452 74.255466
L 613.200385 74.255466
L 617.916319 78.630568
L 621.39952 78.630568
L 621.39952 78.630568
" clip-path="url(#p52adcfb3bb)" style="fill: none; stroke: #21618c; stroke-width: 1.4; stroke-linecap: square"/>
   </g>
   <g id="line2d_19">
    <path d="M -1 51.893832
L 0.12903 51.893832
L 4.844964 50.759547
L 14.276831 50.759547
L 18.992764 53.190159
L 23.708698 53.190159
L 28.424631 50.435465
L 37.856498 50.435465
L 42.572432 51.731792
L 47.288365 51.731792
L 52.004299 53.838322
L 61.436166 53.838322
L 66.152099 51.893832
L 70.868033 51.893832
L 75.583966 50.273424
L 85.015833 50.273424
L 89.731767 52.217914
L 94.4477 52.217914
L 99.163634 51.245669
L 118.027368 51.245669
L 122.743301 54.648526
L 132.175168 54.648526
L 136.891102 51.893832
L 141.607035 51.893832
L 146.322969 50.759547
L 155.754836 50.759547
L 160.470769 52.055873
L 165.186703 52.055873
L 169.902636 50.597506
L 179.334503 50.597506
L 184.050437 50.921587
L 188.76637 50.921587
L 193.482304 55.782812
L 202.914171 55.782812
L 207.630104 52.055873
L 212.346038 52.055873
L 217.061971 51.893832
L 226.493838 51.893832
L 231.209772 51.569751
L 235.925705 51.569751
L 240.641639 52.379955
L 250.073506 52.379955
L 254.789439 48.977098
L 259.505373 48.977098
L 264.221306 53.028118
L 273.653173 53.028118
L 278.369107 50.921587
L 283.08504 50.921587
L 287.800974 51.731792
L 297.232841 51.731792
L 301.948774 52.866077
L 306.664708 52.866077
L 311.380641 51.569751
L 320.812508 51.569751
L 325.528442 49.625261
L 330.244375 49.625261
L 334.960309 51.893832
L 344.392176 51.893832
L 349.108109 51.731792
L 353.824043 51.731792
L 358.539976 52.217914
L 367.971843 52.217914
L 372.687777 51.569751
L 377.40371 51.569751
L 382.119644 52.866077
L 391.551511 52.866077
L 396.267444 51.731792
L 400.983378 51.731792
L 405.699311 52.866077
L 415.131178 52.866077
L 419.847112 53.3522
L 424.563045 53.3522
L 429.278979 52.379955
L 438.710846 52.379955
L 443.426779 53.028118
L 448.142713 53.028118
L 452.858646 52.866077
L 471.72238 52.866077
L 476.438314 53.514241
L 485.870181 53.514241
L 490.586114 104.233019
L 495.302048 104.233019
L 500.017981 100.66812
L 509.449848 100.66812
L 514.165782 105.205264
L 518.881715 105.205264
L 523.597649 101.316284
L 533.029516 101.316284
L 537.745449 103.908937
L 542.461383 103.908937
L 547.177316 103.098733
L 556.609183 103.098733
L 561.325117 106.015468
L 566.04105 106.015468
L 570.756984 97.913426
L 580.188851 97.913426
L 584.904784 102.288529
L 589.620718 102.288529
L 594.336651 109.742407
L 603.768518 109.742407
L 608.484452 102.774651
L 613.200385 102.774651
L 617.916319 95.320773
L 621.39952 95.320773
L 621.39952 95.320773
" clip-path="url(#p52adcfb3bb)" style="fill: none; stroke: #cc641c; stroke-width: 1.4; stroke-linecap: square"/>
   </g>
   <g id="line2d_20">
    <path d="M -1 59.185669
L 0.12903 59.185669
L 4.844964 56.917098
L 9.560897 56.917098
L 14.276831 57.079139
L 23.708698 57.079139
L 28.424631 57.889343
L 33.140565 57.889343
L 37.856498 56.917098
L 47.288365 56.917098
L 52.004299 58.051384
L 56.720232 58.051384
L 61.436166 56.268935
L 70.868033 56.268935
L 75.583966 57.24118
L 80.2999 57.24118
L 85.015833 58.051384
L 94.4477 58.051384
L 99.163634 57.565261
L 103.879567 57.565261
L 108.595501 55.782812
L 118.027368 55.782812
L 122.743301 56.593016
L 127.459235 56.593016
L 132.175168 54.972608
L 141.607035 54.972608
L 146.322969 58.375465
L 151.038902 58.375465
L 155.754836 57.40322
L 165.186703 57.40322
L 169.902636 57.889343
L 174.61857 57.889343
L 179.334503 56.106894
L 188.76637 56.106894
L 193.482304 58.375465
L 212.346038 58.375465
L 217.061971 57.727302
L 221.777905 57.727302
L 226.493838 56.755057
L 235.925705 56.755057
L 240.641639 57.24118
L 245.357572 57.24118
L 250.073506 55.29669
L 259.505373 55.29669
L 264.221306 58.375465
L 268.93724 58.375465
L 273.653173 57.727302
L 283.08504 57.727302
L 287.800974 57.889343
L 292.516907 57.889343
L 297.232841 56.755057
L 306.664708 56.755057
L 311.380641 58.375465
L 316.096575 58.375465
L 320.812508 56.593016
L 330.244375 56.593016
L 334.960309 57.40322
L 339.676242 57.40322
L 344.392176 56.430975
L 353.824043 56.430975
L 358.539976 57.079139
L 363.25591 57.079139
L 367.971843 57.24118
L 377.40371 57.24118
L 382.119644 55.620771
L 386.835577 55.620771
L 391.551511 57.40322
L 410.415245 57.40322
L 415.131178 56.755057
L 424.563045 56.755057
L 429.278979 56.268935
L 433.994912 56.268935
L 438.710846 57.40322
L 457.57458 57.40322
L 462.290513 55.944853
L 471.72238 55.944853
L 476.438314 57.565261
L 481.154247 57.565261
L 485.870181 58.537506
L 495.302048 58.537506
L 500.017981 57.079139
L 504.733915 57.079139
L 509.449848 55.782812
L 518.881715 55.782812
L 523.597649 56.917098
L 528.313582 56.917098
L 533.029516 57.727302
L 542.461383 57.727302
L 547.177316 56.106894
L 551.89325 56.106894
L 556.609183 56.593016
L 566.04105 56.593016
L 570.756984 55.782812
L 575.472917 55.782812
L 580.188851 57.727302
L 589.620718 57.727302
L 594.336651 55.29669
L 599.052585 55.29669
L 603.768518 56.593016
L 613.200385 56.593016
L 617.916319 57.565261
L 621.39952 57.565261
L 621.39952 57.565261
" clip-path="url(#p52adcfb3bb)" style="fill: none; stroke: #3d7b52; stroke-width: 1.4; stroke-linecap: square"/>
   </g>
   <g id="line2d_21">
    <path d="M 254.789439 122.543632
L 259.505373 122.543632
L 264.221306 121.733428
L 273.653173 121.733428
L 278.369107 109.904447
L 283.08504 109.904447
L 287.800974 57.565261
L 297.232841 57.565261
L 301.948774 177.961594
L 306.664708 177.961594
L 311.380641 174.720777
L 320.812508 174.720777
L 325.528442 179.25792
L 330.244375 179.25792
L 334.960309 180.230165
L 344.392176 180.230165
L 349.108109 178.123635
L 353.824043 178.123635
L 358.539976 177.31343
L 367.971843 177.31343
L 372.687777 180.392206
L 377.40371 180.392206
L 382.119644 185.09139
L 391.551511 185.09139
L 396.267444 180.554247
L 400.983378 180.554247
L 405.699311 181.850573
L 415.131178 181.850573
L 419.847112 180.554247
L 424.563045 180.554247
L 429.278979 179.582002
L 438.710846 179.582002
L 443.426779 179.744043
L 448.142713 179.744043
L 452.858646 183.957104
L 462.290513 183.957104
L 467.006447 180.878329
L 471.72238 180.878329
L 476.438314 181.364451
L 485.870181 181.364451
L 490.586114 182.984859
L 495.302048 182.984859
L 500.017981 180.716288
L 509.449848 180.716288
L 514.165782 184.605267
L 518.881715 184.605267
L 523.597649 182.498737
L 533.029516 182.498737
L 537.745449 179.906084
L 542.461383 179.906084
L 547.177316 182.498737
L 556.609183 182.498737
L 561.325117 181.364451
L 566.04105 181.364451
L 570.756984 182.336696
L 580.188851 182.336696
L 584.904784 178.771798
L 589.620718 178.771798
L 594.336651 183.470982
L 603.768518 183.470982
L 608.484452 181.688533
L 613.200385 181.688533
L 617.916319 188.008125
L 621.39952 188.008125
L 621.39952 188.008125
" clip-path="url(#p52adcfb3bb)" style="fill: none; stroke: #8b5c9c; stroke-width: 1.4; stroke-linecap: square"/>
   </g>
   <g id="line2d_22">
    <path d="M 250.073506 103.260774
L 259.505373 103.260774
L 264.221306 55.29669
L 268.93724 55.29669
L 273.653173 54.648526
L 283.08504 54.648526
L 287.800974 160.785266
L 292.516907 160.785266
L 297.232841 162.243634
L 306.664708 162.243634
L 311.380641 161.109348
L 316.096575 161.109348
L 320.812508 160.299144
L 330.244375 160.299144
L 334.960309 164.512205
L 339.676242 164.512205
L 344.392176 162.729756
L 353.824043 162.729756
L 358.539976 160.461185
L 363.25591 160.461185
L 367.971843 161.59547
L 377.40371 161.59547
L 382.119644 159.002817
L 386.835577 159.002817
L 391.551511 166.132614
L 400.983378 166.132614
L 405.699311 157.868531
L 410.415245 157.868531
L 415.131178 162.567715
L 424.563045 162.567715
L 429.278979 163.37792
L 433.994912 163.37792
L 438.710846 167.915063
L 448.142713 167.915063
L 452.858646 158.030572
L 457.57458 158.030572
L 462.290513 167.590981
L 471.72238 167.590981
L 476.438314 166.942818
L 481.154247 166.942818
L 485.870181 165.48445
L 495.302048 165.48445
L 500.017981 168.239144
L 504.733915 168.239144
L 509.449848 166.618736
L 518.881715 166.618736
L 523.597649 163.37792
L 528.313582 163.37792
L 533.029516 165.322409
L 542.461383 165.322409
L 547.177316 165.160369
L 551.89325 165.160369
L 556.609183 167.753022
L 566.04105 167.753022
L 570.756984 167.590981
L 575.472917 167.590981
L 580.188851 162.405675
L 599.052585 162.405675
L 603.768518 165.808532
L 613.200385 165.808532
L 617.916319 160.461185
L 621.39952 160.461185
L 621.39952 160.461185
" clip-path="url(#p52adcfb3bb)" style="fill: none; stroke: #bd4c67; stroke-width: 1.4; stroke-linecap: square"/>
   </g>
   <g id="line2d_23">
    <path d="M 386.835577 80.89914
L 391.551511 80.89914
L 396.267444 80.89914
L 400.983378 72.797099
L 405.699311 72.797099
L 410.415245 61.940363
L 415.131178 61.940363
L 419.847112 61.940363
L 424.563045 56.593016
L 429.278979 56.593016
L 433.994912 58.051384
L 438.710846 58.051384
L 443.426779 58.051384
L 448.142713 56.917098
L 452.858646 56.917098
L 457.57458 122.705673
L 462.290513 122.705673
L 467.006447 122.705673
L 471.72238 124.812203
L 476.438314 124.812203
L 481.154247 118.654652
L 485.870181 118.654652
L 490.586114 118.654652
L 495.302048 122.21955
L 500.017981 122.21955
L 504.733915 120.437101
L 509.449848 120.437101
L 514.165782 120.437101
L 518.881715 120.27506
L 523.597649 120.27506
L 528.313582 126.10853
L 533.029516 126.10853
L 537.745449 126.10853
L 542.461383 123.677918
L 547.177316 123.677918
L 551.89325 126.432612
L 556.609183 126.432612
L 561.325117 126.432612
L 566.04105 119.140774
L 570.756984 119.140774
L 575.472917 120.437101
L 580.188851 120.437101
L 584.904784 120.437101
L 589.620718 114.441591
L 594.336651 114.441591
L 599.052585 112.010978
L 603.768518 112.010978
L 608.484452 112.010978
L 613.200385 121.085264
L 617.916319 121.085264
L 621.39952 189.903445
" clip-path="url(#p52adcfb3bb)" style="fill: none; stroke: #817143; stroke-width: 1.4; stroke-linecap: square"/>
   </g>
   <g id="line2d_24">
    <path d="M 188.765505 222.198739
L 188.765505 39.319464
" clip-path="url(#p52adcfb3bb)" style="fill: none; stroke-dasharray: 3.7,1.6; stroke-dashoffset: 0; stroke: #444444"/>
   </g>
   <g id="patch_3">
    <path d="M 47.2875 222.198739
L 47.2875 39.319464
" style="fill: none; stroke: #000000; stroke-width: 0.8; stroke-linejoin: miter; stroke-linecap: square"/>
   </g>
   <g id="patch_4">
    <path d="M 47.2875 222.198739
L 613.19952 222.198739
" style="fill: none; stroke: #000000; stroke-width: 0.8; stroke-linejoin: miter; stroke-linecap: square"/>
   </g>
   <g id="text_14">
    <text style="font-size: 12px; font-family: 'DejaVu Sans', 'Bitstream Vera Sans', 'Computer Modern Sans Serif', 'Lucida Grande', 'Verdana', 'Geneva', 'Lucid', 'Arial', 'Helvetica', 'Avant Garde', sans-serif; text-anchor: middle" x="330.24351" y="33.319464" transform="rotate(-0 330.24351 33.319464)">Consumer process CPU · 100% is one core</text>
   </g>
   <g id="legend_1">
    <g id="patch_5">
     <path d="M 357.452332 218.698739
L 608.29952 218.698739
Q 609.69952 218.698739 609.69952 217.298739
L 609.69952 196.997645
Q 609.69952 195.597645 608.29952 195.597645
L 357.452332 195.597645
Q 356.052332 195.597645 356.052332 196.997645
L 356.052332 217.298739
Q 356.052332 218.698739 357.452332 218.698739
z
" style="fill: #ffffff; opacity: 0.8; stroke: #cccccc; stroke-linejoin: miter"/>
    </g>
    <g id="line2d_25">
     <path d="M 358.852332 201.266551
L 365.852332 201.266551
L 372.852332 201.266551
" style="fill: none; stroke: #21618c; stroke-width: 1.4; stroke-linecap: square"/>
    </g>
    <g id="text_15">
     <text style="font-size: 7px; font-family: 'DejaVu Sans', 'Bitstream Vera Sans', 'Computer Modern Sans Serif', 'Lucida Grande', 'Verdana', 'Geneva', 'Lucid', 'Arial', 'Helvetica', 'Avant Garde', sans-serif; text-anchor: start" x="378.452332" y="203.716551" transform="rotate(-0 378.452332 203.716551)">consumer-sts-0</text>
    </g>
    <g id="line2d_26">
     <path d="M 358.852332 211.767098
L 365.852332 211.767098
L 372.852332 211.767098
" style="fill: none; stroke: #cc641c; stroke-width: 1.4; stroke-linecap: square"/>
    </g>
    <g id="text_16">
     <text style="font-size: 7px; font-family: 'DejaVu Sans', 'Bitstream Vera Sans', 'Computer Modern Sans Serif', 'Lucida Grande', 'Verdana', 'Geneva', 'Lucid', 'Arial', 'Helvetica', 'Avant Garde', sans-serif; text-anchor: start" x="378.452332" y="214.217098" transform="rotate(-0 378.452332 214.217098)">consumer-sts-1</text>
    </g>
    <g id="line2d_27">
     <path d="M 446.201395 201.266551
L 453.201395 201.266551
L 460.201395 201.266551
" style="fill: none; stroke: #3d7b52; stroke-width: 1.4; stroke-linecap: square"/>
    </g>
    <g id="text_17">
     <text style="font-size: 7px; font-family: 'DejaVu Sans', 'Bitstream Vera Sans', 'Computer Modern Sans Serif', 'Lucida Grande', 'Verdana', 'Geneva', 'Lucid', 'Arial', 'Helvetica', 'Avant Garde', sans-serif; text-anchor: start" x="465.801395" y="203.716551" transform="rotate(-0 465.801395 203.716551)">consumer-sts-2</text>
    </g>
    <g id="line2d_28">
     <path d="M 446.201395 211.767098
L 453.201395 211.767098
L 460.201395 211.767098
" style="fill: none; stroke: #8b5c9c; stroke-width: 1.4; stroke-linecap: square"/>
    </g>
    <g id="text_18">
     <text style="font-size: 7px; font-family: 'DejaVu Sans', 'Bitstream Vera Sans', 'Computer Modern Sans Serif', 'Lucida Grande', 'Verdana', 'Geneva', 'Lucid', 'Arial', 'Helvetica', 'Avant Garde', sans-serif; text-anchor: start" x="465.801395" y="214.217098" transform="rotate(-0 465.801395 214.217098)">consumer-sts-3</text>
    </g>
    <g id="line2d_29">
     <path d="M 533.550457 201.266551
L 540.550457 201.266551
L 547.550457 201.266551
" style="fill: none; stroke: #bd4c67; stroke-width: 1.4; stroke-linecap: square"/>
    </g>
    <g id="text_19">
     <text style="font-size: 7px; font-family: 'DejaVu Sans', 'Bitstream Vera Sans', 'Computer Modern Sans Serif', 'Lucida Grande', 'Verdana', 'Geneva', 'Lucid', 'Arial', 'Helvetica', 'Avant Garde', sans-serif; text-anchor: start" x="553.150458" y="203.716551" transform="rotate(-0 553.150458 203.716551)">consumer-sts-4</text>
    </g>
    <g id="line2d_30">
     <path d="M 533.550457 211.767098
L 540.550457 211.767098
L 547.550457 211.767098
" style="fill: none; stroke: #817143; stroke-width: 1.4; stroke-linecap: square"/>
    </g>
    <g id="text_20">
     <text style="font-size: 7px; font-family: 'DejaVu Sans', 'Bitstream Vera Sans', 'Computer Modern Sans Serif', 'Lucida Grande', 'Verdana', 'Geneva', 'Lucid', 'Arial', 'Helvetica', 'Avant Garde', sans-serif; text-anchor: start" x="553.150458" y="214.217098" transform="rotate(-0 553.150458 214.217098)">consumer-sts-5</text>
    </g>
   </g>
  </g>
  <g id="text_21">
   <text style="font-size: 11px; font-family: 'DejaVu Sans', 'Bitstream Vera Sans', 'Computer Modern Sans Serif', 'Lucida Grande', 'Verdana', 'Geneva', 'Lucid', 'Arial', 'Helvetica', 'Avant Garde', sans-serif; text-anchor: middle" x="310.19976" y="15.558281" transform="rotate(-0 310.19976 15.558281)">Skew · 3 initial consumers · target 1,500/s</text>
  </g>
 </g>
 <defs>
  <clipPath id="p52adcfb3bb">
   <rect x="47.2875" y="39.319464" width="565.91202" height="182.879274"/>
  </clipPath>
 </defs>
</svg>
