<?xml version="1.0" encoding="utf-8" standalone="no"?>
<!DOCTYPE svg PUBLIC "-//W3C//DTD SVG 1.1//EN"
  "http://www.w3.org/Graphics/SVG/1.1/DTD/svg11.dtd">
<svg xmlns:xlink="http://www.w3.org/1999/xlink" width="620.39952pt" height="656.39952pt" viewBox="0 0 620.39952 656.39952" xmlns="http://www.w3.org/2000/svg" version="1.1">
 <metadata>
  <rdf:RDF xmlns:dc="http://purl.org/dc/elements/1.1/" xmlns:cc="http://creativecommons.org/ns#" xmlns:rdf="http://www.w3.org/1999/02/22-rdf-syntax-ns#">
   <cc:Work>
    <dc:type rdf:resource="http://purl.org/dc/dcmitype/StillImage"/>
    <dc:date>2026-09-13T03:21:43.502502</dc:date>
    <dc:format>image/svg+xml</dc:format>
    <dc:creator>
     <cc:Agent>
      <dc:title>Matplotlib v3.11.2, https://matplotlib.org/</dc:title>
     </cc:Agent>
    </dc:creator>
   </cc:Work>
  </rdf:RDF>
 </metadata>
 <defs>
  <style type="text/css">*{stroke-linejoin: round; stroke-linecap: butt}</style>
 </defs>
 <g id="figure_1">
  <g id="patch_1">
   <path d="M 0 656.39952
L 620.39952 656.39952
L 620.39952 0
L 0 0
z
" style="fill: #ffffff"/>
  </g>
  <g id="axes_1">
   <g id="patch_2">
    <path d="M 60.013281 219.806403
L 613.19952 219.806403
L 613.19952 72.729621
L 60.013281 72.729621
z
" style="fill: #ffffff"/>
   </g>
   <g id="matplotlib.axis_1">
    <g id="xtick_1">
     <g id="line2d_1">
      <defs>
       <path id="m605a745066" d="M 0 0
L 0 3.5
" style="stroke: #000000; stroke-width: 0.8"/>
      </defs>
      <g>
       <use xlink:href="#m605a745066" x="60.013281" y="219.806403" style="stroke: #000000; stroke-width: 0.8"/>
      </g>
     </g>
     <g id="text_1">
      <text style="font-size: 10px; font-family: 'DejaVu Sans', 'Bitstream Vera Sans', 'Computer Modern Sans Serif', 'Lucida Grande', 'Verdana', 'Geneva', 'Lucid', 'Arial', 'Helvetica', 'Avant Garde', sans-serif; text-anchor: middle" x="60.013281" y="234.404059" transform="rotate(-0 60.013281 234.404059)">0</text>
     </g>
    </g>
    <g id="xtick_2">
     <g id="line2d_2">
      <g>
       <use xlink:href="#m605a745066" x="175.260414" y="219.806403" style="stroke: #000000; stroke-width: 0.8"/>
      </g>
     </g>
     <g id="text_2">
      <text style="font-size: 10px; font-family: 'DejaVu Sans', 'Bitstream Vera Sans', 'Computer Modern Sans Serif', 'Lucida Grande', 'Verdana', 'Geneva', 'Lucid', 'Arial', 'Helvetica', 'Avant Garde', sans-serif; text-anchor: middle" x="175.260414" y="234.404059" transform="rotate(-0 175.260414 234.404059)">50</text>
     </g>
    </g>
    <g id="xtick_3">
     <g id="line2d_3">
      <g>
       <use xlink:href="#m605a745066" x="290.507547" y="219.806403" style="stroke: #000000; stroke-width: 0.8"/>
      </g>
     </g>
     <g id="text_3">
      <text style="font-size: 10px; font-family: 'DejaVu Sans', 'Bitstream Vera Sans', 'Computer Modern Sans Serif', 'Lucida Grande', 'Verdana', 'Geneva', 'Lucid', 'Arial', 'Helvetica', 'Avant Garde', sans-serif; text-anchor: middle" x="290.507547" y="234.404059" transform="rotate(-0 290.507547 234.404059)">100</text>
     </g>
    </g>
    <g id="xtick_4">
     <g id="line2d_4">
      <g>
       <use xlink:href="#m605a745066" x="405.75468" y="219.806403" style="stroke: #000000; stroke-width: 0.8"/>
      </g>
     </g>
     <g id="text_4">
      <text style="font-size: 10px; font-family: 'DejaVu Sans', 'Bitstream Vera Sans', 'Computer Modern Sans Serif', 'Lucida Grande', 'Verdana', 'Geneva', 'Lucid', 'Arial', 'Helvetica', 'Avant Garde', sans-serif; text-anchor: middle" x="405.75468" y="234.404059" transform="rotate(-0 405.75468 234.404059)">150</text>
     </g>
    </g>
    <g id="xtick_5">
     <g id="line2d_5">
      <g>
       <use xlink:href="#m605a745066" x="521.001814" y="219.806403" style="stroke: #000000; stroke-width: 0.8"/>
      </g>
     </g>
     <g id="text_5">
      <text style="font-size: 10px; font-family: 'DejaVu Sans', 'Bitstream Vera Sans', 'Computer Modern Sans Serif', 'Lucida Grande', 'Verdana', 'Geneva', 'Lucid', 'Arial', 'Helvetica', 'Avant Garde', sans-serif; text-anchor: middle" x="521.001814" y="234.404059" transform="rotate(-0 521.001814 234.404059)">200</text>
     </g>
    </g>
    <g id="text_6">
     <text style="font-size: 10px; font-family: 'DejaVu Sans', 'Bitstream Vera Sans', 'Computer Modern Sans Serif', 'Lucida Grande', 'Verdana', 'Geneva', 'Lucid', 'Arial', 'Helvetica', 'Avant Garde', sans-serif; text-anchor: middle" x="336.606401" y="248.40484" transform="rotate(-0 336.606401 248.40484)">Seconds from evaluation start</text>
    </g>
   </g>
   <g id="matplotlib.axis_2">
    <g id="ytick_1">
     <g id="line2d_6">
      <path d="M 60.013281 219.806403
L 613.19952 219.806403
" clip-path="url(#p38df915549)" style="fill: none; stroke: #b0b0b0; stroke-opacity: 0.2; stroke-width: 0.8; stroke-linecap: square"/>
     </g>
     <g id="line2d_7">
      <defs>
       <path id="mc269acb599" d="M 0 0
L -3.5 0
" style="stroke: #000000; stroke-width: 0.8"/>
      </defs>
      <g>
       <use xlink:href="#mc269acb599" x="60.013281" y="219.806403" style="stroke: #000000; stroke-width: 0.8"/>
      </g>
     </g>
     <g id="text_7">
      <text style="font-size: 10px; font-family: 'DejaVu Sans', 'Bitstream Vera Sans', 'Computer Modern Sans Serif', 'Lucida Grande', 'Verdana', 'Geneva', 'Lucid', 'Arial', 'Helvetica', 'Avant Garde', sans-serif; text-anchor: end" x="53.013281" y="223.605231" transform="rotate(-0 53.013281 223.605231)">0</text>
     </g>
    </g>
    <g id="ytick_2">
     <g id="line2d_8">
      <path d="M 60.013281 198.091146
L 613.19952 198.091146
" clip-path="url(#p38df915549)" style="fill: none; stroke: #b0b0b0; stroke-opacity: 0.2; stroke-width: 0.8; stroke-linecap: square"/>
     </g>
     <g id="line2d_9">
      <g>
       <use xlink:href="#mc269acb599" x="60.013281" y="198.091146" style="stroke: #000000; stroke-width: 0.8"/>
      </g>
     </g>
     <g id="text_8">
      <text style="font-size: 10px; font-family: 'DejaVu Sans', 'Bitstream Vera Sans', 'Computer Modern Sans Serif', 'Lucida Grande', 'Verdana', 'Geneva', 'Lucid', 'Arial', 'Helvetica', 'Avant Garde', sans-serif; text-anchor: end" x="53.013281" y="201.889974" transform="rotate(-0 53.013281 201.889974)">5000</text>
     </g>
    </g>
    <g id="ytick_3">
     <g id="line2d_10">
      <path d="M 60.013281 176.375889
L 613.19952 176.375889
" clip-path="url(#p38df915549)" style="fill: none; stroke: #b0b0b0; stroke-opacity: 0.2; stroke-width: 0.8; stroke-linecap: square"/>
     </g>
     <g id="line2d_11">
      <g>
       <use xlink:href="#mc269acb599" x="60.013281" y="176.375889" style="stroke: #000000; stroke-width: 0.8"/>
      </g>
     </g>
     <g id="text_9">
      <text style="font-size: 10px; font-family: 'DejaVu Sans', 'Bitstream Vera Sans', 'Computer Modern Sans Serif', 'Lucida Grande', 'Verdana', 'Geneva', 'Lucid', 'Arial', 'Helvetica', 'Avant Garde', sans-serif; text-anchor: end" x="53.013281" y="180.174717" transform="rotate(-0 53.013281 180.174717)">10000</text>
     </g>
    </g>
    <g id="ytick_4">
     <g id="line2d_12">
      <path d="M 60.013281 154.660633
L 613.19952 154.660633
" clip-path="url(#p38df915549)" style="fill: none; stroke: #b0b0b0; stroke-opacity: 0.2; stroke-width: 0.8; stroke-linecap: square"/>
     </g>
     <g id="line2d_13">
      <g>
       <use xlink:href="#mc269acb599" x="60.013281" y="154.660633" style="stroke: #000000; stroke-width: 0.8"/>
      </g>
     </g>
     <g id="text_10">
      <text style="font-size: 10px; font-family: 'DejaVu Sans', 'Bitstream Vera Sans', 'Computer Modern Sans Serif', 'Lucida Grande', 'Verdana', 'Geneva', 'Lucid', 'Arial', 'Helvetica', 'Avant Garde', sans-serif; text-anchor: end" x="53.013281" y="158.459461" transform="rotate(-0 53.013281 158.459461)">15000</text>
     </g>
    </g>
    <g id="ytick_5">
     <g id="line2d_14">
      <path d="M 60.013281 132.945376
L 613.19952 132.945376
" clip-path="url(#p38df915549)" style="fill: none; stroke: #b0b0b0; stroke-opacity: 0.2; stroke-width: 0.8; stroke-linecap: square"/>
     </g>
     <g id="line2d_15">
      <g>
       <use xlink:href="#mc269acb599" x="60.013281" y="132.945376" style="stroke: #000000; stroke-width: 0.8"/>
      </g>
     </g>
     <g id="text_11">
      <text style="font-size: 10px; font-family: 'DejaVu Sans', 'Bitstream Vera Sans', 'Computer Modern Sans Serif', 'Lucida Grande', 'Verdana', 'Geneva', 'Lucid', 'Arial', 'Helvetica', 'Avant Garde', sans-serif; text-anchor: end" x="53.013281" y="136.744204" transform="rotate(-0 53.013281 136.744204)">20000</text>
     </g>
    </g>
    <g id="ytick_6">
     <g id="line2d_16">
      <path d="M 60.013281 111.230119
L 613.19952 111.230119
" clip-path="url(#p38df915549)" style="fill: none; stroke: #b0b0b0; stroke-opacity: 0.2; stroke-width: 0.8; stroke-linecap: square"/>
     </g>
     <g id="line2d_17">
      <g>
       <use xlink:href="#mc269acb599" x="60.013281" y="111.230119" style="stroke: #000000; stroke-width: 0.8"/>
      </g>
     </g>
     <g id="text_12">
      <text style="font-size: 10px; font-family: 'DejaVu Sans', 'Bitstream Vera Sans', 'Computer Modern Sans Serif', 'Lucida Grande', 'Verdana', 'Geneva', 'Lucid', 'Arial', 'Helvetica', 'Avant Garde', sans-serif; text-anchor: end" x="53.013281" y="115.028947" transform="rotate(-0 53.013281 115.028947)">25000</text>
     </g>
    </g>
    <g id="ytick_7">
     <g id="line2d_18">
      <path d="M 60.013281 89.514863
L 613.19952 89.514863
" clip-path="url(#p38df915549)" style="fill: none; stroke: #b0b0b0; stroke-opacity: 0.2; stroke-width: 0.8; stroke-linecap: square"/>
     </g>
     <g id="line2d_19">
      <g>
       <use xlink:href="#mc269acb599" x="60.013281" y="89.514863" style="stroke: #000000; stroke-width: 0.8"/>
      </g>
     </g>
     <g id="text_13">
      <text style="font-size: 10px; font-family: 'DejaVu Sans', 'Bitstream Vera Sans', 'Computer Modern Sans Serif', 'Lucida Grande', 'Verdana', 'Geneva', 'Lucid', 'Arial', 'Helvetica', 'Avant Garde', sans-serif; text-anchor: end" x="53.013281" y="93.313691" transform="rotate(-0 53.013281 93.313691)">30000</text>
     </g>
    </g>
    <g id="text_14">
     <text style="font-size: 10px; font-family: 'DejaVu Sans', 'Bitstream Vera Sans', 'Computer Modern Sans Serif', 'Lucida Grande', 'Verdana', 'Geneva', 'Lucid', 'Arial', 'Helvetica', 'Avant Garde', sans-serif; text-anchor: middle" x="14.798438" y="146.268012" transform="rotate(-90 14.798438 146.268012)">Completion-frontier offsets</text>
    </g>
   </g>
   <g id="line2d_20">
    <path d="M 64.62304 160.636671
L 69.232926 160.636671
L 73.842811 157.422813
L 78.452696 155.233915
L 83.062581 155.233915
L 87.672467 150.165574
L 92.282352 150.165574
L 96.892237 146.495696
L 101.502123 145.188438
L 106.112008 145.188438
L 110.721893 139.733565
L 115.331779 139.733565
L 119.941664 136.897553
L 124.551549 134.682596
L 129.161435 134.682596
L 133.77132 129.166921
L 138.381205 129.166921
L 142.991091 126.704411
L 147.600976 124.172412
L 152.210861 124.172412
L 156.820747 118.061739
L 161.430632 118.061739
L 166.040517 116.076965
L 170.650403 113.419017
L 175.260288 113.419017
L 179.870173 107.577613
L 184.480059 107.577613
L 189.089944 105.601525
L 193.699829 103.755728
L 198.309715 103.755728
L 202.9196 98.869795
L 207.529485 98.869795
L 212.139371 95.986009
L 216.749256 92.680947
L 221.359141 92.680947
L 225.969026 87.799357
L 230.578912 87.799357
L 235.188797 85.254329
L 239.798682 82.192478
L 244.408568 82.192478
L 249.018453 76.915671
L 253.628338 76.915671
M 299.727192 91.44752
L 304.337077 93.015362
L 308.946962 94.02295
L 313.556848 96.824218
L 318.166733 97.401844
L 322.776618 98.960999
L 327.386504 99.212896
L 331.996389 99.71669
L 336.606274 102.196572
L 341.21616 104.372441
L 345.826045 106.39196
L 350.43593 106.978272
L 355.045816 106.895754
L 359.655701 109.384322
L 364.265586 110.691581
L 368.875471 112.45486
L 373.485357 112.789275
L 378.095242 112.941281
L 382.705127 114.965143
L 387.315013 117.015064
L 391.924898 119.551406
L 396.534783 120.259323
L 401.144669 120.463446
L 405.754554 122.300557
L 410.364439 123.460152
L 414.974325 125.718538
L 419.58421 126.343938
L 424.194095 126.409084
L 428.803981 126.522003
L 433.413866 127.685941
L 438.023751 127.607766
L 442.633637 128.354771
L 447.243522 128.915024
L 451.853407 128.975827
L 456.463293 130.378633
L 461.073178 130.369946
L 465.683063 130.852025
L 470.292949 131.568629
L 474.902834 131.559943
L 479.512719 132.024649
L 484.122605 132.002934
L 488.73249 132.471983
L 493.342375 133.813986
L 497.952261 133.840044
L 502.562146 134.587049
L 507.172031 134.578363
L 511.781917 134.747742
L 516.391802 135.616352
L 521.001687 135.607666
L 525.611572 136.9931
L 530.221458 137.014815
L 534.831343 137.557696
L 539.441228 137.974629
L 544.051114 137.939885
L 548.660999 138.930101
L 553.270884 138.973531
L 557.88077 139.716193
L 562.490655 140.358964
L 567.10054 140.319877
L 571.710426 141.132028
L 576.320311 141.158086
L 580.930196 142.200418
L 585.540082 142.934394
L 590.149967 142.930051
L 594.759852 143.941982
L 599.369738 143.950668
L 603.979623 144.719388
L 608.589508 145.414276
L 613.199394 145.409933
" clip-path="url(#p38df915549)" style="fill: none; stroke: #21618c; stroke-width: 1.5; stroke-linecap: square"/>
   </g>
   <g id="line2d_21">
    <path d="M 198.309841 219.806403
L 198.309841 72.729621
" clip-path="url(#p38df915549)" style="fill: none; stroke-dasharray: 3.7,1.6; stroke-dashoffset: 0; stroke: #444444"/>
   </g>
   <g id="patch_3">
    <path d="M 60.013281 219.806403
L 60.013281 72.729621
" style="fill: none; stroke: #000000; stroke-width: 0.8; stroke-linejoin: miter; stroke-linecap: square"/>
   </g>
   <g id="patch_4">
    <path d="M 60.013281 219.806403
L 613.19952 219.806403
" style="fill: none; stroke: #000000; stroke-width: 0.8; stroke-linejoin: miter; stroke-linecap: square"/>
   </g>
   <g id="text_15">
    <text style="font-size: 12px; font-family: 'DejaVu Sans', 'Bitstream Vera Sans', 'Computer Modern Sans Serif', 'Lucida Grande', 'Verdana', 'Geneva', 'Lucid', 'Arial', 'Helvetica', 'Avant Garde', sans-serif" transform="translate(213.648588 52.326339)">Processing backlog · 90.8% lag coverage</text>
    <text style="font-size: 12px; font-family: 'DejaVu Sans', 'Bitstream Vera Sans', 'Computer Modern Sans Serif', 'Lucida Grande', 'Verdana', 'Geneva', 'Lucid', 'Arial', 'Helvetica', 'Avant Garde', sans-serif" transform="translate(184.605776 66.729621)">Gaps denote invalid or discontinuous observations</text>
   </g>
  </g>
  <g id="axes_2">
   <g id="patch_5">
    <path d="M 60.013281 419.002571
L 613.19952 419.002571
L 613.19952 271.925789
L 60.013281 271.925789
z
" style="fill: #ffffff"/>
   </g>
   <g id="matplotlib.axis_3">
    <g id="xtick_6">
     <g id="line2d_22">
      <g>
       <use xlink:href="#m605a745066" x="60.013281" y="419.002571" style="stroke: #000000; stroke-width: 0.8"/>
      </g>
     </g>
     <g id="text_16">
      <text style="font-size: 10px; font-family: 'DejaVu Sans', 'Bitstream Vera Sans', 'Computer Modern Sans Serif', 'Lucida Grande', 'Verdana', 'Geneva', 'Lucid', 'Arial', 'Helvetica', 'Avant Garde', sans-serif; text-anchor: middle" x="60.013281" y="433.600227" transform="rotate(-0 60.013281 433.600227)">0</text>
     </g>
    </g>
    <g id="xtick_7">
     <g id="line2d_23">
      <g>
       <use xlink:href="#m605a745066" x="175.260414" y="419.002571" style="stroke: #000000; stroke-width: 0.8"/>
      </g>
     </g>
     <g id="text_17">
      <text style="font-size: 10px; font-family: 'DejaVu Sans', 'Bitstream Vera Sans', 'Computer Modern Sans Serif', 'Lucida Grande', 'Verdana', 'Geneva', 'Lucid', 'Arial', 'Helvetica', 'Avant Garde', sans-serif; text-anchor: middle" x="175.260414" y="433.600227" transform="rotate(-0 175.260414 433.600227)">50</text>
     </g>
    </g>
    <g id="xtick_8">
     <g id="line2d_24">
      <g>
       <use xlink:href="#m605a745066" x="290.507547" y="419.002571" style="stroke: #000000; stroke-width: 0.8"/>
      </g>
     </g>
     <g id="text_18">
      <text style="font-size: 10px; font-family: 'DejaVu Sans', 'Bitstream Vera Sans', 'Computer Modern Sans Serif', 'Lucida Grande', 'Verdana', 'Geneva', 'Lucid', 'Arial', 'Helvetica', 'Avant Garde', sans-serif; text-anchor: middle" x="290.507547" y="433.600227" transform="rotate(-0 290.507547 433.600227)">100</text>
     </g>
    </g>
    <g id="xtick_9">
     <g id="line2d_25">
      <g>
       <use xlink:href="#m605a745066" x="405.75468" y="419.002571" style="stroke: #000000; stroke-width: 0.8"/>
      </g>
     </g>
     <g id="text_19">
      <text style="font-size: 10px; font-family: 'DejaVu Sans', 'Bitstream Vera Sans', 'Computer Modern Sans Serif', 'Lucida Grande', 'Verdana', 'Geneva', 'Lucid', 'Arial', 'Helvetica', 'Avant Garde', sans-serif; text-anchor: middle" x="405.75468" y="433.600227" transform="rotate(-0 405.75468 433.600227)">150</text>
     </g>
    </g>
    <g id="xtick_10">
     <g id="line2d_26">
      <g>
       <use xlink:href="#m605a745066" x="521.001814" y="419.002571" style="stroke: #000000; stroke-width: 0.8"/>
      </g>
     </g>
     <g id="text_20">
      <text style="font-size: 10px; font-family: 'DejaVu Sans', 'Bitstream Vera Sans', 'Computer Modern Sans Serif', 'Lucida Grande', 'Verdana', 'Geneva', 'Lucid', 'Arial', 'Helvetica', 'Avant Garde', sans-serif; text-anchor: middle" x="521.001814" y="433.600227" transform="rotate(-0 521.001814 433.600227)">200</text>
     </g>
    </g>
    <g id="text_21">
     <text style="font-size: 10px; font-family: 'DejaVu Sans', 'Bitstream Vera Sans', 'Computer Modern Sans Serif', 'Lucida Grande', 'Verdana', 'Geneva', 'Lucid', 'Arial', 'Helvetica', 'Avant Garde', sans-serif; text-anchor: middle" x="336.606401" y="447.601008" transform="rotate(-0 336.606401 447.601008)">Seconds from evaluation start</text>
    </g>
   </g>
   <g id="matplotlib.axis_4">
    <g id="ytick_8">
     <g id="line2d_27">
      <path d="M 60.013281 419.002571
L 613.19952 419.002571
" clip-path="url(#p4816662ee4)" style="fill: none; stroke: #b0b0b0; stroke-opacity: 0.2; stroke-width: 0.8; stroke-linecap: square"/>
     </g>
     <g id="line2d_28">
      <g>
       <use xlink:href="#mc269acb599" x="60.013281" y="419.002571" style="stroke: #000000; stroke-width: 0.8"/>
      </g>
     </g>
     <g id="text_22">
      <text style="font-size: 10px; font-family: 'DejaVu Sans', 'Bitstream Vera Sans', 'Computer Modern Sans Serif', 'Lucida Grande', 'Verdana', 'Geneva', 'Lucid', 'Arial', 'Helvetica', 'Avant Garde', sans-serif; text-anchor: end" x="53.013281" y="422.801399" transform="rotate(-0 53.013281 422.801399)">0</text>
     </g>
    </g>
    <g id="ytick_9">
     <g id="line2d_29">
      <path d="M 60.013281 379.892605
L 613.19952 379.892605
" clip-path="url(#p4816662ee4)" style="fill: none; stroke: #b0b0b0; stroke-opacity: 0.2; stroke-width: 0.8; stroke-linecap: square"/>
     </g>
     <g id="line2d_30">
      <g>
       <use xlink:href="#mc269acb599" x="60.013281" y="379.892605" style="stroke: #000000; stroke-width: 0.8"/>
      </g>
     </g>
     <g id="text_23">
      <text style="font-size: 10px; font-family: 'DejaVu Sans', 'Bitstream Vera Sans', 'Computer Modern Sans Serif', 'Lucida Grande', 'Verdana', 'Geneva', 'Lucid', 'Arial', 'Helvetica', 'Avant Garde', sans-serif; text-anchor: end" x="53.013281" y="383.691433" transform="rotate(-0 53.013281 383.691433)">500</text>
     </g>
    </g>
    <g id="ytick_10">
     <g id="line2d_31">
      <path d="M 60.013281 340.782639
L 613.19952 340.782639
" clip-path="url(#p4816662ee4)" style="fill: none; stroke: #b0b0b0; stroke-opacity: 0.2; stroke-width: 0.8; stroke-linecap: square"/>
     </g>
     <g id="line2d_32">
      <g>
       <use xlink:href="#mc269acb599" x="60.013281" y="340.782639" style="stroke: #000000; stroke-width: 0.8"/>
      </g>
     </g>
     <g id="text_24">
      <text style="font-size: 10px; font-family: 'DejaVu Sans', 'Bitstream Vera Sans', 'Computer Modern Sans Serif', 'Lucida Grande', 'Verdana', 'Geneva', 'Lucid', 'Arial', 'Helvetica', 'Avant Garde', sans-serif; text-anchor: end" x="53.013281" y="344.581467" transform="rotate(-0 53.013281 344.581467)">1000</text>
     </g>
    </g>
    <g id="ytick_11">
     <g id="line2d_33">
      <path d="M 60.013281 301.672672
L 613.19952 301.672672
" clip-path="url(#p4816662ee4)" style="fill: none; stroke: #b0b0b0; stroke-opacity: 0.2; stroke-width: 0.8; stroke-linecap: square"/>
     </g>
     <g id="line2d_34">
      <g>
       <use xlink:href="#mc269acb599" x="60.013281" y="301.672672" style="stroke: #000000; stroke-width: 0.8"/>
      </g>
     </g>
     <g id="text_25">
      <text style="font-size: 10px; font-family: 'DejaVu Sans', 'Bitstream Vera Sans', 'Computer Modern Sans Serif', 'Lucida Grande', 'Verdana', 'Geneva', 'Lucid', 'Arial', 'Helvetica', 'Avant Garde', sans-serif; text-anchor: end" x="53.013281" y="305.471501" transform="rotate(-0 53.013281 305.471501)">1500</text>
     </g>
    </g>
    <g id="text_26">
     <text style="font-size: 10px; font-family: 'DejaVu Sans', 'Bitstream Vera Sans', 'Computer Modern Sans Serif', 'Lucida Grande', 'Verdana', 'Geneva', 'Lucid', 'Arial', 'Helvetica', 'Avant Garde', sans-serif; text-anchor: middle" x="21.160938" y="345.46418" transform="rotate(-90 21.160938 345.46418)">Messages / second</text>
    </g>
   </g>
   <g id="line2d_35">
    <path d="M -1 302.233648
L 4.694531 302.248371
L 9.304416 301.822855
L 13.914302 301.8604
L 27.743958 301.650771
L 36.963728 301.738377
L 46.183499 301.660157
L 50.793384 301.660157
L 55.40327 301.112618
L 60.013155 301.125133
L 64.62304 301.591324
L 73.842811 301.556907
L 78.452696 301.6539
L 106.112008 301.660157
L 110.721893 301.772794
L 129.161435 301.644513
L 133.77132 301.922976
L 142.991091 301.948007
L 147.600976 301.682059
L 156.820747 301.83537
L 175.260288 301.622612
L 189.089944 301.619483
L 193.699829 301.547521
L 202.9196 301.73212
L 207.529485 301.594453
L 239.798682 301.688316
L 244.408568 301.754021
L 249.018453 301.572551
L 258.238224 301.525619
L 272.06788 301.922976
L 290.507421 301.691445
L 304.337077 301.647642
L 313.556848 301.635127
L 318.166733 301.60071
L 322.776618 301.772794
L 327.386504 301.772794
L 331.996389 301.550649
L 341.21616 301.857272
L 345.826045 301.682059
L 359.655701 301.616354
L 368.875471 301.60071
L 373.485357 301.60071
L 378.095242 301.719604
L 387.315013 301.538134
L 396.534783 301.49746
L 405.754554 301.872916
L 414.974325 301.797824
L 419.58421 301.797824
L 424.194095 301.685188
L 428.803981 302.048128
L 433.413866 301.960522
L 438.023751 301.635127
L 451.853407 301.60071
L 456.463293 301.438013
L 479.512719 301.672672
L 484.122605 301.328505
L 493.342375 301.406725
L 497.952261 301.744635
L 502.562146 301.876044
L 511.781917 301.885431
L 516.391802 301.647642
L 525.611572 301.713347
L 530.221458 301.879173
L 539.441228 301.93862
L 544.051114 301.725862
L 548.660999 301.910461
L 557.88077 301.91359
L 562.490655 301.447399
L 571.710426 301.788438
L 576.320311 301.675801
L 585.540082 301.660157
L 590.149967 301.488073
L 594.759852 301.441141
L 599.369738 301.70396
L 603.979623 301.70396
L 608.589508 301.547521
L 613.199394 301.528748
L 617.809279 304.519878
L 621.39952 312.897423
L 621.39952 312.897423
" clip-path="url(#p4816662ee4)" style="fill: none; stroke: #21618c; stroke-width: 1.4; stroke-linecap: square"/>
   </g>
   <g id="line2d_36">
    <path d="M -1 319.685158
L 4.694531 319.606939
L 9.304416 318.746519
L 13.914302 318.746519
L 18.524187 318.924861
L 27.743958 318.937376
L 32.353843 318.746519
L 36.963728 318.746519
L 41.573614 318.974921
L 50.793384 318.974921
L 55.40327 318.734004
L 60.013155 318.734004
L 64.62304 319.741477
L 73.842811 319.741477
L 78.452696 320.054357
L 83.062581 320.054357
L 87.672467 320.289016
L 96.892237 320.367236
L 101.502123 320.04497
L 106.112008 320.04497
L 110.721893 319.88853
L 119.941664 319.88853
L 124.551549 319.741477
L 129.161435 319.741477
L 133.77132 320.576866
L 142.991091 320.576866
L 147.600976 320.420426
L 152.210861 320.420426
L 156.820747 321.046185
L 184.480059 320.967965
L 189.089944 320.889745
L 193.699829 319.741477
L 198.309715 319.741477
L 202.9196 320.188895
L 212.139371 320.154478
L 216.749256 320.310918
L 221.359141 320.310918
L 225.969026 320.004296
L 244.408568 320.082516
L 249.018453 320.883488
L 253.628338 320.883488
L 258.238224 321.143178
L 262.848109 322.607455
L 267.457994 322.607455
L 272.06788 325.30135
L 276.677765 321.012499
L 281.28765 308.91181
L 285.897536 305.501421
L 290.507421 301.364838
L 295.117306 298.972623
L 299.727192 294.818033
L 304.337077 296.353134
L 308.946962 293.270573
L 313.556848 289.629331
L 318.166733 288.484359
L 327.386504 281.850949
L 331.996389 279.476985
L 336.606274 278.929445
L 341.21616 285.330964
L 345.826045 284.886675
L 350.43593 289.99913
L 359.655701 289.620545
L 378.095242 290.086736
L 382.705127 290.046062
L 387.315013 290.227532
L 391.924898 290.227532
L 401.144669 289.905266
L 410.364439 290.027289
L 419.58421 290.44029
L 424.194095 290.365199
L 428.803981 291.760643
L 433.413866 291.776287
L 438.023751 293.300011
L 442.633637 293.309397
L 447.243522 293.512769
L 451.853407 294.973918
L 456.463293 294.592204
L 461.073178 296.050224
L 465.683063 296.19102
L 470.292949 296.025193
L 474.902834 297.314258
L 479.512719 297.395607
L 484.122605 297.661554
L 488.73249 297.611494
L 493.342375 297.092113
L 497.952261 297.148432
L 502.562146 297.442539
L 507.172031 297.561433
L 511.781917 297.871184
L 516.391802 297.714744
L 530.221458 297.739774
L 534.831343 297.605236
L 539.441228 297.636524
L 544.051114 297.539531
L 548.660999 298.01198
L 553.270884 297.955661
L 562.490655 297.555175
L 567.10054 297.476955
L 590.149967 297.814865
L 594.759852 297.411251
L 599.369738 297.298614
L 603.979623 297.326773
L 608.589508 297.139045
L 613.199394 297.157818
L 617.809279 299.739076
L 621.39952 301.313216
L 621.39952 301.313216
" clip-path="url(#p4816662ee4)" style="fill: none; stroke: #cc641c; stroke-width: 1.4; stroke-linecap: square"/>
   </g>
   <g id="line2d_37">
    <path d="M 60.013281 301.672672
L 613.19952 301.672672
" clip-path="url(#p4816662ee4)" style="fill: none; stroke-dasharray: 1,1.65; stroke-dashoffset: 0; stroke: #777777"/>
   </g>
   <g id="line2d_38">
    <path d="M 198.309841 419.002571
L 198.309841 271.925789
" clip-path="url(#p4816662ee4)" style="fill: none; stroke-dasharray: 3.7,1.6; stroke-dashoffset: 0; stroke: #444444"/>
   </g>
   <g id="patch_6">
    <path d="M 60.013281 419.002571
L 60.013281 271.925789
" style="fill: none; stroke: #000000; stroke-width: 0.8; stroke-linejoin: miter; stroke-linecap: square"/>
   </g>
   <g id="patch_7">
    <path d="M 60.013281 419.002571
L 613.19952 419.002571
" style="fill: none; stroke: #000000; stroke-width: 0.8; stroke-linejoin: miter; stroke-linecap: square"/>
   </g>
   <g id="text_27">
    <text style="font-size: 12px; font-family: 'DejaVu Sans', 'Bitstream Vera Sans', 'Computer Modern Sans Serif', 'Lucida Grande', 'Verdana', 'Geneva', 'Lucid', 'Arial', 'Helvetica', 'Avant Garde', sans-serif; text-anchor: middle" x="336.606401" y="265.925789" transform="rotate(-0 336.606401 265.925789)">Throughput · rolling 30-second rates</text>
   </g>
   <g id="legend_1">
    <g id="patch_8">
     <path d="M 65.613281 415.002571
L 188.203281 415.002571
Q 189.803281 415.002571 189.803281 413.402571
L 189.803281 378.200696
Q 189.803281 376.600696 188.203281 376.600696
L 65.613281 376.600696
Q 64.013281 376.600696 64.013281 378.200696
L 64.013281 413.402571
Q 64.013281 415.002571 65.613281 415.002571
z
" style="fill: #ffffff; opacity: 0.8; stroke: #cccccc; stroke-linejoin: miter"/>
    </g>
    <g id="line2d_39">
     <path d="M 67.213281 383.079446
L 75.213281 383.079446
L 83.213281 383.079446
" style="fill: none; stroke: #21618c; stroke-width: 1.4; stroke-linecap: square"/>
    </g>
    <g id="text_28">
     <text style="font-size: 8px; font-family: 'DejaVu Sans', 'Bitstream Vera Sans', 'Computer Modern Sans Serif', 'Lucida Grande', 'Verdana', 'Geneva', 'Lucid', 'Arial', 'Helvetica', 'Avant Garde', sans-serif; text-anchor: start" x="89.613281" y="385.879446" transform="rotate(-0 89.613281 385.879446)">Acknowledged attempts</text>
    </g>
    <g id="line2d_40">
     <path d="M 67.213281 395.080071
L 75.213281 395.080071
L 83.213281 395.080071
" style="fill: none; stroke: #cc641c; stroke-width: 1.4; stroke-linecap: square"/>
    </g>
    <g id="text_29">
     <text style="font-size: 8px; font-family: 'DejaVu Sans', 'Bitstream Vera Sans', 'Computer Modern Sans Serif', 'Lucida Grande', 'Verdana', 'Geneva', 'Lucid', 'Arial', 'Helvetica', 'Avant Garde', sans-serif; text-anchor: start" x="89.613281" y="397.880071" transform="rotate(-0 89.613281 397.880071)">Completed attempts</text>
    </g>
    <g id="line2d_41">
     <path d="M 67.213281 407.080696
L 75.213281 407.080696
L 83.213281 407.080696
" style="fill: none; stroke-dasharray: 1,1.65; stroke-dashoffset: 0; stroke: #777777"/>
    </g>
    <g id="text_30">
     <text style="font-size: 8px; font-family: 'DejaVu Sans', 'Bitstream Vera Sans', 'Computer Modern Sans Serif', 'Lucida Grande', 'Verdana', 'Geneva', 'Lucid', 'Arial', 'Helvetica', 'Avant Garde', sans-serif; text-anchor: start" x="89.613281" y="409.880696" transform="rotate(-0 89.613281 409.880696)">Configured target</text>
    </g>
   </g>
  </g>
  <g id="axes_3">
   <g id="patch_9">
    <path d="M 60.013281 618.198739
L 613.19952 618.198739
L 613.19952 471.121957
L 60.013281 471.121957
z
" style="fill: #ffffff"/>
   </g>
   <g id="matplotlib.axis_5">
    <g id="xtick_11">
     <g id="line2d_42">
      <g>
       <use xlink:href="#m605a745066" x="60.013281" y="618.198739" style="stroke: #000000; stroke-width: 0.8"/>
      </g>
     </g>
     <g id="text_31">
      <text style="font-size: 10px; font-family: 'DejaVu Sans', 'Bitstream Vera Sans', 'Computer Modern Sans Serif', 'Lucida Grande', 'Verdana', 'Geneva', 'Lucid', 'Arial', 'Helvetica', 'Avant Garde', sans-serif; text-anchor: middle" x="60.013281" y="632.796395" transform="rotate(-0 60.013281 632.796395)">0</text>
     </g>
    </g>
    <g id="xtick_12">
     <g id="line2d_43">
      <g>
       <use xlink:href="#m605a745066" x="175.260414" y="618.198739" style="stroke: #000000; stroke-width: 0.8"/>
      </g>
     </g>
     <g id="text_32">
      <text style="font-size: 10px; font-family: 'DejaVu Sans', 'Bitstream Vera Sans', 'Computer Modern Sans Serif', 'Lucida Grande', 'Verdana', 'Geneva', 'Lucid', 'Arial', 'Helvetica', 'Avant Garde', sans-serif; text-anchor: middle" x="175.260414" y="632.796395" transform="rotate(-0 175.260414 632.796395)">50</text>
     </g>
    </g>
    <g id="xtick_13">
     <g id="line2d_44">
      <g>
       <use xlink:href="#m605a745066" x="290.507547" y="618.198739" style="stroke: #000000; stroke-width: 0.8"/>
      </g>
     </g>
     <g id="text_33">
      <text style="font-size: 10px; font-family: 'DejaVu Sans', 'Bitstream Vera Sans', 'Computer Modern Sans Serif', 'Lucida Grande', 'Verdana', 'Geneva', 'Lucid', 'Arial', 'Helvetica', 'Avant Garde', sans-serif; text-anchor: middle" x="290.507547" y="632.796395" transform="rotate(-0 290.507547 632.796395)">100</text>
     </g>
    </g>
    <g id="xtick_14">
     <g id="line2d_45">
      <g>
       <use xlink:href="#m605a745066" x="405.75468" y="618.198739" style="stroke: #000000; stroke-width: 0.8"/>
      </g>
     </g>
     <g id="text_34">
      <text style="font-size: 10px; font-family: 'DejaVu Sans', 'Bitstream Vera Sans', 'Computer Modern Sans Serif', 'Lucida Grande', 'Verdana', 'Geneva', 'Lucid', 'Arial', 'Helvetica', 'Avant Garde', sans-serif; text-anchor: middle" x="405.75468" y="632.796395" transform="rotate(-0 405.75468 632.796395)">150</text>
     </g>
    </g>
    <g id="xtick_15">
     <g id="line2d_46">
      <g>
       <use xlink:href="#m605a745066" x="521.001814" y="618.198739" style="stroke: #000000; stroke-width: 0.8"/>
      </g>
     </g>
     <g id="text_35">
      <text style="font-size: 10px; font-family: 'DejaVu Sans', 'Bitstream Vera Sans', 'Computer Modern Sans Serif', 'Lucida Grande', 'Verdana', 'Geneva', 'Lucid', 'Arial', 'Helvetica', 'Avant Garde', sans-serif; text-anchor: middle" x="521.001814" y="632.796395" transform="rotate(-0 521.001814 632.796395)">200</text>
     </g>
    </g>
    <g id="text_36">
     <text style="font-size: 10px; font-family: 'DejaVu Sans', 'Bitstream Vera Sans', 'Computer Modern Sans Serif', 'Lucida Grande', 'Verdana', 'Geneva', 'Lucid', 'Arial', 'Helvetica', 'Avant Garde', sans-serif; text-anchor: middle" x="336.606401" y="646.797176" transform="rotate(-0 336.606401 646.797176)">Seconds from evaluation start</text>
    </g>
   </g>
   <g id="matplotlib.axis_6">
    <g id="ytick_12">
     <g id="line2d_47">
      <path d="M 60.013281 618.198739
L 613.19952 618.198739
" clip-path="url(#pdd1f011fe6)" style="fill: none; stroke: #b0b0b0; stroke-opacity: 0.2; stroke-width: 0.8; stroke-linecap: square"/>
     </g>
     <g id="line2d_48">
      <g>
       <use xlink:href="#mc269acb599" x="60.013281" y="618.198739" style="stroke: #000000; stroke-width: 0.8"/>
      </g>
     </g>
     <g id="text_37">
      <text style="font-size: 10px; font-family: 'DejaVu Sans', 'Bitstream Vera Sans', 'Computer Modern Sans Serif', 'Lucida Grande', 'Verdana', 'Geneva', 'Lucid', 'Arial', 'Helvetica', 'Avant Garde', sans-serif; text-anchor: end" x="53.013281" y="621.997567" transform="rotate(-0 53.013281 621.997567)">0</text>
     </g>
    </g>
    <g id="ytick_13">
     <g id="line2d_49">
      <path d="M 60.013281 593.096028
L 613.19952 593.096028
" clip-path="url(#pdd1f011fe6)" style="fill: none; stroke: #b0b0b0; stroke-opacity: 0.2; stroke-width: 0.8; stroke-linecap: square"/>
     </g>
     <g id="line2d_50">
      <g>
       <use xlink:href="#mc269acb599" x="60.013281" y="593.096028" style="stroke: #000000; stroke-width: 0.8"/>
      </g>
     </g>
     <g id="text_38">
      <text style="font-size: 10px; font-family: 'DejaVu Sans', 'Bitstream Vera Sans', 'Computer Modern Sans Serif', 'Lucida Grande', 'Verdana', 'Geneva', 'Lucid', 'Arial', 'Helvetica', 'Avant Garde', sans-serif; text-anchor: end" x="53.013281" y="596.894856" transform="rotate(-0 53.013281 596.894856)">20</text>
     </g>
    </g>
    <g id="ytick_14">
     <g id="line2d_51">
      <path d="M 60.013281 567.993317
L 613.19952 567.993317
" clip-path="url(#pdd1f011fe6)" style="fill: none; stroke: #b0b0b0; stroke-opacity: 0.2; stroke-width: 0.8; stroke-linecap: square"/>
     </g>
     <g id="line2d_52">
      <g>
       <use xlink:href="#mc269acb599" x="60.013281" y="567.993317" style="stroke: #000000; stroke-width: 0.8"/>
      </g>
     </g>
     <g id="text_39">
      <text style="font-size: 10px; font-family: 'DejaVu Sans', 'Bitstream Vera Sans', 'Computer Modern Sans Serif', 'Lucida Grande', 'Verdana', 'Geneva', 'Lucid', 'Arial', 'Helvetica', 'Avant Garde', sans-serif; text-anchor: end" x="53.013281" y="571.792146" transform="rotate(-0 53.013281 571.792146)">40</text>
     </g>
    </g>
    <g id="ytick_15">
     <g id="line2d_53">
      <path d="M 60.013281 542.890607
L 613.19952 542.890607
" clip-path="url(#pdd1f011fe6)" style="fill: none; stroke: #b0b0b0; stroke-opacity: 0.2; stroke-width: 0.8; stroke-linecap: square"/>
     </g>
     <g id="line2d_54">
      <g>
       <use xlink:href="#mc269acb599" x="60.013281" y="542.890607" style="stroke: #000000; stroke-width: 0.8"/>
      </g>
     </g>
     <g id="text_40">
      <text style="font-size: 10px; font-family: 'DejaVu Sans', 'Bitstream Vera Sans', 'Computer Modern Sans Serif', 'Lucida Grande', 'Verdana', 'Geneva', 'Lucid', 'Arial', 'Helvetica', 'Avant Garde', sans-serif; text-anchor: end" x="53.013281" y="546.689435" transform="rotate(-0 53.013281 546.689435)">60</text>
     </g>
    </g>
    <g id="ytick_16">
     <g id="line2d_55">
      <path d="M 60.013281 517.787896
L 613.19952 517.787896
" clip-path="url(#pdd1f011fe6)" style="fill: none; stroke: #b0b0b0; stroke-opacity: 0.2; stroke-width: 0.8; stroke-linecap: square"/>
     </g>
     <g id="line2d_56">
      <g>
       <use xlink:href="#mc269acb599" x="60.013281" y="517.787896" style="stroke: #000000; stroke-width: 0.8"/>
      </g>
     </g>
     <g id="text_41">
      <text style="font-size: 10px; font-family: 'DejaVu Sans', 'Bitstream Vera Sans', 'Computer Modern Sans Serif', 'Lucida Grande', 'Verdana', 'Geneva', 'Lucid', 'Arial', 'Helvetica', 'Avant Garde', sans-serif; text-anchor: end" x="53.013281" y="521.586724" transform="rotate(-0 53.013281 521.586724)">80</text>
     </g>
    </g>
    <g id="ytick_17">
     <g id="line2d_57">
      <path d="M 60.013281 492.685185
L 613.19952 492.685185
" clip-path="url(#pdd1f011fe6)" style="fill: none; stroke: #b0b0b0; stroke-opacity: 0.2; stroke-width: 0.8; stroke-linecap: square"/>
     </g>
     <g id="line2d_58">
      <g>
       <use xlink:href="#mc269acb599" x="60.013281" y="492.685185" style="stroke: #000000; stroke-width: 0.8"/>
      </g>
     </g>
     <g id="text_42">
      <text style="font-size: 10px; font-family: 'DejaVu Sans', 'Bitstream Vera Sans', 'Computer Modern Sans Serif', 'Lucida Grande', 'Verdana', 'Geneva', 'Lucid', 'Arial', 'Helvetica', 'Avant Garde', sans-serif; text-anchor: end" x="53.013281" y="496.484013" transform="rotate(-0 53.013281 496.484013)">100</text>
     </g>
    </g>
    <g id="text_43">
     <text style="font-size: 10px; font-family: 'DejaVu Sans', 'Bitstream Vera Sans', 'Computer Modern Sans Serif', 'Lucida Grande', 'Verdana', 'Geneva', 'Lucid', 'Arial', 'Helvetica', 'Avant Garde', sans-serif; text-anchor: middle" x="27.523438" y="544.660348" transform="rotate(-90 27.523438 544.660348)">CPU %</text>
    </g>
   </g>
   <g id="line2d_59">
    <path d="M -1 495.571997
L 4.694531 495.571997
L 9.304416 478.125613
L 13.914302 478.125613
L 18.524187 493.940321
L 27.743958 493.940321
L 32.353843 489.547347
L 36.963728 489.547347
L 41.573614 482.895128
L 50.793384 482.895128
L 55.40327 501.345621
L 60.013155 501.345621
L 64.62304 493.56378
L 73.842811 493.56378
L 78.452696 489.170806
L 83.062581 489.170806
L 87.672467 487.53913
L 96.892237 487.53913
L 101.502123 493.689294
L 106.112008 493.689294
L 110.721893 486.786048
L 119.941664 486.786048
L 124.551549 492.810699
L 129.161435 492.810699
L 133.77132 496.074051
L 142.991091 496.074051
L 147.600976 490.049401
L 152.210861 490.049401
L 156.820747 494.442375
L 166.040517 494.442375
L 170.650403 495.571997
L 175.260288 495.571997
L 179.870173 484.777831
L 189.089944 484.777831
L 193.699829 485.78194
L 198.309715 485.78194
L 202.9196 498.333295
L 212.139371 498.333295
L 216.749256 491.681077
L 221.359141 491.681077
L 225.969026 482.644101
L 235.188797 482.644101
L 239.798682 491.555563
L 244.408568 491.555563
L 249.018453 488.417725
L 258.238224 488.417725
L 262.848109 496.199565
L 267.457994 496.199565
L 272.06788 494.442375
L 281.28765 494.442375
L 285.897536 501.847675
L 290.507421 501.847675
L 295.117306 497.580214
L 304.337077 497.580214
L 308.946962 497.705727
L 313.556848 497.705727
L 318.166733 509.252974
L 327.386504 509.252974
L 331.996389 500.467026
L 336.606274 500.467026
L 341.21616 495.195456
L 350.43593 495.195456
L 355.045816 501.847675
L 359.655701 501.847675
L 364.265586 505.111027
L 373.485357 505.111027
L 378.095242 501.973188
L 382.705127 501.973188
L 387.315013 503.981405
L 396.534783 503.981405
L 401.144669 503.228324
L 405.754554 503.228324
L 410.364439 508.876434
L 419.58421 508.876434
L 424.194095 507.621298
L 428.803981 507.621298
L 433.413866 479.004208
L 442.633637 479.004208
L 447.243522 489.296319
L 451.853407 489.296319
L 456.463293 500.718053
L 465.683063 500.718053
L 470.292949 503.10281
L 474.902834 503.10281
L 479.512719 513.520435
L 488.73249 513.520435
L 493.342375 496.074051
L 497.952261 496.074051
L 502.562146 503.855892
L 511.781917 503.855892
L 516.391802 504.357946
L 521.001687 504.357946
L 525.611572 502.349729
L 534.831343 502.349729
L 539.441228 498.207782
L 544.051114 498.207782
L 548.660999 503.10281
L 557.88077 503.10281
L 562.490655 498.458809
L 567.10054 498.458809
L 571.710426 504.985514
L 580.930196 504.985514
L 585.540082 503.981405
L 590.149967 503.981405
L 594.759852 496.701619
L 603.979623 496.701619
L 608.589508 502.977297
L 613.199394 502.977297
L 617.809279 504.734486
L 621.39952 504.734486
L 621.39952 504.734486
" clip-path="url(#pdd1f011fe6)" style="fill: none; stroke: #21618c; stroke-width: 1.4; stroke-linecap: square"/>
   </g>
   <g id="line2d_60">
    <path d="M -1 485.907453
L 4.694531 485.907453
L 9.304416 483.271669
L 13.914302 483.271669
L 18.524187 484.150264
L 27.743958 484.150264
L 32.353843 483.397182
L 36.963728 483.397182
L 41.573614 485.907453
L 50.793384 485.907453
L 55.40327 484.150264
L 60.013155 484.150264
L 64.62304 485.028859
L 73.842811 485.028859
L 78.452696 487.288103
L 83.062581 487.288103
L 87.672467 484.401291
L 96.892237 484.401291
L 101.502123 486.786048
L 106.112008 486.786048
L 110.721893 485.405399
L 119.941664 485.405399
L 124.551549 485.028859
L 129.161435 485.028859
L 133.77132 488.041184
L 142.991091 488.041184
L 147.600976 483.522696
L 152.210861 483.522696
L 156.820747 487.037075
L 166.040517 487.037075
L 170.650403 485.154372
L 175.260288 485.154372
L 179.870173 484.275777
L 189.089944 484.275777
L 193.699829 485.656426
L 198.309715 485.656426
L 202.9196 486.409508
L 212.139371 486.409508
L 216.749256 485.154372
L 221.359141 485.154372
L 225.969026 485.907453
L 235.188797 485.907453
L 239.798682 484.777831
L 244.408568 484.777831
L 249.018453 486.535021
L 258.238224 486.535021
L 262.848109 504.106919
L 267.457994 504.106919
L 272.06788 497.4547
L 281.28765 497.4547
L 285.897536 487.037075
L 290.507421 487.037075
L 295.117306 484.903345
L 304.337077 484.903345
L 308.946962 486.535021
L 313.556848 486.535021
L 318.166733 484.652318
L 327.386504 484.652318
L 331.996389 486.535021
L 336.606274 486.535021
L 341.21616 486.409508
L 350.43593 486.409508
L 355.045816 484.401291
L 359.655701 484.401291
L 364.265586 486.409508
L 373.485357 486.409508
L 378.095242 484.777831
L 382.705127 484.777831
L 387.315013 485.78194
L 396.534783 485.78194
L 401.144669 486.158481
L 405.754554 486.158481
L 410.364439 485.530913
L 419.58421 485.530913
L 424.194095 485.78194
L 428.803981 485.78194
L 433.413866 485.028859
L 442.633637 485.028859
L 447.243522 488.417725
L 451.853407 488.417725
L 456.463293 487.162589
L 465.683063 487.162589
L 470.292949 485.028859
L 474.902834 485.028859
L 479.512719 487.037075
L 488.73249 487.037075
L 493.342375 484.777831
L 497.952261 484.777831
L 502.562146 485.279886
L 511.781917 485.279886
L 516.391802 485.405399
L 521.001687 485.405399
L 525.611572 485.154372
L 534.831343 485.154372
L 539.441228 485.405399
L 544.051114 485.405399
L 548.660999 486.786048
L 557.88077 486.786048
L 562.490655 487.91567
L 567.10054 487.91567
L 571.710426 486.032967
L 580.930196 486.032967
L 585.540082 485.405399
L 590.149967 485.405399
L 594.759852 486.911562
L 603.979623 486.911562
L 608.589508 483.773723
L 613.199394 483.773723
L 617.809279 486.283994
L 621.39952 486.283994
L 621.39952 486.283994
" clip-path="url(#pdd1f011fe6)" style="fill: none; stroke: #cc641c; stroke-width: 1.4; stroke-linecap: square"/>
   </g>
   <g id="line2d_61">
    <path d="M -1 490.174914
L 0.084646 490.174914
L 4.694531 489.296319
L 13.914302 489.296319
L 18.524187 490.676968
L 23.134072 490.676968
L 27.743958 491.179023
L 36.963728 491.179023
L 41.573614 491.053509
L 46.183499 491.053509
L 50.793384 490.425941
L 60.013155 490.425941
L 64.62304 491.681077
L 69.232926 491.681077
L 73.842811 490.425941
L 83.062581 490.425941
L 87.672467 489.923887
L 92.282352 489.923887
L 96.892237 490.300428
L 106.112008 490.300428
L 110.721893 489.798374
L 115.331779 489.798374
L 119.941664 490.551455
L 129.161435 490.551455
L 133.77132 491.555563
L 138.381205 491.555563
L 142.991091 490.300428
L 152.210861 490.300428
L 156.820747 490.927996
L 161.430632 490.927996
L 166.040517 490.802482
L 175.260288 490.802482
L 179.870173 491.179023
L 184.480059 491.179023
L 189.089944 490.425941
L 198.309715 490.425941
L 202.9196 490.049401
L 207.529485 490.049401
L 212.139371 490.676968
L 221.359141 490.676968
L 225.969026 491.43005
L 230.578912 491.43005
L 235.188797 490.551455
L 253.628338 490.551455
L 258.238224 490.300428
L 267.457994 490.300428
L 272.06788 518.917518
L 276.677765 518.917518
L 281.28765 489.923887
L 290.507421 489.923887
L 295.117306 490.300428
L 299.727192 490.300428
L 304.337077 489.547347
L 313.556848 489.547347
L 318.166733 490.551455
L 322.776618 490.551455
L 327.386504 490.676968
L 336.606274 490.676968
L 341.21616 490.802482
L 345.826045 490.802482
L 350.43593 490.676968
L 368.875471 490.676968
L 373.485357 490.802482
L 382.705127 490.802482
L 387.315013 490.174914
L 405.754554 490.174914
L 410.364439 489.798374
L 414.974325 489.798374
L 419.58421 490.802482
L 428.803981 490.802482
L 433.413866 490.927996
L 438.023751 490.927996
L 442.633637 489.547347
L 451.853407 489.547347
L 456.463293 490.300428
L 474.902834 490.300428
L 479.512719 490.174914
L 484.122605 490.174914
L 488.73249 490.425941
L 497.952261 490.425941
L 502.562146 490.300428
L 521.001687 490.300428
L 525.611572 490.551455
L 530.221458 490.551455
L 534.831343 490.676968
L 544.051114 490.676968
L 548.660999 490.049401
L 553.270884 490.049401
L 557.88077 489.67286
L 567.10054 489.67286
L 571.710426 489.923887
L 576.320311 489.923887
L 580.930196 491.053509
L 590.149967 491.053509
L 594.759852 490.676968
L 599.369738 490.676968
L 603.979623 489.923887
L 613.199394 489.923887
L 617.809279 492.057618
L 621.39952 492.057618
L 621.39952 492.057618
" clip-path="url(#pdd1f011fe6)" style="fill: none; stroke: #3d7b52; stroke-width: 1.4; stroke-linecap: square"/>
   </g>
   <g id="line2d_62">
    <path clip-path="url(#pdd1f011fe6)" style="fill: none; stroke: #8b5c9c; stroke-width: 1.4; stroke-linecap: square"/>
   </g>
   <g id="line2d_63">
    <path d="M 258.238224 618.198739
L 267.457994 618.198739
L 272.06788 507.495785
L 276.677765 507.495785
L 281.28765 487.91567
L 290.507421 487.91567
L 295.117306 487.790157
L 299.727192 487.790157
L 304.337077 572.637319
L 313.556848 572.637319
L 318.166733 569.750507
L 322.776618 569.750507
L 327.386504 573.641427
L 336.606274 573.641427
L 341.21616 574.520022
L 345.826045 574.520022
L 350.43593 570.001534
L 359.655701 570.001534
L 364.265586 574.268995
L 368.875471 574.268995
L 373.485357 575.022076
L 382.705127 575.022076
L 387.315013 574.394509
L 391.924898 574.394509
L 396.534783 566.738182
L 405.754554 566.738182
L 410.364439 572.386292
L 414.974325 572.386292
L 419.58421 574.268995
L 428.803981 574.268995
L 433.413866 570.754616
L 438.023751 570.754616
L 442.633637 571.382183
L 451.853407 571.382183
L 456.463293 570.252561
L 461.073178 570.252561
L 465.683063 573.892454
L 474.902834 573.892454
L 479.512719 574.645536
L 484.122605 574.645536
L 488.73249 573.264887
L 497.952261 573.264887
L 502.562146 575.022076
L 507.172031 575.022076
L 511.781917 574.143482
L 521.001687 574.143482
L 525.611572 572.637319
L 530.221458 572.637319
L 534.831343 572.135265
L 544.051114 572.135265
L 548.660999 571.884238
L 553.270884 571.884238
L 557.88077 575.900671
L 567.10054 575.900671
L 571.710426 574.143482
L 576.320311 574.143482
L 580.930196 570.252561
L 590.149967 570.252561
L 594.759852 570.503588
L 599.369738 570.503588
L 603.979623 574.268995
L 613.199394 574.268995
L 617.809279 566.110614
L 621.39952 566.110614
L 621.39952 566.110614
" clip-path="url(#pdd1f011fe6)" style="fill: none; stroke: #bd4c67; stroke-width: 1.4; stroke-linecap: square"/>
   </g>
   <g id="line2d_64">
    <path d="M 267.457994 545.526391
L 272.06788 545.526391
L 276.677765 506.115136
L 285.897536 506.115136
L 290.507421 500.843566
L 295.117306 500.843566
L 299.727192 490.676968
L 308.946962 490.676968
L 313.556848 490.551455
L 318.166733 490.551455
L 322.776618 490.300428
L 331.996389 490.300428
L 336.606274 490.802482
L 341.21616 490.802482
L 345.826045 490.300428
L 355.045816 490.300428
L 359.655701 490.676968
L 364.265586 490.676968
L 368.875471 490.049401
L 378.095242 490.049401
L 382.705127 490.425941
L 387.315013 490.425941
L 391.924898 491.681077
L 401.144669 491.681077
L 405.754554 491.053509
L 410.364439 491.053509
L 414.974325 490.174914
L 424.194095 490.174914
L 428.803981 528.080007
L 433.413866 528.080007
L 438.023751 532.096441
L 447.243522 532.096441
L 451.853407 530.966819
L 456.463293 530.966819
L 461.073178 526.824872
L 470.292949 526.824872
L 474.902834 537.36801
L 479.512719 537.36801
L 484.122605 529.711684
L 493.342375 529.711684
L 497.952261 536.740443
L 502.562146 536.740443
L 507.172031 535.861848
L 516.391802 535.861848
L 521.001687 525.820763
L 525.611572 525.820763
L 530.221458 533.226063
L 539.441228 533.226063
L 544.051114 533.979144
L 548.660999 533.979144
L 553.270884 534.355685
L 562.490655 534.355685
L 567.10054 531.594387
L 571.710426 531.594387
L 576.320311 537.116983
L 585.540082 537.116983
L 590.149967 535.610821
L 594.759852 535.610821
L 599.369738 536.865956
L 608.589508 536.865956
L 613.199394 540.254822
L 617.809279 540.254822
L 621.39952 596.657526
L 621.39952 596.657526
" clip-path="url(#pdd1f011fe6)" style="fill: none; stroke: #817143; stroke-width: 1.4; stroke-linecap: square"/>
   </g>
   <g id="line2d_65">
    <path d="M 198.309841 618.198739
L 198.309841 471.121957
" clip-path="url(#pdd1f011fe6)" style="fill: none; stroke-dasharray: 3.7,1.6; stroke-dashoffset: 0; stroke: #444444"/>
   </g>
   <g id="patch_10">
    <path d="M 60.013281 618.198739
L 60.013281 471.121957
" style="fill: none; stroke: #000000; stroke-width: 0.8; stroke-linejoin: miter; stroke-linecap: square"/>
   </g>
   <g id="patch_11">
    <path d="M 60.013281 618.198739
L 613.19952 618.198739
" style="fill: none; stroke: #000000; stroke-width: 0.8; stroke-linejoin: miter; stroke-linecap: square"/>
   </g>
   <g id="text_44">
    <text style="font-size: 12px; font-family: 'DejaVu Sans', 'Bitstream Vera Sans', 'Computer Modern Sans Serif', 'Lucida Grande', 'Verdana', 'Geneva', 'Lucid', 'Arial', 'Helvetica', 'Avant Garde', sans-serif; text-anchor: middle" x="336.606401" y="465.121957" transform="rotate(-0 336.606401 465.121957)">Consumer process CPU · 100% is one core</text>
   </g>
   <g id="legend_2">
    <g id="patch_12">
     <path d="M 357.452332 614.698739
L 608.29952 614.698739
Q 609.69952 614.698739 609.69952 613.298739
L 609.69952 592.997645
Q 609.69952 591.597645 608.29952 591.597645
L 357.452332 591.597645
Q 356.052332 591.597645 356.052332 592.997645
L 356.052332 613.298739
Q 356.052332 614.698739 357.452332 614.698739
z
" style="fill: #ffffff; opacity: 0.8; stroke: #cccccc; stroke-linejoin: miter"/>
    </g>
    <g id="line2d_66">
     <path d="M 358.852332 597.266551
L 365.852332 597.266551
L 372.852332 597.266551
" style="fill: none; stroke: #21618c; stroke-width: 1.4; stroke-linecap: square"/>
    </g>
    <g id="text_45">
     <text style="font-size: 7px; font-family: 'DejaVu Sans', 'Bitstream Vera Sans', 'Computer Modern Sans Serif', 'Lucida Grande', 'Verdana', 'Geneva', 'Lucid', 'Arial', 'Helvetica', 'Avant Garde', sans-serif; text-anchor: start" x="378.452332" y="599.716551" transform="rotate(-0 378.452332 599.716551)">consumer-sts-0</text>
    </g>
    <g id="line2d_67">
     <path d="M 358.852332 607.767098
L 365.852332 607.767098
L 372.852332 607.767098
" style="fill: none; stroke: #cc641c; stroke-width: 1.4; stroke-linecap: square"/>
    </g>
    <g id="text_46">
     <text style="font-size: 7px; font-family: 'DejaVu Sans', 'Bitstream Vera Sans', 'Computer Modern Sans Serif', 'Lucida Grande', 'Verdana', 'Geneva', 'Lucid', 'Arial', 'Helvetica', 'Avant Garde', sans-serif; text-anchor: start" x="378.452332" y="610.217098" transform="rotate(-0 378.452332 610.217098)">consumer-sts-1</text>
    </g>
    <g id="line2d_68">
     <path d="M 446.201395 597.266551
L 453.201395 597.266551
L 460.201395 597.266551
" style="fill: none; stroke: #3d7b52; stroke-width: 1.4; stroke-linecap: square"/>
    </g>
    <g id="text_47">
     <text style="font-size: 7px; font-family: 'DejaVu Sans', 'Bitstream Vera Sans', 'Computer Modern Sans Serif', 'Lucida Grande', 'Verdana', 'Geneva', 'Lucid', 'Arial', 'Helvetica', 'Avant Garde', sans-serif; text-anchor: start" x="465.801395" y="599.716551" transform="rotate(-0 465.801395 599.716551)">consumer-sts-2</text>
    </g>
    <g id="line2d_69">
     <path d="M 446.201395 607.767098
L 453.201395 607.767098
L 460.201395 607.767098
" style="fill: none; stroke: #8b5c9c; stroke-width: 1.4; stroke-linecap: square"/>
    </g>
    <g id="text_48">
     <text style="font-size: 7px; font-family: 'DejaVu Sans', 'Bitstream Vera Sans', 'Computer Modern Sans Serif', 'Lucida Grande', 'Verdana', 'Geneva', 'Lucid', 'Arial', 'Helvetica', 'Avant Garde', sans-serif; text-anchor: start" x="465.801395" y="610.217098" transform="rotate(-0 465.801395 610.217098)">consumer-sts-3</text>
    </g>
    <g id="line2d_70">
     <path d="M 533.550457 597.266551
L 540.550457 597.266551
L 547.550457 597.266551
" style="fill: none; stroke: #bd4c67; stroke-width: 1.4; stroke-linecap: square"/>
    </g>
    <g id="text_49">
     <text style="font-size: 7px; font-family: 'DejaVu Sans', 'Bitstream Vera Sans', 'Computer Modern Sans Serif', 'Lucida Grande', 'Verdana', 'Geneva', 'Lucid', 'Arial', 'Helvetica', 'Avant Garde', sans-serif; text-anchor: start" x="553.150458" y="599.716551" transform="rotate(-0 553.150458 599.716551)">consumer-sts-4</text>
    </g>
    <g id="line2d_71">
     <path d="M 533.550457 607.767098
L 540.550457 607.767098
L 547.550457 607.767098
" style="fill: none; stroke: #817143; stroke-width: 1.4; stroke-linecap: square"/>
    </g>
    <g id="text_50">
     <text style="font-size: 7px; font-family: 'DejaVu Sans', 'Bitstream Vera Sans', 'Computer Modern Sans Serif', 'Lucida Grande', 'Verdana', 'Geneva', 'Lucid', 'Arial', 'Helvetica', 'Avant Garde', sans-serif; text-anchor: start" x="553.150458" y="610.217098" transform="rotate(-0 553.150458 610.217098)">consumer-sts-5</text>
    </g>
   </g>
  </g>
  <g id="text_51">
   <text style="font-size: 12px; font-family: 'DejaVu Sans', 'Bitstream Vera Sans', 'Computer Modern Sans Serif', 'Lucida Grande', 'Verdana', 'Geneva', 'Lucid', 'Arial', 'Helvetica', 'Avant Garde', sans-serif" transform="translate(183.65601 17.519297)">Skew · 3 initial consumers · target 1,500/s</text>
   <text style="font-size: 12px; font-family: 'DejaVu Sans', 'Bitstream Vera Sans', 'Computer Modern Sans Serif', 'Lucida Grande', 'Verdana', 'Geneva', 'Lucid', 'Arial', 'Helvetica', 'Avant Garde', sans-serif" transform="translate(198.77601 31.922578)">run-20260913-030934 · action: scale</text>
  </g>
 </g>
 <defs>
  <clipPath id="p38df915549">
   <rect x="60.013281" y="72.729621" width="553.186239" height="147.076782"/>
  </clipPath>
  <clipPath id="p4816662ee4">
   <rect x="60.013281" y="271.925789" width="553.186239" height="147.076782"/>
  </clipPath>
  <clipPath id="pdd1f011fe6">
   <rect x="60.013281" y="471.121957" width="553.186239" height="147.076782"/>
  </clipPath>
 </defs>
</svg>
