<?xml version="1.0" encoding="utf-8" standalone="no"?>
<!DOCTYPE svg PUBLIC "-//W3C//DTD SVG 1.1//EN"
  "http://www.w3.org/Graphics/SVG/1.1/DTD/svg11.dtd">
<svg xmlns:xlink="http://www.w3.org/1999/xlink" width="620.39952pt" height="260.39952pt" viewBox="0 0 620.39952 260.39952" xmlns="http://www.w3.org/2000/svg" version="1.1">
 <metadata>
  <rdf:RDF xmlns:dc="http://purl.org/dc/elements/1.1/" xmlns:cc="http://creativecommons.org/ns#" xmlns:rdf="http://www.w3.org/1999/02/22-rdf-syntax-ns#">
   <cc:Work>
    <dc:type rdf:resource="http://purl.org/dc/dcmitype/StillImage"/>
    <dc:date>2026-09-12T07:00:14.809617</dc:date>
    <dc:format>image/svg+xml</dc:format>
    <dc:creator>
     <cc:Agent>
      <dc:title>Matplotlib v3.11.2, https://matplotlib.org/</dc:title>
     </cc:Agent>
    </dc:creator>
   </cc:Work>
  </rdf:RDF>
 </metadata>
 <defs>
  <style type="text/css">*{stroke-linejoin: round; stroke-linecap: butt}</style>
 </defs>
 <g id="figure_1">
  <g id="patch_1">
   <path d="M 0 260.39952
L 620.39952 260.39952
L 620.39952 -0
L 0 -0
z
" style="fill: #ffffff"/>
  </g>
  <g id="axes_1">
   <g id="patch_2">
    <path d="M 60.013281 222.198739
L 613.19952 222.198739
L 613.19952 54.923917
L 60.013281 54.923917
z
" style="fill: #ffffff"/>
   </g>
   <g id="matplotlib.axis_1">
    <g id="xtick_1">
     <g id="line2d_1">
      <defs>
       <path id="m8fa6494fc2" d="M 0 0
L 0 3.5
" style="stroke: #000000; stroke-width: 0.8"/>
      </defs>
      <g>
       <use xlink:href="#m8fa6494fc2" x="60.013281" y="222.198739" style="stroke: #000000; stroke-width: 0.8"/>
      </g>
     </g>
     <g id="text_1">
      <text style="font-size: 10px; font-family: 'DejaVu Sans', 'Bitstream Vera Sans', 'Computer Modern Sans Serif', 'Lucida Grande', 'Verdana', 'Geneva', 'Lucid', 'Arial', 'Helvetica', 'Avant Garde', sans-serif; text-anchor: middle" x="60.013281" y="236.796395" transform="rotate(-0 60.013281 236.796395)">0</text>
     </g>
    </g>
    <g id="xtick_2">
     <g id="line2d_2">
      <g>
       <use xlink:href="#m8fa6494fc2" x="162.455177" y="222.198739" style="stroke: #000000; stroke-width: 0.8"/>
      </g>
     </g>
     <g id="text_2">
      <text style="font-size: 10px; font-family: 'DejaVu Sans', 'Bitstream Vera Sans', 'Computer Modern Sans Serif', 'Lucida Grande', 'Verdana', 'Geneva', 'Lucid', 'Arial', 'Helvetica', 'Avant Garde', sans-serif; text-anchor: middle" x="162.455177" y="236.796395" transform="rotate(-0 162.455177 236.796395)">100</text>
     </g>
    </g>
    <g id="xtick_3">
     <g id="line2d_3">
      <g>
       <use xlink:href="#m8fa6494fc2" x="264.897073" y="222.198739" style="stroke: #000000; stroke-width: 0.8"/>
      </g>
     </g>
     <g id="text_3">
      <text style="font-size: 10px; font-family: 'DejaVu Sans', 'Bitstream Vera Sans', 'Computer Modern Sans Serif', 'Lucida Grande', 'Verdana', 'Geneva', 'Lucid', 'Arial', 'Helvetica', 'Avant Garde', sans-serif; text-anchor: middle" x="264.897073" y="236.796395" transform="rotate(-0 264.897073 236.796395)">200</text>
     </g>
    </g>
    <g id="xtick_4">
     <g id="line2d_4">
      <g>
       <use xlink:href="#m8fa6494fc2" x="367.338969" y="222.198739" style="stroke: #000000; stroke-width: 0.8"/>
      </g>
     </g>
     <g id="text_4">
      <text style="font-size: 10px; font-family: 'DejaVu Sans', 'Bitstream Vera Sans', 'Computer Modern Sans Serif', 'Lucida Grande', 'Verdana', 'Geneva', 'Lucid', 'Arial', 'Helvetica', 'Avant Garde', sans-serif; text-anchor: middle" x="367.338969" y="236.796395" transform="rotate(-0 367.338969 236.796395)">300</text>
     </g>
    </g>
    <g id="xtick_5">
     <g id="line2d_5">
      <g>
       <use xlink:href="#m8fa6494fc2" x="469.780866" y="222.198739" style="stroke: #000000; stroke-width: 0.8"/>
      </g>
     </g>
     <g id="text_5">
      <text style="font-size: 10px; font-family: 'DejaVu Sans', 'Bitstream Vera Sans', 'Computer Modern Sans Serif', 'Lucida Grande', 'Verdana', 'Geneva', 'Lucid', 'Arial', 'Helvetica', 'Avant Garde', sans-serif; text-anchor: middle" x="469.780866" y="236.796395" transform="rotate(-0 469.780866 236.796395)">400</text>
     </g>
    </g>
    <g id="xtick_6">
     <g id="line2d_6">
      <g>
       <use xlink:href="#m8fa6494fc2" x="572.222762" y="222.198739" style="stroke: #000000; stroke-width: 0.8"/>
      </g>
     </g>
     <g id="text_6">
      <text style="font-size: 10px; font-family: 'DejaVu Sans', 'Bitstream Vera Sans', 'Computer Modern Sans Serif', 'Lucida Grande', 'Verdana', 'Geneva', 'Lucid', 'Arial', 'Helvetica', 'Avant Garde', sans-serif; text-anchor: middle" x="572.222762" y="236.796395" transform="rotate(-0 572.222762 236.796395)">500</text>
     </g>
    </g>
    <g id="text_7">
     <text style="font-size: 10px; font-family: 'DejaVu Sans', 'Bitstream Vera Sans', 'Computer Modern Sans Serif', 'Lucida Grande', 'Verdana', 'Geneva', 'Lucid', 'Arial', 'Helvetica', 'Avant Garde', sans-serif; text-anchor: middle" x="336.606401" y="250.797176" transform="rotate(-0 336.606401 250.797176)">Seconds from evaluation start</text>
    </g>
   </g>
   <g id="matplotlib.axis_2">
    <g id="ytick_1">
     <g id="line2d_7">
      <path d="M 60.013281 222.198739
L 613.19952 222.198739
" clip-path="url(#p02fb81aa46)" style="fill: none; stroke: #b0b0b0; stroke-opacity: 0.2; stroke-width: 0.8; stroke-linecap: square"/>
     </g>
     <g id="line2d_8">
      <defs>
       <path id="me3ddf30c06" d="M 0 0
L -3.5 0
" style="stroke: #000000; stroke-width: 0.8"/>
      </defs>
      <g>
       <use xlink:href="#me3ddf30c06" x="60.013281" y="222.198739" style="stroke: #000000; stroke-width: 0.8"/>
      </g>
     </g>
     <g id="text_8">
      <text style="font-size: 10px; font-family: 'DejaVu Sans', 'Bitstream Vera Sans', 'Computer Modern Sans Serif', 'Lucida Grande', 'Verdana', 'Geneva', 'Lucid', 'Arial', 'Helvetica', 'Avant Garde', sans-serif; text-anchor: end" x="53.013281" y="225.997567" transform="rotate(-0 53.013281 225.997567)">0</text>
     </g>
    </g>
    <g id="ytick_2">
     <g id="line2d_9">
      <path d="M 60.013281 197.745215
L 613.19952 197.745215
" clip-path="url(#p02fb81aa46)" style="fill: none; stroke: #b0b0b0; stroke-opacity: 0.2; stroke-width: 0.8; stroke-linecap: square"/>
     </g>
     <g id="line2d_10">
      <g>
       <use xlink:href="#me3ddf30c06" x="60.013281" y="197.745215" style="stroke: #000000; stroke-width: 0.8"/>
      </g>
     </g>
     <g id="text_9">
      <text style="font-size: 10px; font-family: 'DejaVu Sans', 'Bitstream Vera Sans', 'Computer Modern Sans Serif', 'Lucida Grande', 'Verdana', 'Geneva', 'Lucid', 'Arial', 'Helvetica', 'Avant Garde', sans-serif; text-anchor: end" x="53.013281" y="201.544043" transform="rotate(-0 53.013281 201.544043)">5000</text>
     </g>
    </g>
    <g id="ytick_3">
     <g id="line2d_11">
      <path d="M 60.013281 173.29169
L 613.19952 173.29169
" clip-path="url(#p02fb81aa46)" style="fill: none; stroke: #b0b0b0; stroke-opacity: 0.2; stroke-width: 0.8; stroke-linecap: square"/>
     </g>
     <g id="line2d_12">
      <g>
       <use xlink:href="#me3ddf30c06" x="60.013281" y="173.29169" style="stroke: #000000; stroke-width: 0.8"/>
      </g>
     </g>
     <g id="text_10">
      <text style="font-size: 10px; font-family: 'DejaVu Sans', 'Bitstream Vera Sans', 'Computer Modern Sans Serif', 'Lucida Grande', 'Verdana', 'Geneva', 'Lucid', 'Arial', 'Helvetica', 'Avant Garde', sans-serif; text-anchor: end" x="53.013281" y="177.090519" transform="rotate(-0 53.013281 177.090519)">10000</text>
     </g>
    </g>
    <g id="ytick_4">
     <g id="line2d_13">
      <path d="M 60.013281 148.838166
L 613.19952 148.838166
" clip-path="url(#p02fb81aa46)" style="fill: none; stroke: #b0b0b0; stroke-opacity: 0.2; stroke-width: 0.8; stroke-linecap: square"/>
     </g>
     <g id="line2d_14">
      <g>
       <use xlink:href="#me3ddf30c06" x="60.013281" y="148.838166" style="stroke: #000000; stroke-width: 0.8"/>
      </g>
     </g>
     <g id="text_11">
      <text style="font-size: 10px; font-family: 'DejaVu Sans', 'Bitstream Vera Sans', 'Computer Modern Sans Serif', 'Lucida Grande', 'Verdana', 'Geneva', 'Lucid', 'Arial', 'Helvetica', 'Avant Garde', sans-serif; text-anchor: end" x="53.013281" y="152.636994" transform="rotate(-0 53.013281 152.636994)">15000</text>
     </g>
    </g>
    <g id="ytick_5">
     <g id="line2d_15">
      <path d="M 60.013281 124.384642
L 613.19952 124.384642
" clip-path="url(#p02fb81aa46)" style="fill: none; stroke: #b0b0b0; stroke-opacity: 0.2; stroke-width: 0.8; stroke-linecap: square"/>
     </g>
     <g id="line2d_16">
      <g>
       <use xlink:href="#me3ddf30c06" x="60.013281" y="124.384642" style="stroke: #000000; stroke-width: 0.8"/>
      </g>
     </g>
     <g id="text_12">
      <text style="font-size: 10px; font-family: 'DejaVu Sans', 'Bitstream Vera Sans', 'Computer Modern Sans Serif', 'Lucida Grande', 'Verdana', 'Geneva', 'Lucid', 'Arial', 'Helvetica', 'Avant Garde', sans-serif; text-anchor: end" x="53.013281" y="128.18347" transform="rotate(-0 53.013281 128.18347)">20000</text>
     </g>
    </g>
    <g id="ytick_6">
     <g id="line2d_17">
      <path d="M 60.013281 99.931118
L 613.19952 99.931118
" clip-path="url(#p02fb81aa46)" style="fill: none; stroke: #b0b0b0; stroke-opacity: 0.2; stroke-width: 0.8; stroke-linecap: square"/>
     </g>
     <g id="line2d_18">
      <g>
       <use xlink:href="#me3ddf30c06" x="60.013281" y="99.931118" style="stroke: #000000; stroke-width: 0.8"/>
      </g>
     </g>
     <g id="text_13">
      <text style="font-size: 10px; font-family: 'DejaVu Sans', 'Bitstream Vera Sans', 'Computer Modern Sans Serif', 'Lucida Grande', 'Verdana', 'Geneva', 'Lucid', 'Arial', 'Helvetica', 'Avant Garde', sans-serif; text-anchor: end" x="53.013281" y="103.729946" transform="rotate(-0 53.013281 103.729946)">25000</text>
     </g>
    </g>
    <g id="ytick_7">
     <g id="line2d_19">
      <path d="M 60.013281 75.477594
L 613.19952 75.477594
" clip-path="url(#p02fb81aa46)" style="fill: none; stroke: #b0b0b0; stroke-opacity: 0.2; stroke-width: 0.8; stroke-linecap: square"/>
     </g>
     <g id="line2d_20">
      <g>
       <use xlink:href="#me3ddf30c06" x="60.013281" y="75.477594" style="stroke: #000000; stroke-width: 0.8"/>
      </g>
     </g>
     <g id="text_14">
      <text style="font-size: 10px; font-family: 'DejaVu Sans', 'Bitstream Vera Sans', 'Computer Modern Sans Serif', 'Lucida Grande', 'Verdana', 'Geneva', 'Lucid', 'Arial', 'Helvetica', 'Avant Garde', sans-serif; text-anchor: end" x="53.013281" y="79.276422" transform="rotate(-0 53.013281 79.276422)">30000</text>
     </g>
    </g>
    <g id="text_15">
     <text style="font-size: 10px; font-family: 'DejaVu Sans', 'Bitstream Vera Sans', 'Computer Modern Sans Serif', 'Lucida Grande', 'Verdana', 'Geneva', 'Lucid', 'Arial', 'Helvetica', 'Avant Garde', sans-serif; text-anchor: middle" x="14.798438" y="138.561328" transform="rotate(-90 14.798438 138.561328)">Completion-frontier offsets</text>
    </g>
   </g>
   <g id="line2d_21">
    <path d="M 62.062014 140.53864
L 64.110852 140.53864
L 66.15969 134.792062
L 70.257365 134.792062
L 72.306203 127.050076
L 74.355041 127.050076
L 76.403879 121.616503
L 80.501555 121.616503
L 82.550393 113.693561
L 84.599231 113.693561
L 86.648069 108.240425
L 90.745745 108.240425
L 92.794582 102.86065
L 94.84342 102.86065
L 96.892258 94.316589
L 100.989934 94.316589
L 103.038772 90.584981
L 105.08761 90.584981
L 107.136448 82.989716
L 111.234124 82.989716
L 113.282962 77.453438
L 115.3318 77.453438
L 117.380638 70.352135
L 121.478313 70.352135
L 123.527151 64.649573
L 125.575989 64.649573
L 127.624827 59.000809
L 131.722503 59.000809
M 164.50391 94.761643
L 166.552748 99.534971
L 168.601586 106.039608
L 170.650423 111.223755
L 172.699261 114.45162
L 174.748099 114.735281
L 176.796937 115.600936
L 178.845775 115.258587
L 182.943451 115.248805
L 184.992289 114.872221
L 187.041127 114.886893
L 189.089965 115.777002
L 193.187641 115.830799
L 195.236479 115.009161
L 197.285316 115.018942
L 199.334154 115.517794
L 203.43183 115.552029
L 205.480668 115.703641
L 207.529506 115.708532
L 209.578344 115.923723
L 213.67602 115.923723
L 215.724858 116.456809
L 217.773696 116.403012
L 219.822534 116.060662
L 223.920209 116.070444
L 225.969047 116.799159
L 228.017885 116.794268
L 230.066723 117.249104
L 234.164399 117.214869
L 236.213237 117.386043
L 238.262075 117.400716
L 240.310913 118.183228
L 244.408589 118.232135
L 246.457427 119.043992
L 250.555102 118.902162
L 254.652778 118.946178
L 256.701616 118.696752
L 258.750454 118.721206
L 260.799292 119.215167
L 268.994644 119.293418
L 271.043482 119.772707
L 275.141157 119.762926
L 277.189995 119.894975
L 279.238833 119.885194
L 281.287671 119.679784
L 285.385347 119.821614
L 287.434185 120.364483
L 289.483023 120.379155
L 291.531861 120.745958
L 295.629537 120.706832
L 297.678375 120.579674
L 299.727213 120.565002
L 301.77605 120.222652
L 305.873726 120.256887
L 307.922564 120.755739
L 316.117916 120.706832
L 318.166754 121.401312
L 320.215592 121.381749
L 322.26443 121.504017
L 326.362106 121.508908
L 328.410943 121.919727
L 330.459781 121.949071
L 332.508619 122.511502
L 336.606295 122.521283
L 338.655133 123.269561
L 340.703971 123.264671
L 342.752809 122.956556
L 346.850485 122.98101
L 350.948161 122.785382
L 352.996998 123.533659
L 355.045836 123.572785
L 357.094674 123.39672
L 359.143512 123.910244
L 361.19235 123.856446
L 363.241188 124.565598
L 367.338864 124.604724
L 371.43654 124.316172
L 373.485378 125.220953
L 375.534216 125.377455
L 377.583054 125.421471
L 379.631891 125.641553
L 381.680729 125.646444
L 383.729567 126.179531
L 387.827243 126.155077
L 389.876081 126.389831
L 396.022595 126.502317
L 398.071433 126.516989
L 400.120271 127.372863
L 404.217947 127.387535
L 408.315622 127.28483
L 410.36446 128.067343
L 412.413298 128.082015
L 414.462136 128.267862
L 418.559812 128.292315
L 424.706326 128.590648
L 428.804002 128.561304
L 430.852839 129.568789
L 432.901677 129.510101
L 443.145867 129.823106
L 445.194705 130.434444
L 449.292381 130.463788
L 451.341219 130.6154
L 453.390057 130.620291
L 455.438895 131.246301
L 463.634246 131.402803
L 465.683084 131.803841
L 469.78076 131.86253
L 471.829598 132.111956
L 473.878436 132.102174
L 475.927274 132.542338
L 480.02495 132.498321
L 482.073788 132.733075
L 484.122625 132.762419
L 486.171463 132.366272
L 490.269139 132.405398
L 492.317977 131.598432
L 494.366815 131.598432
L 496.415653 130.869717
L 500.513329 130.830591
L 502.562167 130.224144
L 504.611005 130.204581
L 506.659843 129.206877
L 508.708681 129.241112
L 510.757518 129.480756
L 512.806356 128.81073
L 514.855194 128.771604
L 516.904032 128.106468
L 521.001708 128.140703
L 523.050546 127.788573
L 525.099384 127.636961
L 527.148222 126.340924
L 529.19706 126.428957
L 531.245898 126.404503
L 533.294736 125.856744
L 535.343573 125.944777
L 537.392411 125.059559
L 541.490087 124.971527
L 543.538925 124.3015
L 545.587763 124.311281
L 547.636601 123.245108
L 551.734277 123.249998
L 553.783115 122.653333
L 555.831953 122.648442
L 557.880791 122.252295
L 561.978466 122.379453
L 564.027304 121.406203
L 566.076142 121.381749
L 568.12498 120.599236
L 572.222656 120.643253
L 574.271494 119.987898
L 576.320332 120.012352
L 578.36917 119.537954
L 582.466846 119.542844
L 584.515684 118.765222
L 586.564522 118.75055
L 588.613359 117.772409
L 592.711035 117.747956
L 594.759873 117.209978
L 596.808711 117.22465
L 598.857549 116.358995
L 602.955225 116.344323
L 605.004063 116.109569
L 607.052901 116.143804
L 609.101739 115.576483
L 613.199414 115.581373
L 613.199414 115.581373
" clip-path="url(#p02fb81aa46)" style="fill: none; stroke: #21618c; stroke-width: 1.5; stroke-linecap: square"/>
   </g>
   <g id="line2d_22">
    <path d="M 121.478419 222.198739
L 121.478419 54.923917
" clip-path="url(#p02fb81aa46)" style="fill: none; stroke-dasharray: 3.7,1.6; stroke-dashoffset: 0; stroke: #444444"/>
   </g>
   <g id="patch_3">
    <path d="M 60.013281 222.198739
L 60.013281 54.923917
" style="fill: none; stroke: #000000; stroke-width: 0.8; stroke-linejoin: miter; stroke-linecap: square"/>
   </g>
   <g id="patch_4">
    <path d="M 60.013281 222.198739
L 613.19952 222.198739
" style="fill: none; stroke: #000000; stroke-width: 0.8; stroke-linejoin: miter; stroke-linecap: square"/>
   </g>
   <g id="text_16">
    <text style="font-size: 12px; font-family: 'DejaVu Sans', 'Bitstream Vera Sans', 'Computer Modern Sans Serif', 'Lucida Grande', 'Verdana', 'Geneva', 'Lucid', 'Arial', 'Helvetica', 'Avant Garde', sans-serif" transform="translate(213.648588 34.520636)">Processing backlog · 93.7% lag coverage</text>
    <text style="font-size: 12px; font-family: 'DejaVu Sans', 'Bitstream Vera Sans', 'Computer Modern Sans Serif', 'Lucida Grande', 'Verdana', 'Geneva', 'Lucid', 'Arial', 'Helvetica', 'Avant Garde', sans-serif" transform="translate(184.605776 48.923917)">Gaps denote invalid or discontinuous observations</text>
   </g>
  </g>
  <g id="text_17">
   <text style="font-size: 11px; font-family: 'DejaVu Sans', 'Bitstream Vera Sans', 'Computer Modern Sans Serif', 'Lucida Grande', 'Verdana', 'Geneva', 'Lucid', 'Arial', 'Helvetica', 'Avant Garde', sans-serif; text-anchor: middle" x="310.19976" y="15.558281" transform="rotate(-0 310.19976 15.558281)">Balanced · 3 initial consumers · target 1,500/s</text>
  </g>
 </g>
 <defs>
  <clipPath id="p02fb81aa46">
   <rect x="60.013281" y="54.923917" width="553.186239" height="167.274821"/>
  </clipPath>
 </defs>
</svg>
