<?xml version="1.0" encoding="utf-8" standalone="no"?>
<!DOCTYPE svg PUBLIC "-//W3C//DTD SVG 1.1//EN"
  "http://www.w3.org/Graphics/SVG/1.1/DTD/svg11.dtd">
<svg xmlns:xlink="http://www.w3.org/1999/xlink" width="620.39952pt" height="260.39952pt" viewBox="0 0 620.39952 260.39952" xmlns="http://www.w3.org/2000/svg" version="1.1">
 <metadata>
  <rdf:RDF xmlns:dc="http://purl.org/dc/elements/1.1/" xmlns:cc="http://creativecommons.org/ns#" xmlns:rdf="http://www.w3.org/1999/02/22-rdf-syntax-ns#">
   <cc:Work>
    <dc:type rdf:resource="http://purl.org/dc/dcmitype/StillImage"/>
    <dc:date>2026-09-12T08:41:08.968079</dc:date>
    <dc:format>image/svg+xml</dc:format>
    <dc:creator>
     <cc:Agent>
      <dc:title>Matplotlib v3.11.2, https://matplotlib.org/</dc:title>
     </cc:Agent>
    </dc:creator>
   </cc:Work>
  </rdf:RDF>
 </metadata>
 <defs>
  <style type="text/css">*{stroke-linejoin: round; stroke-linecap: butt}</style>
 </defs>
 <g id="figure_1">
  <g id="patch_1">
   <path d="M 0 260.39952
L 620.39952 260.39952
L 620.39952 -0
L 0 -0
z
" style="fill: #ffffff"/>
  </g>
  <g id="axes_1">
   <g id="patch_2">
    <path d="M 53.650781 222.198739
L 603.65577 222.198739
L 603.65577 39.319464
L 53.650781 39.319464
z
" style="fill: #ffffff"/>
   </g>
   <g id="matplotlib.axis_1">
    <g id="xtick_1">
     <g id="line2d_1">
      <defs>
       <path id="m6204592204" d="M 0 0
L 0 3.5
" style="stroke: #000000; stroke-width: 0.8"/>
      </defs>
      <g>
       <use xlink:href="#m6204592204" x="53.650781" y="222.198739" style="stroke: #000000; stroke-width: 0.8"/>
      </g>
     </g>
     <g id="text_1">
      <text style="font-size: 10px; font-family: 'DejaVu Sans', 'Bitstream Vera Sans', 'Computer Modern Sans Serif', 'Lucida Grande', 'Verdana', 'Geneva', 'Lucid', 'Arial', 'Helvetica', 'Avant Garde', sans-serif; text-anchor: middle" x="53.650781" y="236.796395" transform="rotate(-0 53.650781 236.796395)">0</text>
     </g>
    </g>
    <g id="xtick_2">
     <g id="line2d_2">
      <g>
       <use xlink:href="#m6204592204" x="145.318279" y="222.198739" style="stroke: #000000; stroke-width: 0.8"/>
      </g>
     </g>
     <g id="text_2">
      <text style="font-size: 10px; font-family: 'DejaVu Sans', 'Bitstream Vera Sans', 'Computer Modern Sans Serif', 'Lucida Grande', 'Verdana', 'Geneva', 'Lucid', 'Arial', 'Helvetica', 'Avant Garde', sans-serif; text-anchor: middle" x="145.318279" y="236.796395" transform="rotate(-0 145.318279 236.796395)">20</text>
     </g>
    </g>
    <g id="xtick_3">
     <g id="line2d_3">
      <g>
       <use xlink:href="#m6204592204" x="236.985777" y="222.198739" style="stroke: #000000; stroke-width: 0.8"/>
      </g>
     </g>
     <g id="text_3">
      <text style="font-size: 10px; font-family: 'DejaVu Sans', 'Bitstream Vera Sans', 'Computer Modern Sans Serif', 'Lucida Grande', 'Verdana', 'Geneva', 'Lucid', 'Arial', 'Helvetica', 'Avant Garde', sans-serif; text-anchor: middle" x="236.985777" y="236.796395" transform="rotate(-0 236.985777 236.796395)">40</text>
     </g>
    </g>
    <g id="xtick_4">
     <g id="line2d_4">
      <g>
       <use xlink:href="#m6204592204" x="328.653276" y="222.198739" style="stroke: #000000; stroke-width: 0.8"/>
      </g>
     </g>
     <g id="text_4">
      <text style="font-size: 10px; font-family: 'DejaVu Sans', 'Bitstream Vera Sans', 'Computer Modern Sans Serif', 'Lucida Grande', 'Verdana', 'Geneva', 'Lucid', 'Arial', 'Helvetica', 'Avant Garde', sans-serif; text-anchor: middle" x="328.653276" y="236.796395" transform="rotate(-0 328.653276 236.796395)">60</text>
     </g>
    </g>
    <g id="xtick_5">
     <g id="line2d_5">
      <g>
       <use xlink:href="#m6204592204" x="420.320774" y="222.198739" style="stroke: #000000; stroke-width: 0.8"/>
      </g>
     </g>
     <g id="text_5">
      <text style="font-size: 10px; font-family: 'DejaVu Sans', 'Bitstream Vera Sans', 'Computer Modern Sans Serif', 'Lucida Grande', 'Verdana', 'Geneva', 'Lucid', 'Arial', 'Helvetica', 'Avant Garde', sans-serif; text-anchor: middle" x="420.320774" y="236.796395" transform="rotate(-0 420.320774 236.796395)">80</text>
     </g>
    </g>
    <g id="xtick_6">
     <g id="line2d_6">
      <g>
       <use xlink:href="#m6204592204" x="511.988272" y="222.198739" style="stroke: #000000; stroke-width: 0.8"/>
      </g>
     </g>
     <g id="text_6">
      <text style="font-size: 10px; font-family: 'DejaVu Sans', 'Bitstream Vera Sans', 'Computer Modern Sans Serif', 'Lucida Grande', 'Verdana', 'Geneva', 'Lucid', 'Arial', 'Helvetica', 'Avant Garde', sans-serif; text-anchor: middle" x="511.988272" y="236.796395" transform="rotate(-0 511.988272 236.796395)">100</text>
     </g>
    </g>
    <g id="xtick_7">
     <g id="line2d_7">
      <g>
       <use xlink:href="#m6204592204" x="603.65577" y="222.198739" style="stroke: #000000; stroke-width: 0.8"/>
      </g>
     </g>
     <g id="text_7">
      <text style="font-size: 10px; font-family: 'DejaVu Sans', 'Bitstream Vera Sans', 'Computer Modern Sans Serif', 'Lucida Grande', 'Verdana', 'Geneva', 'Lucid', 'Arial', 'Helvetica', 'Avant Garde', sans-serif; text-anchor: middle" x="603.65577" y="236.796395" transform="rotate(-0 603.65577 236.796395)">120</text>
     </g>
    </g>
    <g id="text_8">
     <text style="font-size: 10px; font-family: 'DejaVu Sans', 'Bitstream Vera Sans', 'Computer Modern Sans Serif', 'Lucida Grande', 'Verdana', 'Geneva', 'Lucid', 'Arial', 'Helvetica', 'Avant Garde', sans-serif; text-anchor: middle" x="328.653276" y="250.797176" transform="rotate(-0 328.653276 250.797176)">Seconds from evaluation start</text>
    </g>
   </g>
   <g id="matplotlib.axis_2">
    <g id="ytick_1">
     <g id="line2d_8">
      <path d="M 53.650781 222.198739
L 603.65577 222.198739
" clip-path="url(#pb405550c87)" style="fill: none; stroke: #b0b0b0; stroke-opacity: 0.2; stroke-width: 0.8; stroke-linecap: square"/>
     </g>
     <g id="line2d_9">
      <defs>
       <path id="m7c9da20976" d="M 0 0
L -3.5 0
" style="stroke: #000000; stroke-width: 0.8"/>
      </defs>
      <g>
       <use xlink:href="#m7c9da20976" x="53.650781" y="222.198739" style="stroke: #000000; stroke-width: 0.8"/>
      </g>
     </g>
     <g id="text_9">
      <text style="font-size: 10px; font-family: 'DejaVu Sans', 'Bitstream Vera Sans', 'Computer Modern Sans Serif', 'Lucida Grande', 'Verdana', 'Geneva', 'Lucid', 'Arial', 'Helvetica', 'Avant Garde', sans-serif; text-anchor: end" x="46.650781" y="225.997567" transform="rotate(-0 46.650781 225.997567)">0</text>
     </g>
    </g>
    <g id="ytick_2">
     <g id="line2d_10">
      <path d="M 53.650781 193.426357
L 603.65577 193.426357
" clip-path="url(#pb405550c87)" style="fill: none; stroke: #b0b0b0; stroke-opacity: 0.2; stroke-width: 0.8; stroke-linecap: square"/>
     </g>
     <g id="line2d_11">
      <g>
       <use xlink:href="#m7c9da20976" x="53.650781" y="193.426357" style="stroke: #000000; stroke-width: 0.8"/>
      </g>
     </g>
     <g id="text_10">
      <text style="font-size: 10px; font-family: 'DejaVu Sans', 'Bitstream Vera Sans', 'Computer Modern Sans Serif', 'Lucida Grande', 'Verdana', 'Geneva', 'Lucid', 'Arial', 'Helvetica', 'Avant Garde', sans-serif; text-anchor: end" x="46.650781" y="197.225185" transform="rotate(-0 46.650781 197.225185)">200</text>
     </g>
    </g>
    <g id="ytick_3">
     <g id="line2d_12">
      <path d="M 53.650781 164.653975
L 603.65577 164.653975
" clip-path="url(#pb405550c87)" style="fill: none; stroke: #b0b0b0; stroke-opacity: 0.2; stroke-width: 0.8; stroke-linecap: square"/>
     </g>
     <g id="line2d_13">
      <g>
       <use xlink:href="#m7c9da20976" x="53.650781" y="164.653975" style="stroke: #000000; stroke-width: 0.8"/>
      </g>
     </g>
     <g id="text_11">
      <text style="font-size: 10px; font-family: 'DejaVu Sans', 'Bitstream Vera Sans', 'Computer Modern Sans Serif', 'Lucida Grande', 'Verdana', 'Geneva', 'Lucid', 'Arial', 'Helvetica', 'Avant Garde', sans-serif; text-anchor: end" x="46.650781" y="168.452803" transform="rotate(-0 46.650781 168.452803)">400</text>
     </g>
    </g>
    <g id="ytick_4">
     <g id="line2d_14">
      <path d="M 53.650781 135.881593
L 603.65577 135.881593
" clip-path="url(#pb405550c87)" style="fill: none; stroke: #b0b0b0; stroke-opacity: 0.2; stroke-width: 0.8; stroke-linecap: square"/>
     </g>
     <g id="line2d_15">
      <g>
       <use xlink:href="#m7c9da20976" x="53.650781" y="135.881593" style="stroke: #000000; stroke-width: 0.8"/>
      </g>
     </g>
     <g id="text_12">
      <text style="font-size: 10px; font-family: 'DejaVu Sans', 'Bitstream Vera Sans', 'Computer Modern Sans Serif', 'Lucida Grande', 'Verdana', 'Geneva', 'Lucid', 'Arial', 'Helvetica', 'Avant Garde', sans-serif; text-anchor: end" x="46.650781" y="139.680421" transform="rotate(-0 46.650781 139.680421)">600</text>
     </g>
    </g>
    <g id="ytick_5">
     <g id="line2d_16">
      <path d="M 53.650781 107.109211
L 603.65577 107.109211
" clip-path="url(#pb405550c87)" style="fill: none; stroke: #b0b0b0; stroke-opacity: 0.2; stroke-width: 0.8; stroke-linecap: square"/>
     </g>
     <g id="line2d_17">
      <g>
       <use xlink:href="#m7c9da20976" x="53.650781" y="107.109211" style="stroke: #000000; stroke-width: 0.8"/>
      </g>
     </g>
     <g id="text_13">
      <text style="font-size: 10px; font-family: 'DejaVu Sans', 'Bitstream Vera Sans', 'Computer Modern Sans Serif', 'Lucida Grande', 'Verdana', 'Geneva', 'Lucid', 'Arial', 'Helvetica', 'Avant Garde', sans-serif; text-anchor: end" x="46.650781" y="110.908039" transform="rotate(-0 46.650781 110.908039)">800</text>
     </g>
    </g>
    <g id="ytick_6">
     <g id="line2d_18">
      <path d="M 53.650781 78.336829
L 603.65577 78.336829
" clip-path="url(#pb405550c87)" style="fill: none; stroke: #b0b0b0; stroke-opacity: 0.2; stroke-width: 0.8; stroke-linecap: square"/>
     </g>
     <g id="line2d_19">
      <g>
       <use xlink:href="#m7c9da20976" x="53.650781" y="78.336829" style="stroke: #000000; stroke-width: 0.8"/>
      </g>
     </g>
     <g id="text_14">
      <text style="font-size: 10px; font-family: 'DejaVu Sans', 'Bitstream Vera Sans', 'Computer Modern Sans Serif', 'Lucida Grande', 'Verdana', 'Geneva', 'Lucid', 'Arial', 'Helvetica', 'Avant Garde', sans-serif; text-anchor: end" x="46.650781" y="82.135657" transform="rotate(-0 46.650781 82.135657)">1000</text>
     </g>
    </g>
    <g id="ytick_7">
     <g id="line2d_20">
      <path d="M 53.650781 49.564446
L 603.65577 49.564446
" clip-path="url(#pb405550c87)" style="fill: none; stroke: #b0b0b0; stroke-opacity: 0.2; stroke-width: 0.8; stroke-linecap: square"/>
     </g>
     <g id="line2d_21">
      <g>
       <use xlink:href="#m7c9da20976" x="53.650781" y="49.564446" style="stroke: #000000; stroke-width: 0.8"/>
      </g>
     </g>
     <g id="text_15">
      <text style="font-size: 10px; font-family: 'DejaVu Sans', 'Bitstream Vera Sans', 'Computer Modern Sans Serif', 'Lucida Grande', 'Verdana', 'Geneva', 'Lucid', 'Arial', 'Helvetica', 'Avant Garde', sans-serif; text-anchor: end" x="46.650781" y="53.363275" transform="rotate(-0 46.650781 53.363275)">1200</text>
     </g>
    </g>
    <g id="text_16">
     <text style="font-size: 10px; font-family: 'DejaVu Sans', 'Bitstream Vera Sans', 'Computer Modern Sans Serif', 'Lucida Grande', 'Verdana', 'Geneva', 'Lucid', 'Arial', 'Helvetica', 'Avant Garde', sans-serif; text-anchor: middle" x="14.798438" y="130.759102" transform="rotate(-90 14.798438 130.759102)">Messages / second</text>
    </g>
   </g>
   <g id="line2d_22">
    <path d="M -1 51.543986
L 7.816913 51.543986
L 16.983663 50.065086
L 26.150413 49.921224
L 35.317163 49.564446
L 44.483912 49.558692
L 53.650662 49.558692
L 62.817412 49.391812
L 71.984162 49.380303
L 81.150912 49.512656
L 90.317661 49.85217
L 99.484411 49.85217
L 108.651161 48.028001
L 117.817911 48.252426
L 126.984661 49.691045
L 136.15141 49.109843
L 145.31816 49.109843
L 154.48491 49.478129
L 163.65166 49.771608
L 172.81841 49.794626
L 181.98516 49.714063
L 191.151909 49.714063
L 200.318659 49.74859
L 209.485409 49.299741
L 218.652159 49.219178
L 227.818909 48.931454
L 236.985658 48.931454
L 246.152408 48.983244
L 255.319158 49.593219
L 264.485908 49.650764
L 273.652658 49.432093
L 282.819407 49.432093
L 291.986157 49.489638
L 301.152907 49.506902
L 310.319657 49.345776
L 319.486407 49.455111
L 328.653157 49.455111
L 337.819906 49.506902
L 346.986656 49.58171
L 356.153406 49.58171
L 365.320156 49.570201
L 374.486906 49.570201
L 383.653655 49.535674
L 392.820405 49.518411
L 401.987155 49.460866
L 411.153905 49.547183
L 420.320655 49.547183
L 429.487404 49.598973
L 438.654154 49.621991
L 447.820904 49.650764
L 456.987654 49.58171
L 466.154404 49.58171
L 475.321154 49.702554
L 484.487903 49.696799
L 493.654653 49.535674
L 502.821403 49.558692
L 511.988153 49.558692
L 521.154903 49.788871
L 530.321652 49.719817
L 539.488402 49.575955
L 548.655152 49.524165
L 557.821902 49.524165
L 566.988652 49.587464
L 576.155401 49.650764
L 585.322151 49.52992
L 594.488901 49.788871
L 603.655651 49.788871
L 612.822401 51.958309
L 621.39952 63.146952
" clip-path="url(#pb405550c87)" style="fill: none; stroke: #21618c; stroke-width: 1.4; stroke-linecap: square"/>
   </g>
   <g id="line2d_23">
    <path d="M -1 131.13415
L 7.816913 131.13415
L 16.983663 131.565735
L 26.150413 131.565735
L 35.317163 131.997321
L 53.650662 131.997321
L 62.817412 130.846426
L 99.484411 130.846426
L 108.651161 130.990288
L 117.817911 130.990288
L 126.984661 130.846426
L 145.31816 130.846426
L 154.48491 130.41484
L 209.485409 130.41484
L 218.652159 130.270978
L 236.985658 130.270978
L 246.152408 129.983254
L 282.819407 129.983254
L 291.986157 130.127116
L 346.986656 130.127116
L 356.153406 130.270978
L 374.486906 130.270978
L 383.653655 130.127116
L 392.820405 130.127116
L 401.987155 130.270978
L 438.654154 130.265224
L 447.820904 130.558702
L 466.154404 130.558702
L 475.321154 130.127116
L 484.487903 130.127116
L 493.654653 130.558702
L 511.988153 130.558702
L 521.154903 130.41484
L 530.321652 130.41484
L 539.488402 130.593229
L 557.821902 130.593229
L 566.988652 130.41484
L 576.155401 130.41484
L 585.322151 130.558702
L 603.655651 130.558702
L 612.822401 130.023536
L 621.39952 130.023536
L 621.39952 130.023536
" clip-path="url(#pb405550c87)" style="fill: none; stroke: #cc641c; stroke-width: 1.4; stroke-linecap: square"/>
   </g>
   <g id="line2d_24">
    <path d="M 53.650781 49.564446
L 603.65577 49.564446
" clip-path="url(#pb405550c87)" style="fill: none; stroke-dasharray: 1,1.65; stroke-dashoffset: 0; stroke: #777777"/>
   </g>
   <g id="line2d_25">
    <path d="M 328.653276 222.198739
L 328.653276 39.319464
" clip-path="url(#pb405550c87)" style="fill: none; stroke-dasharray: 3.7,1.6; stroke-dashoffset: 0; stroke: #444444"/>
   </g>
   <g id="patch_3">
    <path d="M 53.650781 222.198739
L 53.650781 39.319464
" style="fill: none; stroke: #000000; stroke-width: 0.8; stroke-linejoin: miter; stroke-linecap: square"/>
   </g>
   <g id="patch_4">
    <path d="M 53.650781 222.198739
L 603.65577 222.198739
" style="fill: none; stroke: #000000; stroke-width: 0.8; stroke-linejoin: miter; stroke-linecap: square"/>
   </g>
   <g id="text_17">
    <text style="font-size: 12px; font-family: 'DejaVu Sans', 'Bitstream Vera Sans', 'Computer Modern Sans Serif', 'Lucida Grande', 'Verdana', 'Geneva', 'Lucid', 'Arial', 'Helvetica', 'Avant Garde', sans-serif; text-anchor: middle" x="328.653276" y="33.319464" transform="rotate(-0 328.653276 33.319464)">Throughput · rolling 30-second rates</text>
   </g>
   <g id="legend_1">
    <g id="patch_5">
     <path d="M 59.250781 218.198739
L 181.840781 218.198739
Q 183.440781 218.198739 183.440781 216.598739
L 183.440781 181.396864
Q 183.440781 179.796864 181.840781 179.796864
L 59.250781 179.796864
Q 57.650781 179.796864 57.650781 181.396864
L 57.650781 216.598739
Q 57.650781 218.198739 59.250781 218.198739
z
" style="fill: #ffffff; opacity: 0.8; stroke: #cccccc; stroke-linejoin: miter"/>
    </g>
    <g id="line2d_26">
     <path d="M 60.850781 186.275614
L 68.850781 186.275614
L 76.850781 186.275614
" style="fill: none; stroke: #21618c; stroke-width: 1.4; stroke-linecap: square"/>
    </g>
    <g id="text_18">
     <text style="font-size: 8px; font-family: 'DejaVu Sans', 'Bitstream Vera Sans', 'Computer Modern Sans Serif', 'Lucida Grande', 'Verdana', 'Geneva', 'Lucid', 'Arial', 'Helvetica', 'Avant Garde', sans-serif; text-anchor: start" x="83.250781" y="189.075614" transform="rotate(-0 83.250781 189.075614)">Acknowledged attempts</text>
    </g>
    <g id="line2d_27">
     <path d="M 60.850781 198.276239
L 68.850781 198.276239
L 76.850781 198.276239
" style="fill: none; stroke: #cc641c; stroke-width: 1.4; stroke-linecap: square"/>
    </g>
    <g id="text_19">
     <text style="font-size: 8px; font-family: 'DejaVu Sans', 'Bitstream Vera Sans', 'Computer Modern Sans Serif', 'Lucida Grande', 'Verdana', 'Geneva', 'Lucid', 'Arial', 'Helvetica', 'Avant Garde', sans-serif; text-anchor: start" x="83.250781" y="201.076239" transform="rotate(-0 83.250781 201.076239)">Completed attempts</text>
    </g>
    <g id="line2d_28">
     <path d="M 60.850781 210.276864
L 68.850781 210.276864
L 76.850781 210.276864
" style="fill: none; stroke-dasharray: 1,1.65; stroke-dashoffset: 0; stroke: #777777"/>
    </g>
    <g id="text_20">
     <text style="font-size: 8px; font-family: 'DejaVu Sans', 'Bitstream Vera Sans', 'Computer Modern Sans Serif', 'Lucida Grande', 'Verdana', 'Geneva', 'Lucid', 'Arial', 'Helvetica', 'Avant Garde', sans-serif; text-anchor: start" x="83.250781" y="213.076864" transform="rotate(-0 83.250781 213.076864)">Configured target</text>
    </g>
   </g>
  </g>
  <g id="text_21">
   <text style="font-size: 11px; font-family: 'DejaVu Sans', 'Bitstream Vera Sans', 'Computer Modern Sans Serif', 'Lucida Grande', 'Verdana', 'Geneva', 'Lucid', 'Arial', 'Helvetica', 'Avant Garde', sans-serif; text-anchor: middle" x="310.19976" y="15.558281" transform="rotate(-0 310.19976 15.558281)">Balanced · 1 initial consumers · target 1,200/s</text>
  </g>
 </g>
 <defs>
  <clipPath id="pb405550c87">
   <rect x="53.650781" y="39.319464" width="550.004989" height="182.879274"/>
  </clipPath>
 </defs>
</svg>
